<?xml version="1.0" encoding="UTF-8"?>
<svg xmlns="http://www.w3.org/2000/svg" width="125" height="60" viewBox="0 0 125 60" fill="none">
  <rect width="125" height="60.0001" rx="6" fill="#16100D"></rect>
  <path fill-rule="evenodd" clip-rule="evenodd" d="M55.3405 27.5978C55.18 27.7176 54.9507 27.6459 54.8848 27.4554L52.9522 23.3058C52.8595 23.0379 52.4852 23.0379 52.3925 23.3058L50.4597 27.4554C50.3939 27.6459 50.1646 27.7176 50.0041 27.5978L45.5926 24.7658C45.373 24.602 45.0699 24.7999 45.1268 25.0699L46.9352 33.6618C46.9644 33.8003 47.0853 33.8993 47.2252 33.8993H49.7076L52.537 33.68C52.693 33.6679 52.8496 33.6683 53.0054 33.6812L55.637 33.8993H58.1191C58.259 33.8993 58.3799 33.8003 58.409 33.6618L60.2179 25.0699C60.2747 24.7999 59.9716 24.602 59.752 24.7658L55.3405 27.5978ZM58.1172 27.8487L56.2199 28.8057C55.2565 29.5242 53.881 29.0943 53.4857 27.951L52.6724 27.0383L51.8588 27.951C51.4636 29.0943 50.0881 29.5242 49.1247 28.8057L47.2273 27.8486L48.3243 32.0989L52.7713 32.3989L56.9219 32.0989L58.1172 27.8487Z" fill="url(#paint0_linear_4705_75)"></path>
  <path d="M18.8393 40.8263C41.9369 35.1331 80.1865 35.6489 105.548 36.5892C105.711 36.5953 105.845 36.4659 105.851 36.3003C105.857 36.1347 105.73 35.9954 105.566 35.9891C78.2275 34.95 48.8609 33.3555 18.9133 39.0572C18.3973 39.1554 18.0252 39.6816 18.0007 40.2125C17.9804 40.6515 18.4174 40.9303 18.8393 40.8263Z" fill="#FFF785"></path>
  <path d="M18.8393 40.8263C41.9369 35.1331 80.1865 35.6489 105.548 36.5892C105.711 36.5953 105.845 36.4659 105.851 36.3003C105.857 36.1347 105.73 35.9954 105.566 35.9891C78.2275 34.95 48.8609 33.3555 18.9133 39.0572C18.3973 39.1554 18.0252 39.6816 18.0007 40.2125C17.9804 40.6515 18.4174 40.9303 18.8393 40.8263Z" fill="url(#paint1_linear_4705_75)"></path>
  <path d="M27.373 31.5048C27.373 31.5528 27.3611 31.6068 27.3374 31.6668C27.3137 31.7148 27.29 31.7628 27.2662 31.8109C27.0172 32.279 26.6792 32.675 26.2523 32.9991C25.8373 33.3112 25.3748 33.5512 24.8648 33.7193C24.3549 33.8873 23.845 33.9714 23.335 33.9714C22.8963 33.9714 22.416 33.8994 21.8942 33.7553C21.3724 33.6113 20.9218 33.4072 20.5423 33.1432C19.9256 32.687 19.4691 32.123 19.1726 31.4507C18.888 30.7786 18.7457 30.0645 18.7457 29.3082C18.7457 28.372 18.9235 27.5198 19.2793 26.7516C19.6351 25.9714 20.1509 25.3473 20.8269 24.8792C21.5147 24.4111 22.3448 24.177 23.3173 24.177C23.673 24.177 24.011 24.231 24.3312 24.339C24.4261 24.363 24.5743 24.4291 24.7759 24.5371C24.9894 24.6331 25.1969 24.7231 25.3985 24.8072C25.6001 24.8912 25.7246 24.9332 25.772 24.9332C25.9025 24.9332 26.027 24.8852 26.1456 24.7891C26.276 24.6811 26.3768 24.6271 26.448 24.6271C26.5191 24.6271 26.5547 24.6751 26.5547 24.7711C26.5784 24.8912 26.5903 25.0232 26.5903 25.1672C26.5903 25.2993 26.5962 25.4313 26.6081 25.5633C26.6199 25.8514 26.6377 26.1395 26.6615 26.4275C26.697 26.7156 26.7148 27.0037 26.7148 27.2918C26.7148 27.4478 26.6911 27.5858 26.6437 27.7059C26.5962 27.8259 26.4836 27.8859 26.3057 27.8859C26.1871 27.8859 26.0982 27.8559 26.0389 27.7959C25.9796 27.7359 25.9381 27.6578 25.9143 27.5618C25.772 27.1297 25.6238 26.7096 25.4696 26.3015C25.3273 25.8814 25.0842 25.5153 24.7403 25.2032C24.6099 25.0712 24.4201 24.9512 24.1711 24.8432C23.9339 24.7231 23.7205 24.6631 23.5307 24.6631C23.0326 24.6631 22.6235 24.8252 22.3033 25.1492C21.9831 25.4733 21.7282 25.8754 21.5384 26.3555C21.3487 26.8356 21.2123 27.3338 21.1293 27.8499C21.0581 28.354 21.0226 28.7981 21.0226 29.1822C21.0226 29.5423 21.0641 29.9624 21.1471 30.4425C21.2301 30.9106 21.3665 31.3667 21.5562 31.8109C21.746 32.243 21.995 32.609 22.3033 32.9091C22.6117 33.1972 22.9971 33.3413 23.4596 33.3413C23.8983 33.3413 24.343 33.2452 24.7937 33.0532C25.2443 32.8611 25.6238 32.609 25.9321 32.297C26.027 32.201 26.1219 32.0989 26.2167 31.9909C26.3235 31.8829 26.4183 31.7688 26.5014 31.6488C26.5369 31.5888 26.5725 31.5348 26.6081 31.4867C26.6437 31.4267 26.6852 31.3727 26.7326 31.3247C26.8275 31.2288 26.9224 31.1807 27.0172 31.1807C27.1121 31.1807 27.1951 31.2107 27.2662 31.2707C27.3374 31.3307 27.373 31.4087 27.373 31.5048Z" fill="#FFF785"></path>
  <path d="M34.9159 26.3555C34.9159 26.4755 34.8804 26.5896 34.8092 26.6976C34.7499 26.7936 34.655 26.8416 34.5246 26.8416C34.323 26.8416 34.1866 26.7576 34.1155 26.5896C34.0443 26.4335 33.9672 26.2535 33.8842 26.0494C33.8131 25.8334 33.7123 25.6473 33.5818 25.4913C33.4633 25.3353 33.2912 25.2573 33.0659 25.2573C32.9474 25.2573 32.8347 25.2813 32.728 25.3293C32.6213 25.3773 32.5204 25.4373 32.4256 25.5093C32.0461 25.7734 31.7378 26.1515 31.5006 26.6436C31.2752 27.1237 31.127 27.5978 31.0558 28.0659V28.0479C31.0558 28.492 31.0558 28.9361 31.0558 29.3802C31.0558 29.8244 31.0558 30.2684 31.0558 30.7126V32.9271C31.0558 33.1312 31.1093 33.2632 31.216 33.3232C31.3346 33.3832 31.4709 33.4072 31.6251 33.3952C31.7911 33.3713 31.9393 33.3593 32.0698 33.3593C32.2358 33.3593 32.3189 33.4492 32.3189 33.6293C32.3189 33.8213 32.2239 33.9173 32.0343 33.9173C31.6784 33.9173 31.3227 33.9113 30.967 33.8993C30.6112 33.8873 30.2554 33.8813 29.8996 33.8813C29.532 33.8813 29.1644 33.8873 28.7968 33.8993C28.4291 33.9234 28.0556 33.9354 27.6761 33.9354C27.5931 33.9354 27.5338 33.9053 27.4983 33.8453C27.4627 33.7733 27.4449 33.7073 27.4449 33.6473C27.4449 33.4672 27.5397 33.3773 27.7294 33.3773C27.8481 33.3773 27.9607 33.3832 28.0674 33.3952C28.1861 33.3952 28.3046 33.3952 28.4232 33.3952C28.5655 33.3952 28.6604 33.3473 28.7078 33.2512C28.7552 33.1552 28.779 33.0472 28.779 32.9271C28.779 32.0749 28.779 31.2167 28.779 30.3525C28.779 29.4883 28.779 28.6301 28.779 27.7779C28.779 27.5498 28.779 27.3218 28.779 27.0937C28.779 26.8656 28.779 26.6376 28.779 26.4095C28.779 26.2775 28.7671 26.1215 28.7434 25.9414C28.7197 25.7614 28.6664 25.5993 28.5833 25.4553C28.5122 25.3113 28.3876 25.2393 28.2097 25.2393C28.0911 25.2393 27.9726 25.2573 27.854 25.2933C27.7473 25.3173 27.6287 25.3293 27.4983 25.3293C27.3203 25.3293 27.2314 25.2393 27.2314 25.0592C27.2314 24.9272 27.2966 24.8372 27.427 24.7891C27.5931 24.7291 27.765 24.6931 27.9429 24.6811C28.1208 24.6571 28.2928 24.6271 28.4588 24.5911C28.6129 24.5551 28.8146 24.5071 29.0636 24.4471C29.3126 24.375 29.5557 24.315 29.7929 24.267C30.0419 24.207 30.2317 24.177 30.3621 24.177C30.54 24.177 30.6705 24.243 30.7535 24.375C30.7891 24.4351 30.8247 24.5791 30.8602 24.8071C30.8958 25.0232 30.9254 25.2453 30.9491 25.4733C30.9729 25.7014 30.9847 25.8634 30.9847 25.9594C31.3523 25.4913 31.7615 25.0652 32.2121 24.6811C32.6627 24.297 33.2083 24.105 33.8486 24.105C34.0147 24.105 34.1866 24.141 34.3645 24.213C34.5543 24.273 34.6729 24.399 34.7202 24.5911C34.7796 24.8192 34.827 25.1132 34.8625 25.4733C34.8981 25.8214 34.9159 26.1155 34.9159 26.3555Z" fill="#FFF785"></path>
  <path d="M42.215 29.1641C42.215 28.768 42.1854 28.3179 42.1262 27.8138C42.0787 27.2977 41.972 26.7996 41.806 26.3195C41.6399 25.8393 41.3969 25.4432 41.0766 25.1312C40.7683 24.8071 40.3473 24.6451 39.8137 24.6451C39.3274 24.6451 38.9361 24.8011 38.6396 25.1132C38.3432 25.4252 38.1119 25.8153 37.9459 26.2834C37.7917 26.7516 37.685 27.2377 37.6257 27.7418C37.5664 28.2339 37.5368 28.66 37.5368 29.0201C37.5368 29.4162 37.5605 29.8723 37.6079 30.3884C37.6673 30.8926 37.7799 31.3846 37.9459 31.8648C38.1119 32.3449 38.3551 32.741 38.6752 33.0531C38.9954 33.3652 39.4224 33.5212 39.956 33.5212C40.454 33.5212 40.8514 33.3712 41.1478 33.0711C41.4561 32.759 41.6874 32.3749 41.8416 31.9188C41.9957 31.4507 42.0965 30.9706 42.1439 30.4784C42.1914 29.9744 42.215 29.5362 42.215 29.1641ZM44.6343 29.2541C44.6343 30.1783 44.4268 31.0006 44.0117 31.7208C43.5967 32.4289 43.0274 32.9871 42.304 33.3951C41.5925 33.8033 40.7802 34.0073 39.867 34.0073C38.9539 34.0073 38.1475 33.7913 37.4479 33.3592C36.7482 32.9271 36.1967 32.3449 35.7935 31.6127C35.4021 30.8806 35.2065 30.0584 35.2065 29.1461C35.2065 28.1979 35.4021 27.3517 35.7935 26.6075C36.1849 25.8513 36.7363 25.2572 37.4479 24.8251C38.1593 24.381 38.9895 24.1589 39.9382 24.1589C40.9818 24.1589 41.8474 24.375 42.5353 24.8071C43.235 25.2272 43.7567 25.8213 44.1007 26.5895C44.4564 27.3457 44.6343 28.2339 44.6343 29.2541Z" fill="#FFF785"></path>
  <path d="M71.3899 33.6473C71.3899 33.8393 71.2951 33.9354 71.1053 33.9354C70.7614 33.9354 70.4116 33.9234 70.0558 33.8994C69.7119 33.8873 69.368 33.8813 69.0241 33.8813C68.6921 33.8813 68.3541 33.8873 68.0101 33.8994C67.6663 33.9234 67.3223 33.9354 66.9784 33.9354C66.8955 33.9354 66.8361 33.9054 66.8005 33.8453C66.7649 33.7733 66.7472 33.7013 66.7472 33.6293C66.7472 33.4492 66.842 33.3593 67.0318 33.3593C67.1385 33.3593 67.2452 33.3653 67.352 33.3773C67.4587 33.3773 67.5654 33.3773 67.6722 33.3773C67.8501 33.3773 67.939 33.2992 67.939 33.1432C67.939 32.135 67.939 31.1267 67.939 30.1185C67.9509 29.1102 67.9568 28.1019 67.9568 27.0937C67.9568 26.7696 67.9272 26.4335 67.8678 26.0855C67.8204 25.7374 67.7019 25.4433 67.5121 25.2032C67.3342 24.9632 67.0377 24.8432 66.6227 24.8432C66.3617 24.8432 66.089 24.9392 65.8044 25.1312C65.5317 25.3233 65.2826 25.5513 65.0573 25.8154C64.8439 26.0795 64.6897 26.3255 64.5949 26.5536V32.9271C64.5949 33.0352 64.6066 33.1372 64.6304 33.2332C64.666 33.3293 64.7489 33.3773 64.8794 33.3773C64.9743 33.3773 65.0692 33.3773 65.164 33.3773C65.2708 33.3653 65.3715 33.3593 65.4665 33.3593C65.5257 33.3593 65.585 33.3833 65.6443 33.4312C65.7036 33.4792 65.7332 33.5332 65.7332 33.5933C65.7332 33.8213 65.6384 33.9354 65.4486 33.9354C65.1166 33.9354 64.7845 33.9234 64.4525 33.8994C64.1323 33.8633 63.8002 33.8453 63.4564 33.8453C63.1006 33.8453 62.7389 33.8633 62.3712 33.8994C62.0155 33.9234 61.6538 33.9354 61.2862 33.9354C61.2032 33.9354 61.1439 33.9054 61.1083 33.8453C61.0728 33.7733 61.0549 33.7013 61.0549 33.6293C61.0549 33.4492 61.1498 33.3593 61.3395 33.3593C61.4463 33.3593 61.553 33.3653 61.6598 33.3773C61.7665 33.3773 61.8792 33.3773 61.9977 33.3773C62.1637 33.3773 62.2586 33.3413 62.2824 33.2692C62.306 33.1972 62.3179 33.0832 62.3179 32.9271V30.3165C62.3179 29.5843 62.3179 28.8521 62.3179 28.12C62.3179 27.3878 62.3179 26.6556 62.3179 25.9234C62.3179 25.7914 62.3001 25.6474 62.2645 25.4913C62.229 25.3233 62.1222 25.2393 61.9444 25.2393C61.8258 25.2393 61.7071 25.2453 61.5886 25.2573C61.4819 25.2693 61.3692 25.2753 61.2506 25.2753C61.1795 25.2753 61.0964 25.2633 61.0016 25.2393C60.9186 25.2032 60.877 25.1372 60.877 25.0412C60.877 24.9692 60.9007 24.9152 60.9482 24.8792C60.9957 24.8432 61.049 24.8192 61.1083 24.8072C61.2269 24.7711 61.3514 24.7471 61.4819 24.7351C61.6123 24.7231 61.7369 24.7051 61.8554 24.6811C62.1637 24.6211 62.4662 24.5551 62.7627 24.4831C63.0709 24.3991 63.3734 24.315 63.6698 24.231C63.7173 24.207 63.7647 24.189 63.8121 24.177C63.8596 24.153 63.907 24.141 63.9544 24.141C64.0493 24.141 64.1323 24.231 64.2034 24.4111C64.2865 24.5911 64.3517 24.7831 64.3991 24.9872C64.4584 25.1912 64.494 25.3353 64.5059 25.4193C64.8498 25.1072 65.2648 24.8312 65.751 24.5911C66.2373 24.339 66.7176 24.213 67.1919 24.213C67.9864 24.213 68.6031 24.315 69.0419 24.5191C69.4925 24.7231 69.8127 25.0652 70.0025 25.5453C70.1922 26.0134 70.287 26.6436 70.287 27.4358C70.287 28.372 70.2811 29.3082 70.2693 30.2444C70.2574 31.1807 70.2515 32.1169 70.2515 33.0532C70.2515 33.1732 70.287 33.2632 70.3582 33.3233C70.4412 33.3713 70.542 33.3952 70.6606 33.3952C70.7437 33.3952 70.8207 33.3892 70.8919 33.3773C70.9748 33.3653 71.0579 33.3593 71.1409 33.3593C71.3069 33.3593 71.3899 33.4552 71.3899 33.6473Z" fill="#FFF785"></path>
  <path d="M79.0004 29.1101C79.0004 28.8581 78.9945 28.558 78.9826 28.2099C78.9707 27.8498 78.9351 27.4837 78.8759 27.1116C78.8284 26.7275 78.7395 26.3735 78.609 26.0494C78.4905 25.7133 78.3185 25.4432 78.0932 25.2392C77.8679 25.0351 77.5773 24.9331 77.2216 24.9331C76.7472 24.9331 76.3559 25.0712 76.0475 25.3472C75.751 25.6233 75.508 25.9714 75.3182 26.3915V31.0906C75.3182 31.3906 75.3716 31.7208 75.4783 32.0809C75.5969 32.4289 75.7748 32.729 76.012 32.9811C76.2492 33.2212 76.5457 33.3412 76.9014 33.3412C77.4232 33.3412 77.8264 33.1971 78.111 32.909C78.4075 32.609 78.615 32.2369 78.7336 31.7928C78.864 31.3486 78.9411 30.8866 78.9648 30.4064C78.9886 29.9143 79.0004 29.4822 79.0004 29.1101ZM81.4374 28.8581C81.4374 29.8303 81.2773 30.6945 80.9571 31.4507C80.6369 32.1949 80.1447 32.783 79.4807 33.2152C78.8166 33.6352 77.9747 33.8453 76.9547 33.8453C76.6939 33.8453 76.4033 33.7852 76.0831 33.6652C75.7748 33.5332 75.5139 33.4011 75.3005 33.2692C75.3005 33.5332 75.2945 33.7972 75.2826 34.0613C75.2826 34.3374 75.2886 34.6134 75.3005 34.8895V36.3479C75.3005 36.4559 75.3182 36.564 75.3538 36.6719C75.4012 36.78 75.4901 36.834 75.6206 36.834C75.7155 36.834 75.8104 36.828 75.9052 36.816C76.012 36.816 76.1128 36.816 76.2077 36.816C76.3736 36.816 76.4567 36.906 76.4567 37.0861C76.4567 37.2781 76.3677 37.3741 76.1898 37.3741C75.8578 37.3741 75.5257 37.3621 75.1937 37.3381C74.8617 37.3141 74.5237 37.3021 74.1798 37.3021C73.8359 37.3021 73.486 37.3141 73.1303 37.3381C72.7745 37.3621 72.4247 37.3741 72.0808 37.3741C71.9978 37.3741 71.9384 37.3381 71.9028 37.2661C71.8673 37.2061 71.8495 37.1461 71.8495 37.0861C71.8495 36.906 71.9384 36.816 72.1164 36.816C72.2112 36.816 72.306 36.816 72.401 36.816C72.4958 36.828 72.5848 36.834 72.6678 36.834C72.7982 36.834 72.893 36.786 72.9524 36.6899C73.0117 36.6059 73.0413 36.504 73.0413 36.3839C73.0413 34.6314 73.0413 32.879 73.0413 31.1266C73.0532 29.3622 73.0591 27.6038 73.0591 25.8513C73.0591 25.7193 73.0413 25.5753 73.0057 25.4192C72.9701 25.2632 72.8634 25.1852 72.6856 25.1852C72.5669 25.1852 72.4484 25.1912 72.3298 25.2032C72.2231 25.2152 72.1104 25.2212 71.9918 25.2212C71.9207 25.2212 71.8376 25.2092 71.7428 25.1852C71.6598 25.1492 71.6182 25.0832 71.6182 24.9871C71.6182 24.9151 71.642 24.8611 71.6894 24.8251C71.7369 24.7891 71.7902 24.7651 71.8495 24.7531C71.9799 24.7051 72.1164 24.6751 72.2587 24.663C72.401 24.6511 72.5373 24.633 72.6678 24.609C73.2726 24.501 73.8536 24.357 74.411 24.1769C74.4585 24.1529 74.5059 24.1349 74.5533 24.1229C74.6008 24.0989 74.6482 24.0869 74.6956 24.0869C74.7787 24.0869 74.8498 24.1589 74.9091 24.303C74.9802 24.447 75.0336 24.603 75.0692 24.7711C75.1167 24.9391 75.1522 25.0591 75.1759 25.1312C75.3419 25.0351 75.5791 24.9271 75.8875 24.8071C76.1958 24.6751 76.5041 24.561 76.8124 24.465C77.1327 24.357 77.3817 24.303 77.5596 24.303C78.1643 24.303 78.704 24.435 79.1783 24.6991C79.6527 24.9631 80.0559 25.3172 80.3879 25.7613C80.7318 26.1934 80.9927 26.6795 81.1705 27.2197C81.3484 27.7598 81.4374 28.3059 81.4374 28.8581Z" fill="#FFF785"></path>
  <path d="M87.2257 33.6653C87.2257 33.8573 87.1308 33.9534 86.941 33.9534C86.5734 33.9534 86.2117 33.9354 85.856 33.8994C85.5002 33.8754 85.1385 33.8633 84.7709 33.8633C84.3914 33.8633 84.006 33.8754 83.6146 33.8994C83.2352 33.9354 82.8557 33.9534 82.4762 33.9534C82.3932 33.9534 82.3339 33.9234 82.2983 33.8633C82.2627 33.7913 82.245 33.7193 82.245 33.6473C82.245 33.5152 82.3043 33.4312 82.4229 33.3952C82.5533 33.3593 82.6956 33.3473 82.8497 33.3593C83.0158 33.3713 83.1403 33.3773 83.2233 33.3773C83.4842 33.3773 83.6146 33.2332 83.6146 32.9451V31.4868C83.6146 29.9024 83.6146 28.324 83.6146 26.7516C83.6146 25.1673 83.6146 23.5829 83.6146 21.9985C83.6146 21.8665 83.6028 21.7044 83.5791 21.5124C83.5554 21.3083 83.4427 21.2063 83.2411 21.2063C83.0988 21.2063 82.9565 21.2303 82.8142 21.2783C82.6838 21.3143 82.5473 21.3323 82.405 21.3323C82.2272 21.3323 82.1382 21.2363 82.1382 21.0443C82.1382 20.9122 82.2153 20.8162 82.3695 20.7562C82.5236 20.7082 82.6838 20.6722 82.8497 20.6482C83.0276 20.6242 83.1937 20.5941 83.3478 20.5581C83.7036 20.4741 84.0534 20.3901 84.3974 20.3061C84.7531 20.2101 85.1029 20.12 85.4468 20.036C85.4824 20.024 85.518 20.018 85.5536 20.018C85.5891 20.006 85.6247 20 85.6603 20C85.7314 20 85.7967 20.018 85.856 20.054C85.9271 20.078 85.9627 20.138 85.9627 20.2341C85.9627 22.3466 85.9568 24.4651 85.9449 26.5896C85.9331 28.7141 85.9271 30.8326 85.9271 32.9451C85.9271 33.1492 85.9864 33.2812 86.105 33.3413C86.2236 33.4012 86.3659 33.4252 86.5319 33.4132C86.698 33.3892 86.8462 33.3773 86.9766 33.3773C87.1427 33.3773 87.2257 33.4732 87.2257 33.6653Z" fill="#FFF785"></path>
  <path d="M93.1084 31.9909C93.0728 31.4267 93.049 30.8626 93.0372 30.2985C93.0254 29.7224 93.0254 29.1462 93.0372 28.5701C92.551 28.6541 92.0767 28.8101 91.6141 29.0382C91.1635 29.2542 90.79 29.5483 90.4935 29.9204C90.197 30.2925 90.0488 30.7666 90.0488 31.3427C90.0488 31.5828 90.0784 31.8409 90.1377 32.117C90.2089 32.393 90.3275 32.627 90.4935 32.8191C90.6713 32.9992 90.9086 33.0892 91.205 33.0892C91.4185 33.0892 91.6438 33.0292 91.8809 32.9091C92.1182 32.7771 92.3435 32.627 92.557 32.459C92.7823 32.291 92.9661 32.135 93.1084 31.9909ZM96.7728 33.0532C96.7728 33.1012 96.749 33.1552 96.7016 33.2152C96.6661 33.2752 96.6304 33.3233 96.5948 33.3593C96.2272 33.7913 95.7529 34.0074 95.1718 34.0074C94.6618 34.0074 94.2527 33.8934 93.9444 33.6653C93.6361 33.4372 93.3989 33.0832 93.2329 32.603C92.8534 33.0112 92.4443 33.3353 92.0055 33.5753C91.5785 33.8153 91.0745 33.9354 90.4935 33.9354C90.0784 33.9354 89.6574 33.8453 89.2306 33.6653C88.8155 33.4732 88.4656 33.2032 88.181 32.8551C87.9083 32.507 87.7719 32.105 87.7719 31.6488C87.7719 31.1927 87.8845 30.7906 88.1098 30.4425C88.3471 30.0825 88.6435 29.7764 88.9993 29.5243C89.355 29.2602 89.7167 29.0442 90.0843 28.8761C90.5587 28.6721 91.0449 28.5161 91.543 28.408C92.0411 28.288 92.5391 28.168 93.0372 28.0479V27.9759C93.0372 27.7599 93.0313 27.4718 93.0194 27.1117C93.0194 26.7396 92.9838 26.3735 92.9127 26.0135C92.8415 25.6414 92.7229 25.3293 92.557 25.0772C92.3909 24.8132 92.1478 24.6811 91.8276 24.6811C91.46 24.6811 91.128 24.7892 90.8315 25.0052C90.5469 25.2213 90.3452 25.5093 90.2266 25.8694C90.2029 25.9774 90.1852 26.0855 90.1733 26.1935C90.1614 26.2895 90.1437 26.3915 90.1199 26.4996C90.0962 26.6916 89.9836 26.8236 89.782 26.8957C89.5922 26.9557 89.4144 26.9857 89.2483 26.9857C89.0467 26.9857 88.851 26.9437 88.6613 26.8597C88.4715 26.7636 88.3767 26.5896 88.3767 26.3375C88.3767 26.2415 88.3886 26.1575 88.4123 26.0855C88.4478 26.0014 88.4834 25.9174 88.519 25.8334C88.7087 25.3773 88.9933 25.0412 89.3729 24.8252C89.7523 24.6091 90.1674 24.4651 90.618 24.3931C91.0805 24.321 91.5193 24.285 91.9344 24.285C92.9067 24.285 93.7072 24.5491 94.3357 25.0772C94.9643 25.6054 95.2785 26.3855 95.2785 27.4178V30.1365C95.2667 30.4725 95.2608 30.8206 95.2608 31.1807C95.2726 31.5288 95.2904 31.8769 95.3141 32.225C95.3378 32.429 95.3853 32.627 95.4565 32.8191C95.5276 32.9992 95.6876 33.0892 95.9367 33.0892C96.1027 33.0892 96.2391 33.0532 96.3458 32.9811C96.4644 32.9091 96.5711 32.8731 96.6661 32.8731C96.7134 32.8731 96.7431 32.8971 96.755 32.9451C96.7668 32.9932 96.7728 33.0292 96.7728 33.0532Z" fill="#FFF785"></path>
  <path d="M107 24.5191C107 24.6872 106.917 24.7772 106.751 24.7892C106.585 24.7892 106.443 24.7892 106.324 24.7892C106.17 24.7892 106.045 24.8432 105.95 24.9513C105.856 25.0473 105.779 25.1613 105.719 25.2933C105.257 26.3016 104.788 27.3038 104.314 28.3001C103.84 29.2963 103.377 30.2985 102.926 31.3067C102.63 32.003 102.316 32.7051 101.984 33.4133C101.663 34.1095 101.331 34.7996 100.988 35.4838C100.893 35.6758 100.792 35.8679 100.685 36.0599C100.59 36.264 100.484 36.4681 100.365 36.672C100.152 37.0082 99.8906 37.2482 99.5823 37.3923C99.274 37.5483 98.9242 37.6264 98.5328 37.6264C98.1296 37.6264 97.7679 37.5003 97.4477 37.2482C97.1275 37.0082 96.9674 36.666 96.9674 36.222C96.9674 35.9459 97.0682 35.7178 97.2698 35.5378C97.4833 35.3698 97.7204 35.2858 97.9813 35.2858C98.1118 35.2858 98.2245 35.3098 98.3193 35.3578C98.3074 35.6938 98.3608 35.9279 98.4794 36.0599C98.598 36.204 98.8233 36.276 99.1553 36.276C99.2621 36.276 99.3688 36.246 99.4756 36.186C99.5823 36.138 99.6772 36.0839 99.7602 36.0239C99.8669 35.9399 99.9914 35.7898 100.134 35.5738C100.288 35.3698 100.424 35.1477 100.543 34.9076C100.673 34.6796 100.75 34.4995 100.774 34.3676C100.786 34.3075 100.798 34.2415 100.81 34.1695C100.822 34.0975 100.827 34.0315 100.827 33.9714C100.827 33.6233 100.744 33.1793 100.578 32.6391C100.412 32.087 100.205 31.5048 99.9558 30.8927C99.7187 30.2805 99.4814 29.7044 99.2443 29.1642C99.0071 28.6121 98.8174 28.156 98.675 27.7959C98.521 27.3878 98.3549 26.9797 98.177 26.5716C98.011 26.1515 97.8094 25.7614 97.5722 25.4014C97.4418 25.1973 97.2876 25.0833 97.1097 25.0593C96.9437 25.0353 96.754 25.0233 96.5405 25.0233C96.4931 25.0233 96.4397 25.0053 96.3804 24.9693C96.3329 24.9332 96.3092 24.8852 96.3092 24.8252C96.3092 24.6572 96.3863 24.5551 96.5405 24.5191C96.8726 24.4591 97.2164 24.4171 97.5722 24.3931C97.9398 24.3571 98.2897 24.3151 98.6217 24.2671C98.7521 24.2431 98.8767 24.2251 98.9953 24.2131C99.1257 24.2011 99.2503 24.1951 99.3688 24.1951C99.5349 24.1951 99.6475 24.2311 99.7068 24.3031C99.7661 24.3631 99.8195 24.4591 99.8669 24.5912C100.033 24.9513 100.181 25.3173 100.312 25.6894C100.454 26.0615 100.59 26.4396 100.721 26.8237C100.97 27.5319 101.231 28.246 101.503 28.9663C101.776 29.6864 102.025 30.4125 102.25 31.1448C102.345 30.9287 102.482 30.6046 102.66 30.1725C102.849 29.7284 103.051 29.2423 103.265 28.7142C103.49 28.174 103.703 27.6399 103.905 27.1118C104.106 26.5836 104.272 26.1155 104.403 25.7074C104.533 25.2873 104.599 24.9933 104.599 24.8252C104.599 24.7652 104.563 24.7352 104.492 24.7352C104.421 24.7232 104.367 24.7172 104.332 24.7172C104.213 24.7172 104.089 24.7232 103.958 24.7352C103.84 24.7352 103.715 24.7352 103.585 24.7352C103.49 24.7352 103.407 24.7232 103.336 24.6992C103.264 24.6752 103.229 24.6032 103.229 24.4831C103.229 24.3391 103.264 24.2611 103.336 24.2491C103.419 24.2371 103.508 24.2311 103.602 24.2311C104.124 24.2311 104.646 24.2311 105.168 24.2311C105.701 24.2191 106.223 24.2131 106.733 24.2131C106.911 24.2131 107 24.3151 107 24.5191Z" fill="#FFF785"></path>
  <defs>
    <linearGradient id="paint0_linear_4705_75" x1="106.171" y1="28.098" x2="75.4605" y2="73.352" gradientUnits="userSpaceOnUse">
      <stop stop-color="#FFF785"></stop>
      <stop offset="0.494436" stop-color="#FFF5D1"></stop>
      <stop offset="1" stop-color="#FFF785"></stop>
    </linearGradient>
    <linearGradient id="paint1_linear_4705_75" x1="106.171" y1="28.0981" x2="77.7698" y2="67.713" gradientUnits="userSpaceOnUse">
      <stop stop-color="#FFE35A"></stop>
      <stop offset="0.620952" stop-color="#FFF5D1"></stop>
      <stop offset="1" stop-color="#FFF785"></stop>
    </linearGradient>
  </defs>
</svg>
