<?xml version="1.0" encoding="UTF-8"?>
<svg xmlns="http://www.w3.org/2000/svg" width="125" height="60" viewBox="0 0 125 60" fill="none">
  <rect width="125" height="60.0001" rx="6" fill="#13192A"></rect>
  <path d="M26.6144 31.3077C26.2063 31.0807 25.9343 31.1261 25.7076 30.9445C25.5716 30.8537 25.5716 30.6722 25.6169 30.6268C25.7076 30.536 27.0678 30.7175 28.6093 30.7175C30.1508 30.7175 31.511 30.536 31.6016 30.6268C31.6016 30.6722 31.6016 30.8991 31.511 30.9445C31.2389 31.1261 31.0122 31.0807 30.6495 31.3077C30.3775 31.4893 30.2415 31.7163 30.2415 32.3065V35.7113C29.1533 36.4376 27.3851 37.1186 25.2995 37.1186C20.8563 37.1186 18 34.077 18 30.1728C18 26.2686 21.083 23 25.2995 23C29.516 23 28.5639 23.454 29.1533 23.7718C29.38 24.6797 29.5614 25.86 29.6974 26.995C29.5614 27.0404 29.244 26.995 29.1533 26.8588C28.3372 25.0883 26.6597 23.681 24.8462 23.681C22.2618 23.681 21.2644 26.2232 21.2644 28.4931C21.2644 30.7629 21.2644 29.6734 21.4004 30.309C21.8991 34.1223 23.8034 36.3468 25.9343 36.3468C28.0652 36.3468 26.6144 36.3468 27.0224 36.256V32.2157C27.0224 31.6255 26.8864 31.3985 26.6144 31.2169V31.3077Z" fill="url(#paint0_linear_7031_179)"></path>
  <path d="M35.1381 32.0341V35.6205C35.1381 36.0745 35.2287 36.2107 35.4554 36.3469C35.7275 36.5285 35.9088 36.4831 36.0902 36.6192C36.1809 36.71 36.1808 36.8462 36.1808 36.8916C36.1355 36.9824 35.0927 36.8008 33.9139 36.8008C32.7351 36.8008 31.6923 36.937 31.647 36.8916C31.647 36.8916 31.647 36.71 31.7377 36.6192C31.919 36.4831 32.1457 36.5285 32.4177 36.3469C32.5991 36.2107 32.7351 36.0291 32.7351 35.6205V27.7668C32.7351 27.3128 32.6444 27.1766 32.4177 27.0404C32.1457 26.8588 31.9643 26.9042 31.783 26.768C31.6923 26.6772 31.647 26.541 31.6923 26.4956C31.7377 26.4048 32.5991 26.5864 33.7779 26.5864C34.9567 26.5864 35.8181 26.4956 37.0423 26.4956C39.2185 26.4956 40.352 27.8122 40.352 29.1287C40.352 30.4452 38.9465 31.6255 37.6317 31.9433C37.9944 32.0341 38.4478 32.1703 38.8558 32.5335C39.6266 33.2598 39.944 34.2586 40.7601 35.6205C40.9868 35.9837 41.1228 36.2107 41.3495 36.3469C41.6215 36.5285 41.7122 36.4831 41.8935 36.6192C41.9842 36.71 41.9842 36.8462 41.9842 36.8916C41.9389 36.9824 41.1228 36.8916 40.3974 36.8916C39.6719 36.8916 39.3546 36.9824 39.0825 36.8916C38.8105 36.8916 38.6745 36.7554 38.4931 36.5285C37.4957 34.9849 37.0876 32.0795 35.5461 32.0795H35.2287L35.1381 32.0341ZM35.1381 31.5347H36.2715C37.7224 31.5347 38.0397 29.6735 37.541 28.4023C37.1783 27.449 36.4982 27.0404 35.9088 27.0404C35.3194 27.0404 35.1834 27.222 35.1834 27.9937V31.5347H35.1381Z" fill="url(#paint1_linear_7031_179)"></path>
  <path d="M48.785 32.9874C48.785 32.9874 48.6037 32.9874 48.513 32.8966C48.377 32.7151 48.4223 32.5335 48.241 32.2157C48.105 31.9887 47.9689 31.8979 47.5155 31.8979H45.6567V35.3027C45.6567 36.0745 46.0194 36.3468 46.8355 36.3468H47.9689C48.8304 36.3468 49.1931 36.0291 49.7371 35.0757C49.9185 34.7579 50.0092 34.4856 50.1452 34.3948C50.2359 34.304 50.5079 34.304 50.5532 34.3948C50.2812 35.3935 50.0545 36.1653 49.8732 36.8462H48.5583C47.2889 36.8462 45.43 36.7554 44.2512 36.7554C43.0723 36.7554 42.2109 36.8916 42.1656 36.8462C42.1656 36.8462 42.1656 36.6646 42.2563 36.5738C42.4376 36.4376 42.619 36.483 42.9363 36.3014C43.163 36.1653 43.2537 35.9837 43.2537 35.5751V27.7214C43.2537 27.2674 43.163 27.1312 42.9363 26.995C42.6643 26.8134 42.4829 26.8588 42.2563 26.7226C42.1656 26.6318 42.1656 26.4956 42.1656 26.4502C42.2109 26.3594 43.0723 26.541 44.2512 26.541C45.43 26.541 47.2889 26.4502 48.5583 26.4502H49.5105C49.6011 27.1312 49.7371 27.8575 49.8732 28.7655C49.8278 28.7655 49.6011 28.7655 49.5105 28.7655C49.3744 28.6747 49.3291 28.3569 49.1931 28.0391C48.9211 27.3582 48.513 26.995 47.5609 26.995H46.7901C45.974 26.995 45.6113 27.2674 45.6113 28.0391V31.3985H47.4702C47.9236 31.3985 48.105 31.2623 48.1956 31.0808C48.377 30.763 48.3316 30.5814 48.4677 30.3998C48.5583 30.309 48.6944 30.309 48.7397 30.309C48.8304 30.3544 48.649 30.8538 48.649 31.6255C48.649 32.3973 48.8304 32.8513 48.7397 32.942L48.785 32.9874Z" fill="url(#paint2_linear_7031_179)"></path>
  <path d="M60.5278 35.6205C60.6638 36.029 60.8905 36.2106 61.1172 36.3468C61.4345 36.483 61.5706 36.483 61.7519 36.6192C61.8426 36.71 61.8879 36.8462 61.8426 36.8916C61.7972 36.9824 60.7545 36.8008 59.5303 36.8008C58.3062 36.8008 57.2634 36.937 57.218 36.8916C57.218 36.8916 57.218 36.71 57.3087 36.6192C57.4901 36.483 57.7168 36.6192 57.9434 36.3468C58.0795 36.2106 58.1248 36.029 57.9434 35.6205L57.2634 33.623H53.3642L52.6388 35.4843C52.4575 35.9382 52.5028 36.1652 52.6388 36.256C52.8202 36.3922 53.4096 36.483 53.5909 36.6192C53.6816 36.71 53.6816 36.8462 53.6816 36.8916C53.6363 36.9824 52.9562 36.8462 52.0041 36.8462C51.052 36.8462 50.3719 36.9824 50.3265 36.8916C50.3265 36.8916 50.3265 36.71 50.4172 36.6192C50.5986 36.483 51.052 36.5284 51.5053 36.256C51.732 36.1198 51.9587 35.8928 52.1401 35.4843L54.8151 28.5385C55.0871 27.8575 55.2685 27.4035 54.9058 27.0404C54.7244 26.9042 54.6337 26.9042 54.4524 26.768C54.3617 26.6772 54.3617 26.5864 54.407 26.4956C54.407 26.4956 54.4977 26.4502 54.6337 26.4502C54.9058 26.4502 55.4498 26.541 56.0392 26.541C56.6286 26.541 57.0367 26.4956 57.3087 26.4956C57.5807 26.4956 57.5807 26.4956 57.5807 26.5864L60.6638 35.6205H60.5278ZM57.082 33.1236L55.4498 28.1299L53.5456 33.1236H57.082Z" fill="url(#paint3_linear_7031_179)"></path>
  <path d="M69.5048 26.541C69.5955 27.222 69.7315 28.0391 69.9129 28.9471C69.8675 28.9471 69.6408 28.9471 69.5502 28.9471C69.4142 28.8563 69.3688 28.5385 69.2328 28.2661C68.9608 27.5852 68.5981 27.1312 67.6459 27.1312H67.0112C66.4218 27.1312 66.1498 27.4036 66.1498 28.1753V35.7113C66.1498 36.1653 66.2404 36.3014 66.4671 36.4376C66.7392 36.6192 66.9205 36.5738 67.1019 36.71C67.1926 36.8008 67.1926 36.937 67.1926 36.9824C67.1472 37.0732 66.1044 36.8916 64.9256 36.8916C63.7468 36.8916 62.704 37.0278 62.6587 36.9824C62.6587 36.9824 62.6587 36.8008 62.7494 36.71C62.9307 36.5738 63.1574 36.6192 63.4294 36.4376C63.6108 36.3014 63.7468 36.1199 63.7468 35.7113V28.1753C63.7468 27.4036 63.5201 27.1312 62.9307 27.1312H62.2506C61.2985 27.1312 60.9811 27.5852 60.6638 28.2661C60.5278 28.5839 60.4371 28.8563 60.3011 28.9925C60.2104 29.0833 60.029 29.0833 59.9384 28.9925C60.1197 28.0845 60.2557 27.2674 60.3464 26.5864C61.7066 26.5864 63.3841 26.6772 64.971 26.6772C66.5578 26.6772 68.19 26.5864 69.5502 26.5864L69.5048 26.541Z" fill="url(#paint4_linear_7031_179)"></path>
  <path d="M78.5272 27.4944C77.6205 27.4944 76.8497 26.768 76.8497 25.8601C76.8497 24.9521 77.3938 24.4527 78.0739 24.2712C77.5751 23.908 76.8497 23.7264 75.9883 23.7264C74.6281 23.7264 73.5853 24.4527 73.5853 25.5423C73.5853 26.6318 75.4895 27.7213 76.9857 28.5385C79.0713 29.7188 80.8395 30.8538 80.8395 33.0328C80.8395 35.2119 78.4366 37.1186 75.4895 37.1186C72.5425 37.1186 70.593 35.5751 70.593 33.7138C70.593 31.8525 71.3637 32.0341 72.3158 32.0341C73.2679 32.0341 74.0387 32.7605 74.0387 33.7138C74.0387 34.6671 73.3586 35.3481 72.4518 35.3935C73.2226 36.1653 74.5828 36.4376 75.4442 36.4376C77.3031 36.4376 78.2552 35.5751 78.2552 34.4856C78.2552 33.396 77.1217 32.3973 75.3989 31.5347C72.5425 30.0366 71.001 28.9017 71.001 26.7226C71.001 24.5435 72.7239 23.0908 75.9883 23.0908C79.2527 23.0908 80.2048 24.2258 80.2048 25.9055C80.2048 27.5852 79.4794 27.5398 78.5726 27.5398L78.5272 27.4944Z" fill="url(#paint5_linear_7031_179)"></path>
  <path d="M84.5573 35.6205C84.5573 36.0745 84.648 36.2107 84.8747 36.3469C85.1467 36.5285 85.3281 36.4831 85.5094 36.6192C85.6001 36.71 85.6001 36.8462 85.6001 36.8916C85.5548 36.9824 84.512 36.8008 83.3332 36.8008C82.1544 36.8008 81.1116 36.937 81.0662 36.8916C81.0662 36.8916 81.0662 36.71 81.1569 36.6192C81.3383 36.4831 81.565 36.5285 81.837 36.3469C82.0184 36.2107 82.1544 36.0291 82.1544 35.6205V27.7668C82.1544 27.3128 82.0637 27.1766 81.837 27.0404C81.565 26.8588 81.3836 26.9042 81.2022 26.768C81.1116 26.6772 81.0662 26.541 81.1116 26.4956C81.1569 26.4048 82.0184 26.5864 83.1972 26.5864C84.376 26.5864 85.2374 26.4956 86.4615 26.4956C88.9552 26.4956 89.9526 27.9937 89.9526 29.3557C89.9526 31.4439 88.2298 32.8059 86.0082 32.8059C85.5094 32.8059 85.0107 32.7151 84.6027 32.5335V35.5297L84.5573 35.6205ZM84.5573 32.1249C84.92 32.3065 85.3281 32.3973 85.7361 32.3973C86.1442 32.3973 86.4615 32.3065 86.7789 32.0795C87.5043 31.5801 87.731 29.9912 87.051 28.4931C86.6882 27.676 86.0082 27.0858 85.3734 27.0858C84.7387 27.0858 84.6027 27.3128 84.6027 28.0391V32.1249H84.5573Z" fill="url(#paint6_linear_7031_179)"></path>
  <path d="M90.9954 27.0858C90.7234 26.9042 90.4967 26.9496 90.3153 26.8134C90.2247 26.7226 90.2247 26.5864 90.2247 26.541C90.27 26.4502 91.3128 26.6318 92.4916 26.6318C93.6704 26.6318 94.7132 26.4956 94.7585 26.541C94.7585 26.541 94.7585 26.7226 94.6679 26.8134C94.4865 26.9496 94.3052 26.9042 94.0331 27.0858C93.8064 27.2219 93.7158 27.4035 93.7158 27.8121V35.6659C93.7158 36.1198 93.8064 36.256 94.0331 36.3922C94.3052 36.5738 94.4865 36.5284 94.6679 36.6646C94.7585 36.7554 94.7585 36.8916 94.7585 36.937C94.7132 37.0278 93.6704 36.8462 92.4916 36.8462C91.3128 36.8462 90.27 36.9824 90.2247 36.937C90.2247 36.937 90.2247 36.7554 90.3153 36.6646C90.4967 36.5284 90.7234 36.5738 90.9954 36.3922C91.1768 36.256 91.3128 36.0744 91.3128 35.6659V27.8121C91.3128 27.3581 91.1768 27.2219 90.9954 27.0858Z" fill="url(#paint7_linear_7031_179)"></path>
  <path d="M104.733 27.1311C104.461 26.9496 103.781 26.9496 103.6 26.8134C103.509 26.7226 103.509 26.5864 103.509 26.541C103.554 26.4502 104.144 26.5864 105.277 26.5864C106.411 26.5864 106.955 26.4502 107 26.541C107 26.541 107 26.7226 106.909 26.8134C106.728 26.9496 106.093 26.9496 105.821 27.1311C105.594 27.2673 105.504 27.4943 105.504 27.9483V36.937H104.37L97.7509 28.947V35.575C97.7509 36.029 97.8869 36.256 98.0683 36.3922C98.3403 36.5738 98.975 36.5738 99.1564 36.71C99.2471 36.8008 99.2924 36.937 99.2471 36.9824C99.2017 37.0732 98.6123 36.937 97.5242 36.937C96.4361 36.937 95.8467 37.0732 95.8013 36.9824C95.8013 36.9824 95.8013 36.8008 95.892 36.71C96.0734 36.5738 96.7534 36.5738 97.0255 36.3922C97.2522 36.256 97.3428 36.029 97.3428 35.575V28.2661C97.0708 27.9029 96.7534 27.4035 96.3907 27.1765C96.1187 26.9496 95.8467 26.9496 95.7106 26.8588C95.5746 26.8134 95.5746 26.6318 95.62 26.5864C95.6653 26.4956 96.2547 26.6318 97.3428 26.6318C98.431 26.6318 98.9297 26.4956 98.975 26.5864L105.05 33.8499V27.9483C105.05 27.4943 104.96 27.2673 104.733 27.1311Z" fill="url(#paint8_linear_7031_179)"></path>
  <defs>
    <linearGradient id="paint0_linear_7031_179" x1="24.8008" y1="39.7516" x2="24.8008" y2="20.6847" gradientUnits="userSpaceOnUse">
      <stop stop-color="#AC5C3B"></stop>
      <stop offset="0.5" stop-color="#FFC6B0"></stop>
      <stop offset="1" stop-color="#AC5C3B"></stop>
    </linearGradient>
    <linearGradient id="paint1_linear_7031_179" x1="36.7703" y1="38.8891" x2="36.7703" y2="24.8159" gradientUnits="userSpaceOnUse">
      <stop stop-color="#AC5C3B"></stop>
      <stop offset="0.5" stop-color="#FFC6B0"></stop>
      <stop offset="1" stop-color="#AC5C3B"></stop>
    </linearGradient>
    <linearGradient id="paint2_linear_7031_179" x1="46.3821" y1="38.8891" x2="46.3821" y2="24.8159" gradientUnits="userSpaceOnUse">
      <stop stop-color="#AC5C3B"></stop>
      <stop offset="0.5" stop-color="#FFC6B0"></stop>
      <stop offset="1" stop-color="#AC5C3B"></stop>
    </linearGradient>
    <linearGradient id="paint3_linear_7031_179" x1="56.0846" y1="38.8891" x2="56.0846" y2="24.7705" gradientUnits="userSpaceOnUse">
      <stop stop-color="#AC5C3B"></stop>
      <stop offset="0.5" stop-color="#FFC6B0"></stop>
      <stop offset="1" stop-color="#AC5C3B"></stop>
    </linearGradient>
    <linearGradient id="paint4_linear_7031_179" x1="64.9256" y1="38.8891" x2="64.9256" y2="24.8613" gradientUnits="userSpaceOnUse">
      <stop stop-color="#AC5C3B"></stop>
      <stop offset="0.5" stop-color="#FFC6B0"></stop>
      <stop offset="1" stop-color="#AC5C3B"></stop>
    </linearGradient>
    <linearGradient id="paint5_linear_7031_179" x1="75.6709" y1="39.7516" x2="75.6709" y2="20.6848" gradientUnits="userSpaceOnUse">
      <stop stop-color="#AC5C3B"></stop>
      <stop offset="0.5" stop-color="#FFC6B0"></stop>
      <stop offset="1" stop-color="#AC5C3B"></stop>
    </linearGradient>
    <linearGradient id="paint6_linear_7031_179" x1="85.4641" y1="38.8891" x2="85.4641" y2="24.8159" gradientUnits="userSpaceOnUse">
      <stop stop-color="#AC5C3B"></stop>
      <stop offset="0.5" stop-color="#FFC6B0"></stop>
      <stop offset="1" stop-color="#AC5C3B"></stop>
    </linearGradient>
    <linearGradient id="paint7_linear_7031_179" x1="92.4916" y1="38.8891" x2="92.4916" y2="24.8159" gradientUnits="userSpaceOnUse">
      <stop stop-color="#AC5C3B"></stop>
      <stop offset="0.5" stop-color="#FFC6B0"></stop>
      <stop offset="1" stop-color="#AC5C3B"></stop>
    </linearGradient>
    <linearGradient id="paint8_linear_7031_179" x1="101.287" y1="38.8891" x2="101.287" y2="24.8159" gradientUnits="userSpaceOnUse">
      <stop stop-color="#AC5C3B"></stop>
      <stop offset="0.5" stop-color="#FFC6B0"></stop>
      <stop offset="1" stop-color="#AC5C3B"></stop>
    </linearGradient>
  </defs>
</svg>
