<?xml version="1.0" encoding="UTF-8"?>
<svg xmlns="http://www.w3.org/2000/svg" width="125" height="60" viewBox="0 0 125 60" fill="none">
  <rect width="125" height="60.0001" rx="6" fill="#171725"></rect>
  <path d="M68.9039 22.3729V37.5079H65.8047V27.8494C65.6022 28.0609 65.4907 28.1627 65.4106 28.2677C64.1169 29.9334 61.338 33.5107 61.258 33.5906H60.7618C60.6833 33.517 57.9892 29.9193 56.7395 28.2458C56.6123 28.0766 56.4789 27.9136 56.2512 27.619V37.5079H53.1112V22.3776L56.0942 22.4105C57.5072 24.2767 59.2703 26.5566 60.6802 28.4291C60.7932 28.5858 60.9204 28.7268 61.0774 28.918C61.2344 28.7206 61.3647 28.5623 61.4856 28.3962C62.8452 26.5363 64.6413 24.2329 65.9868 22.3619L68.9039 22.3729Z" fill="white"></path>
  <path d="M83.709 32.6097C83.6604 31.2731 83.1627 30.159 82.048 29.3709C83.9618 27.3339 83.2898 23.1329 79.5171 22.503C79.0939 22.4297 78.6655 22.3899 78.236 22.3839C76.2028 22.3698 74.1697 22.3745 72.135 22.3839C72 22.3933 71.8658 22.4111 71.733 22.4372V37.5158C71.8979 37.5283 72.0298 37.5487 72.1601 37.5503C74.2325 37.5503 76.308 37.5597 78.3789 37.5409C78.8876 37.5341 79.3946 37.4817 79.8939 37.3842C82.3682 36.9204 83.8001 35.1247 83.709 32.6097ZM74.8982 25.0336C76.1542 25.0336 77.4102 24.9787 78.6489 25.0524C79.4857 25.1041 79.9818 25.8233 79.9285 26.6632C79.9256 26.8498 79.8859 27.034 79.8117 27.2052C79.7374 27.3765 79.6301 27.5314 79.4958 27.6612C79.3615 27.791 79.2029 27.8932 79.029 27.9617C78.8551 28.0303 78.6694 28.064 78.4825 28.0609C77.3097 28.0891 76.1369 28.0609 74.8982 28.0609V25.0336ZM80.5502 33.0469C80.4685 34.0576 79.7275 34.7596 78.6301 34.805C77.7728 34.8395 76.9125 34.8144 76.0537 34.816H74.8699V30.8986C76.2829 30.8986 77.6959 30.8093 79.0759 30.9284C80.0776 31.0099 80.6412 31.9595 80.547 33.0469H80.5502Z" fill="white"></path>
  <path d="M32.1437 26.06C31.2174 26.5081 30.2911 26.9735 29.4041 27.4012C29.3444 27.2649 29.3256 27.2289 29.3036 27.1803C28.5265 25.4034 26.8905 24.6591 24.9924 24.8942C23.2088 25.1182 21.7958 26.4047 21.3578 28.2521C20.9889 29.8034 21.0799 31.317 21.9199 32.721C23.223 34.9006 26.3347 35.5274 28.3899 34.0341C29.2879 33.3807 29.7479 32.4672 29.6459 31.4424H25.7036V28.8099H32.778C33.9021 33.434 30.5313 37.5754 25.7224 37.6647C22.9105 37.7164 19.5586 35.9411 18.4219 32.4468C17.3229 29.0669 18.4219 25.3956 21.1255 23.4181C23.829 21.4406 27.9534 21.5378 30.4654 23.6688C31.2364 24.295 31.8175 25.1229 32.1437 26.06Z" fill="white"></path>
  <path d="M107 34.7973V37.5081H96.8783V22.4091H106.991V25.1011H100.028V28.5483H106.575V31.3093H100.021V34.7973H107Z" fill="white"></path>
  <path d="M88.8649 34.802H95.2517V37.4987H85.772V22.4091H88.8649V34.802Z" fill="white"></path>
  <path d="M47.3461 32.1302C45.7275 30.2843 43.5326 30.311 41.9485 32.1709C40.9986 33.285 40.0644 34.4101 39.1036 35.521C38.9309 35.7247 38.719 36.0287 38.5086 36.0428C37.6262 36.1023 36.6842 36.0679 35.6826 36.0679C35.6826 36.0679 38.8226 32.326 40.2026 30.7105C40.8463 29.9568 40.8495 29.7845 40.2026 29.0198C38.8587 27.4529 35.692 23.6687 35.692 23.6687C36.5696 23.6687 37.3248 23.6593 38.047 23.6593C38.2393 23.6496 38.4311 23.6874 38.6053 23.7694C38.7795 23.8514 38.9307 23.975 39.0455 24.1294C40.0817 25.3829 41.1069 26.6365 42.1997 27.8289C43.6032 29.3598 45.7855 29.363 47.1687 27.8289C48.4247 26.4359 49.6085 24.9834 50.797 23.534C50.954 23.3428 51.0655 22.9369 50.965 22.7615C50.876 22.6458 50.7633 22.5505 50.6344 22.4818C50.5056 22.4132 50.3635 22.3728 50.2177 22.3634C49.2019 22.3164 48.1767 22.4089 47.1687 22.3196C46.1608 22.2303 45.4731 22.5358 44.864 23.3365C44.1166 24.3268 43.25 25.2278 42.3975 26.2103C42.2405 26.0363 42.0992 25.8969 41.9783 25.7574C41.1258 24.7656 40.2921 23.7627 39.4176 22.7787C39.2496 22.5891 38.989 22.3634 38.7645 22.3572C37.3169 22.3227 35.8704 22.3227 34.425 22.3572C33.8535 22.3729 33.6149 22.9009 33.954 23.3459C34.593 24.178 35.2571 24.9912 35.9291 25.7982C36.9511 27.0282 37.9889 28.2504 39.0251 29.4695C39.2214 29.6967 39.3391 29.8832 39.0973 30.1715C37.4342 32.1375 35.7804 34.1129 34.1361 36.0976C33.9556 36.3139 33.7358 36.7448 33.8221 36.8905C33.9215 37.0353 34.0487 37.159 34.1964 37.2542C34.3441 37.3494 34.5094 37.4144 34.6825 37.4452C35.4819 37.5045 36.2843 37.5113 37.0846 37.4656C39.0879 37.3919 39.0863 37.3794 40.3816 35.836C40.8966 35.2249 41.4162 34.6158 41.9406 34.0089C42.0741 33.8522 42.2232 33.7081 42.3975 33.5263C43.4086 34.6984 44.3835 35.8109 45.3381 36.9407C45.4463 37.0886 45.59 37.2071 45.7559 37.2854C45.9218 37.3636 46.1047 37.3992 46.2879 37.3888C47.5581 37.3637 48.8298 37.3747 50.0999 37.3794C50.4595 37.3794 50.8849 37.4123 50.9728 36.9924C51.0025 36.6751 50.9074 36.3587 50.7075 36.1102C49.6127 34.7637 48.4922 33.437 47.3461 32.1302ZM46.0383 23.8646C46.1081 23.7704 46.2105 23.7056 46.3256 23.6828C47.1938 23.6687 48.1327 23.6938 49.1045 23.6938C49.1045 23.6938 47.3226 25.8452 46.5925 26.6819C45.6615 27.7459 44.382 27.9355 43.3159 27.1191C44.2407 26.0113 45.1356 24.9348 46.0383 23.8646ZM46.4434 36.0491C46.3086 36.0477 46.1795 35.995 46.0823 35.9018C45.1591 34.8237 44.2548 33.7331 43.3458 32.6504C44.0224 32.0048 45.1277 31.8168 45.8719 32.4843C47.0164 33.5122 48.161 34.924 49.2129 36.0585C49.2129 36.0569 47.2613 36.0616 46.4434 36.0491Z" fill="url(#paint0_linear_3450_73)"></path>
  <path d="M42.3959 26.2151L43.3128 27.1239L46.0383 23.8694H44.4479L42.3959 26.2151Z" fill="url(#paint1_linear_3450_73)"></path>
  <path d="M42.4053 33.5233L43.3457 32.6489L46.0477 35.869H44.4573L42.4053 33.5233Z" fill="url(#paint2_linear_3450_73)"></path>
  <defs>
    <linearGradient id="paint0_linear_3450_73" x1="33.7986" y1="29.8957" x2="50.9933" y2="29.8957" gradientUnits="userSpaceOnUse">
      <stop stop-color="#FE6B41"></stop>
      <stop offset="0.52" stop-color="#FD297E"></stop>
      <stop offset="1" stop-color="#A728CC"></stop>
    </linearGradient>
    <linearGradient id="paint1_linear_3450_73" x1="45.5516" y1="23.462" x2="42.826" y2="26.7171" gradientUnits="userSpaceOnUse">
      <stop stop-color="#DC299B" stop-opacity="0.3"></stop>
      <stop offset="0.34" stop-color="#CA238B" stop-opacity="0.4"></stop>
      <stop offset="0.74" stop-color="#95125C" stop-opacity="0.71"></stop>
      <stop offset="1" stop-color="#62022E"></stop>
    </linearGradient>
    <linearGradient id="paint2_linear_3450_73" x1="45.5594" y1="36.278" x2="42.8605" y2="33.0543" gradientUnits="userSpaceOnUse">
      <stop stop-color="#DC299B" stop-opacity="0.3"></stop>
      <stop offset="0.34" stop-color="#CA238B" stop-opacity="0.4"></stop>
      <stop offset="0.74" stop-color="#95125C" stop-opacity="0.71"></stop>
      <stop offset="1" stop-color="#62022E"></stop>
    </linearGradient>
  </defs>
</svg>
