<?xml version="1.0" encoding="UTF-8"?>
<svg xmlns="http://www.w3.org/2000/svg" width="125" height="60" viewBox="0 0 125 60" fill="none">
  <rect width="125" height="60.0001" rx="6" fill="#1F2127"></rect>
  <path d="M46.5569 29.5435C46.6015 29.5822 46.6429 29.6233 46.6811 29.6669H46.9804C47.0027 29.6923 47.0238 29.7185 47.0439 29.7456C47.1479 29.8858 47.2222 30.0482 47.2671 30.2327C47.3425 30.5139 47.3493 30.8431 47.2877 31.2203C47.1644 31.9199 46.839 32.448 46.3115 32.8046C45.7909 33.1612 45.1127 33.3395 44.2769 33.3395C43.496 33.3395 42.8658 33.1818 42.3862 32.8663C41.9136 32.544 41.5916 32.0982 41.4203 31.529L43.198 30.6134C43.4172 31.1621 43.8351 31.4363 44.4516 31.4363C44.938 31.4363 45.2052 31.3095 45.2531 31.0557C45.2668 30.9735 45.2531 30.9014 45.212 30.8397C45.1709 30.778 45.099 30.7231 44.9963 30.6751C44.8935 30.6271 44.7976 30.5859 44.7085 30.5517C44.6195 30.5174 44.4927 30.4762 44.3283 30.4282C44.1707 30.3802 44.0475 30.3425 43.9584 30.315C43.6159 30.1952 43.3267 30.0506 43.0907 29.8812H42.7913C42.7306 29.8377 42.6734 29.7924 42.6197 29.7456C42.1057 29.297 41.9144 28.6981 42.0459 27.9489C42.1623 27.3042 42.4775 26.7865 42.9912 26.3955C43.505 26.0046 44.1318 25.8091 44.8717 25.8091C45.4882 25.8091 46.0157 25.9532 46.4542 26.2412C46.8926 26.5292 47.2248 26.9442 47.4509 27.486L45.7143 28.4119C45.5362 27.9455 45.2108 27.7123 44.7381 27.7123C44.3819 27.7123 44.1764 27.8358 44.1216 28.0826C44.0942 28.2335 44.1558 28.357 44.3065 28.453C44.4572 28.549 44.7655 28.6759 45.2314 28.8337C45.5259 28.9296 45.7691 29.0291 45.9609 29.132C46.1596 29.228 46.3582 29.3651 46.5569 29.5435Z" fill="white"></path>
  <path d="M41.6349 25.9741L40.9868 29.6669H41.2862L40.6703 33.1753H39.0262L37.4498 29.8812H37.3435L36.7656 33.1753H34.7104L35.2887 29.8812H34.9894L35.6751 25.9741H37.3192L38.9736 29.4306L39.5798 25.9741H41.6349Z" fill="white"></path>
  <path d="M30.4741 29.7741L31.9636 29.5684L32.5944 25.9741H34.6496L34.0014 29.6669H34.3008L33.6849 33.1753H31.6298L32.1753 30.0677L30.4741 29.7741Z" fill="white"></path>
  <path fill-rule="evenodd" clip-rule="evenodd" d="M111.665 29.2928C111.686 28.9401 111.656 28.595 111.574 28.2575C111.465 27.798 111.276 27.3865 111.009 27.023C110.742 26.6596 110.376 26.3681 109.91 26.1486C109.444 25.9223 108.916 25.8091 108.328 25.8091C107.19 25.8091 106.231 26.1692 105.45 26.8893C104.676 27.6026 104.207 28.4564 104.042 29.4509C104.027 29.5497 104.015 29.648 104.006 29.7456C104.002 29.7909 103.999 29.8362 103.997 29.8812H104.296C104.272 30.3715 104.341 30.8453 104.506 31.3026C104.725 31.8856 105.112 32.3725 105.667 32.7634C106.222 33.1475 106.89 33.3395 107.671 33.3395C108.822 33.3395 109.777 32.9761 110.538 32.2491C111.232 31.591 111.677 30.8206 111.872 29.9379L113 29.6669L111.665 29.2928ZM107.755 29.7741L109.722 30.1136C109.596 30.3835 109.412 30.6221 109.171 30.8294C108.781 31.1586 108.332 31.3232 107.825 31.3232C107.318 31.3232 106.928 31.1586 106.654 30.8294C106.412 30.5324 106.311 30.1711 106.353 29.7456C106.355 29.7196 106.358 29.6934 106.362 29.6669H106.062C106.067 29.6363 106.071 29.6055 106.077 29.5743C106.166 29.0737 106.406 28.6587 106.796 28.3296C107.187 27.9935 107.635 27.8255 108.142 27.8255C108.65 27.8255 109.04 27.9935 109.314 28.3296C109.577 28.6466 109.673 29.0432 109.601 29.5193L107.755 29.7741Z" fill="white"></path>
  <path d="M101.272 33.1753L99.6951 29.8812H99.589L99.0109 33.1753H96.9557L97.5344 29.8812H97.2349L97.9206 25.9741H99.5649L101.219 29.4306L101.825 25.9741H103.881L103.232 29.6669H103.532L102.916 33.1753H101.272Z" fill="white"></path>
  <path d="M96.8952 25.9741L96.2469 29.6669H96.5464L95.9303 33.1753H93.875L94.4537 29.8812H94.1542L94.84 25.9741H96.8952Z" fill="white"></path>
  <path d="M90.2184 30.315C89.876 30.1952 89.5867 30.0506 89.351 29.8812H89.0515C88.9909 29.8377 88.9336 29.7924 88.88 29.7456C88.3657 29.297 88.1744 28.6981 88.3062 27.9489C88.4225 27.3042 88.7375 26.7865 89.2513 26.3955C89.7651 26.0046 90.392 25.8091 91.1319 25.8091C91.7485 25.8091 92.2757 25.9532 92.7145 26.2412C93.1528 26.5292 93.485 26.9442 93.7111 27.486L91.9746 28.4119C91.7962 27.9455 91.471 27.7123 90.9985 27.7123C90.6422 27.7123 90.4364 27.8358 90.3818 28.0826C90.3545 28.2335 90.4161 28.357 90.5666 28.453C90.7172 28.549 91.0258 28.6759 91.4914 28.8337C91.786 28.9296 92.0293 29.0291 92.2211 29.132C92.4199 29.228 92.6186 29.3651 92.8169 29.5435C92.8619 29.5822 92.9031 29.6233 92.9412 29.6669H93.2407C93.2626 29.6923 93.2841 29.7185 93.3039 29.7456C93.4078 29.8858 93.4823 30.0482 93.5273 30.2327C93.6029 30.5139 93.6093 30.8431 93.5477 31.2203C93.4244 31.9199 93.0992 32.448 92.5715 32.8046C92.0513 33.1612 91.373 33.3395 90.5372 33.3395C89.756 33.3395 89.1259 33.1818 88.6464 32.8663C88.1739 32.544 87.8519 32.0982 87.6804 31.529L89.4581 30.6134C89.6772 31.1621 90.0952 31.4363 90.7118 31.4363C91.1983 31.4363 91.4651 31.3095 91.5133 31.0557C91.5267 30.9735 91.5133 30.9014 91.4721 30.8397C91.4308 30.778 91.359 30.7231 91.2562 30.6751C91.1538 30.6271 91.0579 30.5859 90.9685 30.5517C90.8795 30.5174 90.7531 30.4762 90.5886 30.4282C90.4311 30.3802 90.3079 30.3425 90.2184 30.315Z" fill="white"></path>
  <path fill-rule="evenodd" clip-rule="evenodd" d="M86.2649 25.9741L86.7921 29.6669H87.0911L87.5915 33.1753H85.4441L85.3621 32.2494H83.286L82.8751 33.1753H80.6045L82.2305 29.8812H81.9316L83.8604 25.9741H86.2649ZM85.1409 29.8812H84.8414L84.7031 28.3916L84.1341 29.6669H84.4336L84.0157 30.6034H85.2078L85.1409 29.8812Z" fill="white"></path>
  <path d="M74.1227 29.3797L72.2185 29.7741L74.3466 30.1414C74.3354 30.9587 74.5711 31.6578 75.0538 32.2388C75.6705 32.9726 76.5369 33.3395 77.6534 33.3395C78.3456 33.3395 78.9789 33.1886 79.5543 32.8869C80.1367 32.5782 80.613 32.1496 80.9827 31.601L79.2768 30.5208C78.8659 31.0557 78.3762 31.3232 77.8077 31.3232C77.3143 31.3232 76.9446 31.1552 76.6976 30.8191C76.4806 30.5172 76.3911 30.1593 76.4292 29.7456C76.4313 29.7196 76.434 29.6933 76.4378 29.6669H76.1383C76.142 29.6363 76.1468 29.6055 76.1522 29.5743C76.2411 29.0668 76.4742 28.6484 76.8508 28.3193C77.2275 27.9901 77.6625 27.8255 78.156 27.8255C78.7657 27.8255 79.2109 28.0758 79.4917 28.5764L81.3722 27.5786C80.7625 26.399 79.752 25.8091 78.3408 25.8091C77.2859 25.8091 76.3574 26.1521 75.5559 26.8379C74.7844 27.504 74.3064 28.3512 74.1227 29.3797Z" fill="white"></path>
  <path d="M70.2646 27.9698L69.9667 29.6669H70.2657L69.6495 33.1753H67.5943L68.1729 29.8812H67.8734L68.2094 27.9698H66.5142L66.8635 25.9741H72.3097L71.9603 27.9698H70.2646Z" fill="white"></path>
  <path d="M63.6414 33.1753L62.065 29.8812H61.9587L61.3808 33.1753H59.3257L59.9039 29.8812H59.6046L60.2903 25.9741H61.9344L63.5888 29.4306L64.1951 25.9741H66.25L65.6023 29.6669H65.9012L65.2856 33.1753H63.6414Z" fill="white"></path>
  <path fill-rule="evenodd" clip-rule="evenodd" d="M57.5857 25.9741L58.1126 29.6669H58.412L58.9124 33.1753H56.7648L56.6826 32.2494H54.607L54.1959 33.1753H51.925L53.5515 29.8812H53.2521L55.1812 25.9741H57.5857ZM56.4615 29.8812H56.1622L56.0238 28.3916L55.4549 29.6669H55.7543L55.3365 30.6034H56.5285L56.4615 29.8812Z" fill="white"></path>
  <path d="M48.6888 33.1753L49.2676 29.8812H48.9682L49.304 27.9698H47.6086L47.9579 25.9741H53.404L53.0546 27.9698H51.3592L51.061 29.6669H51.3603L50.7439 33.1753H48.6888Z" fill="white"></path>
  <path d="M17.7978 30.3299L15.841 29.2286L22.5612 22.1902C21.9615 21.9114 21.3236 21.7018 20.6549 21.576V22.4849C20.6549 22.7575 20.4344 22.9783 20.1623 22.9783H18.0934C17.8213 22.9783 17.6008 22.7575 17.6008 22.4849V21.5797C15.7634 21.9312 14.1452 22.9018 12.9716 24.2671L13.7548 24.7197C13.9901 24.8553 14.0713 25.1575 13.9346 25.393L12.9002 27.1875C12.7647 27.4231 12.463 27.5045 12.2278 27.3676L11.447 26.9162C11.1589 27.7511 11 28.6465 11 29.5801C11 30.5137 11.1626 31.4337 11.4593 32.2786L12.2278 31.8345C12.463 31.6989 12.7647 31.7791 12.9002 32.0146L13.9346 33.8091C14.0701 34.0446 13.9901 34.3468 13.7548 34.4825L12.9962 34.9215C13.4593 35.4555 13.9913 35.9267 14.5775 36.325V38.1602L17.7991 30.3299H17.7978Z" fill="url(#paint0_linear_5108_95)"></path>
  <path d="M26.8271 26.9198L26.0512 27.3688C25.816 27.5044 25.5144 27.4243 25.3789 27.1887L24.3444 25.3942C24.2089 25.1587 24.289 24.8565 24.5242 24.7209L25.3037 24.2707C24.8346 23.7244 24.2939 23.2434 23.6966 22.8376V21L20.5292 28.6477L22.4787 29.7453L15.6981 36.965C16.2966 37.245 16.9333 37.4547 17.5995 37.5817V36.711C17.5995 36.4385 17.82 36.2177 18.0921 36.2177H20.1611C20.4332 36.2177 20.6537 36.4385 20.6537 36.711V37.5854C22.475 37.2413 24.1203 36.2781 25.3 34.9351L25.0414 34.7833L24.523 34.4837C24.2878 34.348 24.2065 34.0458 24.3432 33.8103L25.3776 32.0158C25.5131 31.7803 25.8148 31.6989 26.05 31.8357L26.8148 32.2773C27.1104 31.4325 27.2729 30.526 27.2729 29.5813C27.2729 28.6366 27.1153 27.7548 26.8271 26.9198Z" fill="url(#paint1_linear_5108_95)"></path>
  <path d="M16.188 34.2431L17.7975 30.3298L15.8407 29.2285L20.5278 24.32C20.1017 24.2139 19.6558 24.1559 19.1965 24.1559C16.167 24.1559 13.7102 26.6152 13.7102 29.6503C13.7102 31.5718 14.6954 33.2614 16.188 34.2431Z" fill="#FFC701"></path>
  <path d="M22.056 24.9613L20.529 28.6476L22.4784 29.7452L17.6239 34.914C18.1214 35.0632 18.6485 35.1434 19.1953 35.1434C22.2247 35.1434 24.6816 32.6842 24.6816 29.649C24.6816 27.6646 23.6312 25.9257 22.056 24.96V24.9613Z" fill="#FFC701"></path>
  <path d="M17.7973 30.3298L15.8404 29.2284L22.5607 22.19L14.6089 29.2284L16.5658 30.3298L14.5757 38.1612L17.7973 30.3298Z" fill="#190048" fill-opacity="0.2"></path>
  <defs>
    <linearGradient id="paint0_linear_5108_95" x1="23.6844" y1="21.74" x2="18.1904" y2="51.1995" gradientUnits="userSpaceOnUse">
      <stop offset="0.0429656" stop-color="#FFE601"></stop>
      <stop offset="0.525016" stop-color="#FF0B16"></stop>
      <stop offset="0.985" stop-color="#AD00FF"></stop>
    </linearGradient>
    <linearGradient id="paint1_linear_5108_95" x1="23.6844" y1="21.74" x2="18.1904" y2="51.1994" gradientUnits="userSpaceOnUse">
      <stop offset="0.0429656" stop-color="#FFE601"></stop>
      <stop offset="0.525016" stop-color="#FF0B16"></stop>
      <stop offset="0.985" stop-color="#AD00FF"></stop>
    </linearGradient>
  </defs>
</svg>
