<?xml version="1.0" encoding="UTF-8"?>
<svg xmlns="http://www.w3.org/2000/svg" width="125" height="60" viewBox="0 0 125 60" fill="none">
  <rect width="125" height="60.0001" rx="6" fill="#170532"></rect>
  <path d="M24.0462 40.3572C25.5665 41.6529 27.5435 42.0278 28.8188 41.991H73.4194V39.3979H76.9665C77.0172 39.4612 77.0727 39.5336 77.134 39.6135C77.9099 40.6251 79.6048 42.8352 83.9196 42.8352C87.799 42.8352 89.2764 41.3146 89.9329 40.6389C89.9585 40.6125 90.0271 40.5473 90.0503 40.5236V41.991L99.2808 42.011L91.3723 44.9056H31.8C29.0355 43.6926 25.9906 42.3959 24.0462 40.3572Z" fill="#24054C"></path>
  <path d="M90.8769 16H29.7699L35.6951 22.5932V26.7944H18L21.8897 30.674V35.0761C21.8897 40.785 26.5251 42.0781 28.8428 42.0111H73.4434V39.418H76.9905C77.6824 40.2824 79.288 42.8554 83.9436 42.8554C87.9744 42.8554 89.412 41.2138 90.0301 40.584V42.0111H99.2809V35.3777L107 26.7944H86.2613L84.8909 22.5932L90.8769 16Z" fill="url(#paint0_linear_4597_209)"></path>
  <path fill-rule="evenodd" clip-rule="evenodd" d="M33.1618 17.4473L37.4224 22.0496V28.1151H21.4778L25.1348 32.3988H23.375V35.1092C23.375 36.7586 23.9076 38.223 25.1348 39.2676C26.9665 40.8268 29.5565 40.5622 31.8054 40.5622C49.402 40.5622 57.8067 40.5638 72.1527 40.5638V37.9375C73.9607 37.9375 76.1096 37.9375 77.9177 37.9375C79.5905 42.7056 88.1156 42.7659 90.0705 37.9375C90.4398 37.9375 91.0175 37.9375 91.4168 37.9375C91.4211 39.0919 91.4255 40.1677 91.4299 40.5656H97.5964V33.5353H98.4838L103.619 28.1186C97.8857 28.1186 92.4885 28.1186 86.7652 28.1186C85.1459 28.1186 84.9215 28.2109 84.414 26.6738L82.9518 22.2442L87.3879 17.4473H68.4962L67.3449 20.9484L66.1858 17.4473C51.1195 17.4473 46.7143 17.4473 33.1618 17.4473Z" fill="url(#paint1_linear_4597_209)"></path>
  <path d="M34.4431 29.7229V35.0938C34.4431 36.4173 34.0273 37.4395 33.1955 38.1585C32.3637 38.8725 31.1773 39.2321 29.6307 39.2321C28.0843 39.2321 26.9048 38.8776 26.066 38.1637C25.2273 37.4497 24.8097 36.4242 24.8097 35.0938V34.0066H28.107V34.9826C28.107 35.991 28.6156 36.496 29.629 36.5012C30.6408 36.5012 31.144 35.9961 31.144 34.9826V32.2585H27.2141L24.8097 29.7229H34.4431ZM50.4546 29.5927C52.1881 29.5927 53.5982 29.9797 54.6974 30.7518C55.7965 31.524 56.3871 32.5393 56.4605 33.8046H53.0373C52.8818 33.2995 52.5708 32.9142 52.1059 32.6455C51.6394 32.3698 51.068 32.2329 50.3918 32.2329C49.5844 32.2329 48.9571 32.4298 48.5028 32.8286C48.0555 33.2208 47.8318 33.7515 47.8318 34.421C47.8318 35.0904 48.0625 35.6589 48.5273 36.0389C48.9938 36.419 49.6142 36.609 50.39 36.609C51.0924 36.609 51.6761 36.4652 52.1357 36.1827C52.6022 35.8951 52.8993 35.515 53.0356 35.0373H56.4587C56.3661 36.3077 55.7755 37.3299 54.6886 38.0952C53.6017 38.8622 52.1916 39.2475 50.4529 39.2475C48.6077 39.2475 47.1486 38.8092 46.0739 37.9308C44.9992 37.0474 44.4645 35.8814 44.4645 34.421C44.4645 31.1423 47.5365 29.5927 50.4546 29.5927ZM67.1179 29.7246L63.8503 34.421L67.1179 39.1173H63.2614L61.0247 35.6863H60.137V39.1173H56.8397V29.7246H60.137V33.1625H61.0247L63.2614 29.7246H67.1179ZM67.4185 29.7246H74.188C75.3622 29.7246 76.2569 30.0259 76.8842 30.6354C77.5115 31.2381 77.8226 32.0633 77.8226 33.1112C77.8226 34.159 77.5063 34.9774 76.879 35.5869C76.2516 36.1896 75.357 36.4909 74.1897 36.4909H70.7176V39.1173H67.4203L67.4185 29.7246ZM70.7159 34.2515H73.3859C74.0814 34.2515 74.4291 33.8713 74.4291 33.243C74.4291 32.5821 74.0254 32.2345 73.3859 32.2345H70.7159V34.2515ZM100.287 29.7263L97.8653 32.2808H96.1619V39.119H92.8644V32.2808H89.684V29.7263H100.287Z" fill="url(#paint2_linear_4597_209)"></path>
  <path d="M33.8141 39.1156H37.3666L39.4652 32.3167H39.7203L41.1235 36.8368H38.07L38.0125 37.023L38.4745 39.1156H41.826H45.3784L42.1492 29.7229H37.0433L33.8141 39.1156Z" fill="url(#paint3_linear_4597_209)"></path>
  <path fill-rule="evenodd" clip-rule="evenodd" d="M29.629 36.5012C28.6156 36.496 28.107 35.991 28.107 34.9826V34.0066H24.8097V35.0938C24.8097 36.4242 25.2273 37.4497 26.066 38.1637C26.9048 38.8776 28.0843 39.2321 29.6307 39.2321C31.1773 39.2321 32.3637 38.8725 33.1955 38.1585C34.0273 37.4395 34.4431 36.4173 34.4431 35.0938V29.7229H24.8097L27.2141 32.2585H31.144V34.9826C31.144 35.9961 30.6408 36.5012 29.629 36.5012ZM27.3529 31.9371H31.4663V34.9826C31.4663 35.5381 31.3283 36.0139 30.9944 36.3487C30.6363 36.7077 30.1206 36.8226 29.6282 36.8226C29.1354 36.8204 28.6194 36.7035 28.2602 36.3455C27.9248 36.0113 27.7848 35.5369 27.7848 34.9826V34.328H25.1319V35.0938C25.1319 36.3524 25.5237 37.2794 26.2753 37.9191C27.0362 38.5668 28.1307 38.9106 29.6307 38.9106C31.1304 38.9106 32.2312 38.5619 32.9849 37.9152C33.7312 37.2697 34.1209 36.3448 34.1209 35.0938V30.0443H25.5581L27.3529 31.9371ZM48.5273 36.0389C48.0625 35.6589 47.8318 35.0904 47.8318 34.421C47.8318 33.7515 48.0555 33.2208 48.5028 32.8286C48.9571 32.4298 49.5844 32.2329 50.3918 32.2329C51.068 32.2329 51.6394 32.3698 52.1059 32.6455C52.5708 32.9142 52.8818 33.2995 53.0373 33.8046H56.4605C56.4541 33.6956 56.444 33.5884 56.43 33.4832C56.2815 32.3662 55.7018 31.4575 54.6974 30.7518C53.5982 29.9797 52.1881 29.5927 50.4546 29.5927C47.5365 29.5927 44.4645 31.1423 44.4645 34.421C44.4645 35.8814 44.9992 37.0474 46.0739 37.9308C47.1486 38.8092 48.6077 39.2475 50.4529 39.2475C52.1916 39.2475 53.6017 38.8622 54.6886 38.0952C55.6823 37.3955 56.2611 36.4812 56.4239 35.3587C56.4392 35.2535 56.4508 35.1463 56.4587 35.0373H53.0356C52.8993 35.515 52.6022 35.8951 52.1357 36.1827C51.6761 36.4652 51.0924 36.609 50.39 36.609C49.6142 36.609 48.9938 36.419 48.5273 36.0389ZM53.2652 35.3587C52.8035 36.4945 51.533 36.9305 50.39 36.9305C49.6517 36.9305 48.9068 36.7583 48.3232 36.2877C47.7641 35.829 47.5095 35.13 47.5095 34.421C47.5095 33.6722 47.7638 33.0486 48.2899 32.5874C48.8205 32.1214 49.5331 31.9114 50.3918 31.9114C51.1106 31.9114 51.7417 32.0571 52.2688 32.3681C52.7302 32.6353 53.0652 33.0084 53.2634 33.4832H56.1047C55.96 32.4801 55.4347 31.663 54.5118 31.0147C53.4805 30.2902 52.1404 29.9142 50.4546 29.9142C49.0468 29.9142 47.6182 30.289 46.5511 31.04C45.4943 31.7838 44.7868 32.8973 44.7868 34.421C44.7868 35.7907 45.2826 36.8634 46.2783 37.6823C47.2788 38.5 48.6575 38.926 50.4529 38.926C52.1448 38.926 53.4842 38.5513 54.5025 37.8328C55.3447 37.2346 55.9366 36.3876 56.098 35.3587H53.2652ZM60.137 33.1625V29.7246H56.8397V39.1173H60.137V35.6863H61.0247L63.2614 39.1173H67.1179L63.8503 34.421L67.1179 29.7246L63.2614 29.7246L61.0247 33.1625H60.137ZM63.4365 30.046L61.1998 33.484H59.8148V30.046H57.1619V38.7959H59.8148V35.3648H61.1996L63.4363 38.7959H66.502L63.458 34.421L66.502 30.046H63.4365ZM67.4185 29.8564L67.4203 39.1173H70.7176V36.4909H74.1897C75.357 36.4909 76.2516 36.1896 76.879 35.5869C77.5063 34.9774 77.8226 34.159 77.8226 33.1112C77.8226 32.0633 77.5115 31.2381 76.8842 30.6354C76.2569 30.0259 75.3622 29.7246 74.188 29.7246H67.4185V29.8564ZM67.7408 30.046L67.7424 38.7959H70.3954V36.1695H74.1897C75.302 36.1695 76.1053 35.8834 76.6546 35.3561C77.2082 34.818 77.5003 34.0888 77.5003 33.1112C77.5003 32.2895 77.264 31.4509 76.6593 30.8657C76.1106 30.3325 75.308 30.046 74.188 30.046H67.7408ZM38.0125 37.0229L38.4745 39.1156H45.3784L42.1492 29.7229H37.0433L33.8141 39.1156H37.3666L38.0125 37.0229ZM37.1285 38.7942L39.2272 31.9953H39.9579L41.5607 37.1582H38.3724L38.7336 38.7942H44.9272L41.9191 30.0443H37.2735L34.2653 38.7942H37.1285ZM41.1235 36.8368L39.7203 32.3167H39.4652L38.07 36.8368H41.1235ZM70.3935 34.5729V31.9131H73.3859C73.7619 31.9131 74.111 32.0157 74.368 32.2567C74.6282 32.5006 74.7514 32.8459 74.7514 33.243C74.7514 33.6146 74.6477 33.959 74.3963 34.21C74.1446 34.4613 73.791 34.5729 73.3859 34.5729H70.3935ZM92.8644 32.2808V39.119H96.1619V32.2808H97.8653L100.287 29.7263H89.684V32.2808H92.8644ZM90.0063 31.9593H93.1865V38.7976H95.8392V31.9593H97.7269L99.5388 30.0477H90.0063V31.9593ZM73.3859 34.2515C74.0814 34.2515 74.4291 33.8713 74.4291 33.243C74.4291 32.5821 74.0254 32.2345 73.3859 32.2345H70.7159V34.2515H73.3859Z" fill="white"></path>
  <path d="M46.4975 18.8882H49.8141V28.4731H45.9735L42.7389 23.7342H42.5765V28.4731H39.2599V21.6622L36.6645 18.8882H43.1616L46.335 23.8621H46.4975V18.8882ZM60.6462 27.2644C59.5651 28.1598 58.091 28.6074 56.224 28.6074C54.3569 28.6074 52.9002 28.1598 51.8209 27.2644C50.7398 26.3626 50.2036 25.1716 50.2036 23.6815C50.2036 22.1914 50.7416 21.0146 51.8157 20.1113C52.8898 19.2096 54.3569 18.7539 56.2257 18.7539C58.0945 18.7539 59.5791 19.208 60.6532 20.1113C62.8481 21.9539 62.7804 25.4814 60.6462 27.2644ZM58.8717 23.6815C58.8717 22.9668 58.6342 22.4184 58.1538 22.0235C57.6788 21.6286 57.0361 21.4351 56.224 21.4351C55.4118 21.4351 54.7499 21.635 54.2818 22.0427C53.819 22.4504 53.5884 22.9924 53.5884 23.6799C53.5884 24.3674 53.826 24.9301 54.3062 25.325C54.7866 25.7199 55.424 25.9134 56.224 25.9134C57.0238 25.9134 57.7102 25.7135 58.1731 25.3123C58.3073 25.1972 58.8717 24.4828 58.8717 23.6815ZM69.55 18.8882L67.4768 25.4929H67.2201L65.1331 18.8882H61.4356L64.8518 28.4731H69.805L73.2474 18.8882H69.55Z" fill="url(#paint4_linear_4597_209)"></path>
  <path d="M83.0839 28.4731L80.9147 22.0699L83.8873 18.8882H74.7023L71.452 28.4731H75.0254L77.1387 21.5358H77.3954L78.8049 26.1484H75.7336L75.6448 26.4396L76.0827 28.4731H83.0839Z" fill="url(#paint5_linear_4597_209)"></path>
  <path fill-rule="evenodd" clip-rule="evenodd" d="M45.9735 28.4731H49.8141V18.8882H46.4975V23.8621H46.335L43.1616 18.8882H36.6645L39.2599 21.6622V28.4731H42.5765V23.7342H42.7389L45.9735 28.4731ZM42.2542 28.1517V23.4128H42.9094L46.144 28.1517H49.4919V19.2096H46.8197V24.1835H46.1581L42.9846 19.2096H37.406L39.5821 21.5355V28.1517H42.2542ZM60.6532 20.1113C59.5791 19.208 58.0945 18.7539 56.2257 18.7539C54.3569 18.7539 52.8898 19.2096 51.8157 20.1113C50.7416 21.0146 50.2036 22.1914 50.2036 23.6815C50.2036 25.1716 50.7398 26.3626 51.8209 27.2644C52.9002 28.1598 54.3569 28.6074 56.224 28.6074C58.091 28.6074 59.5651 28.1598 60.6462 27.2644C62.7804 25.4814 62.8481 21.9539 60.6532 20.1113ZM60.4396 27.0177C62.4438 25.3429 62.4347 22.0361 60.4454 20.357C59.4464 19.5169 58.0441 19.0753 56.2257 19.0753C54.4086 19.0753 53.0232 19.5178 52.0234 20.357C51.0258 21.196 50.5259 22.2809 50.5259 23.6815C50.5259 25.0831 51.0248 26.1811 52.0273 27.0174C53.0325 27.8512 54.4082 28.286 56.224 28.286C58.0403 28.286 59.433 27.8509 60.4396 27.0177ZM65.1331 18.8882H61.4356L64.8518 28.4731H69.805L73.2474 18.8882H69.55L67.4768 25.4929H67.2201L65.1331 18.8882ZM69.7868 19.2096L67.7137 25.8144H66.9838L64.8967 19.2096H61.8922L65.0793 28.1517H69.5781L72.7897 19.2096H69.7868ZM54.2818 22.0427C54.7499 21.635 55.4118 21.4351 56.224 21.4351C57.0361 21.4351 57.6788 21.6286 58.1538 22.0235C58.6342 22.4184 58.8717 22.9668 58.8717 23.6815C58.8717 24.4828 58.3073 25.1972 58.1731 25.3123C57.7102 25.7135 57.0238 25.9134 56.224 25.9134C55.424 25.9134 54.7866 25.7199 54.3062 25.325C53.826 24.9301 53.5884 24.3674 53.5884 23.6799C53.5884 22.9924 53.819 22.4504 54.2818 22.0427ZM58.3841 25.5553C57.8429 26.0242 57.0705 26.2348 56.224 26.2348C55.3721 26.2348 54.6548 26.0282 54.1012 25.5731C53.5349 25.1074 53.2661 24.447 53.2661 23.6799C53.2661 22.9625 53.5238 22.2815 54.0692 21.8011C54.6596 21.287 55.4582 21.1137 56.224 21.1137C57.0858 21.1137 57.8097 21.3193 58.3594 21.7759C58.9253 22.2414 59.1939 22.8872 59.1939 23.6815C59.1939 24.1541 59.0289 24.5865 58.8566 24.9063C58.6883 25.219 58.4918 25.4625 58.3841 25.5553ZM80.5479 21.991L83.1465 19.2096H74.9335L71.9012 28.1517H74.7865L76.8998 21.2144H77.6341L79.24 26.4698H75.981L76.3431 28.1517H82.6348L80.5479 21.991ZM83.0839 28.4731H76.0827L75.6448 26.4396L75.0254 28.4731H71.452L74.7023 18.8882H83.8873L80.9147 22.0698L83.0839 28.4731ZM75.7336 26.1484L77.1387 21.5358H77.3954L78.8049 26.1484H75.7336Z" fill="white"></path>
  <path d="M89.0915 34.6521C89.3403 32.8116 88.1121 31.1036 86.575 30.2028L86.5757 30.2031C84.7226 29.0989 82.9535 29.2293 81.561 30.0895L81.5634 30.087C81.5393 30.1027 81.5155 30.1179 81.4922 30.133C81.4316 30.1716 81.3717 30.2116 81.3124 30.2529C80.937 30.509 80.7112 30.7048 80.5896 30.8625C80.4515 31.0005 80.3204 31.1459 80.1965 31.2979C80.1973 31.2965 80.198 31.2954 80.198 31.2954C80.198 31.2954 79.2888 32.2217 79.0066 33.2671C78.664 34.7947 78.8984 36.3368 79.2522 36.8901C79.8998 37.8045 79.9388 38.7561 82.81 39.7172C83.5281 39.9576 84.2398 39.9271 84.9039 39.7462C84.9537 39.7329 85.0031 39.7178 85.0525 39.7027C88.0244 39.1057 88.7529 37.1578 89.0915 34.6521Z" fill="#F2FDFE"></path>
  <path d="M89.0915 34.6521C89.3403 32.8116 88.1121 31.1036 86.575 30.2028L86.5757 30.2031C84.7226 29.0989 82.9535 29.2293 81.561 30.0895L81.5634 30.087C81.5393 30.1027 81.5155 30.1179 81.4922 30.133C81.4316 30.1716 81.3717 30.2116 81.3124 30.2529C80.937 30.509 80.7112 30.7048 80.5896 30.8625C80.4515 31.0005 80.3204 31.1459 80.1965 31.2979C80.1973 31.2965 80.198 31.2954 80.198 31.2954C80.198 31.2954 79.2888 32.2217 79.0066 33.2671C78.664 34.7947 78.8984 36.3368 79.2522 36.8901C79.8998 37.8045 79.9388 38.7561 82.81 39.7172C83.5281 39.9576 84.2398 39.9271 84.9039 39.7462C84.9537 39.7329 85.0031 39.7178 85.0525 39.7027C88.0244 39.1057 88.7529 37.1578 89.0915 34.6521Z" fill="url(#paint6_linear_4597_209)"></path>
  <path d="M85.9157 37.3163C85.4116 36.8844 83.6486 36.6151 83.4409 35.9207C83.4443 35.7559 83.4602 35.5828 83.4602 35.4111C83.4296 35.2784 83.4311 35.0792 83.375 34.8974C83.3277 34.7833 83.2565 34.6755 83.1492 34.5779C83.1459 34.5761 83.1429 34.5739 83.1398 34.5716C83.054 34.396 83.1332 34.0099 83.2143 33.5736C83.2611 33.236 83.3058 32.8759 83.2879 32.5572C83.2926 32.457 83.2813 32.3727 83.2567 32.3014C83.0245 31.6326 81.6173 32.1348 81.6071 31.5091C81.7728 30.935 80.3765 31.4145 81.5625 30.0868C81.4721 30.145 81.3889 30.2 81.3119 30.2528C80.9365 30.509 80.7107 30.7048 80.589 30.8624C80.451 31.0005 80.3198 31.1459 80.196 31.2979C80.1859 31.3119 80.1289 31.3937 80.0451 31.5244C79.9166 31.7748 79.6957 32.101 80.0123 32.0996C82.0744 31.9266 79.659 34.1273 80.5893 34.9274C82.2901 36.119 80.881 35.9787 81.5658 37.3418C81.6139 37.4377 81.6633 37.544 81.7166 37.6554C82.264 37.9571 82.3371 38.3269 82.568 38.6635C82.5082 38.5502 83.2186 38.265 83.3786 37.6146C85.1149 37.6296 84.895 38.7223 86.4466 37.3111C86.5723 37.3115 86.6948 37.3023 86.8146 37.2862C86.7391 37.2901 86.659 37.2948 86.5738 37.2989C86.3684 37.3199 86.1497 37.3263 85.9157 37.3163Z" fill="url(#paint7_radial_4597_209)"></path>
  <path d="M86.9624 38.6932C86.35 39.0744 85.6528 39.33 84.9715 39.3122C84.6661 39.3042 84.2838 39.3055 83.911 39.2692C83.7638 39.255 83.618 39.2348 83.4788 39.2059C83.2397 39.1563 83.0209 39.0815 82.8489 38.9665C82.7294 38.8866 82.6325 38.7872 82.5671 38.6641C82.3361 38.327 82.2632 37.9577 81.7157 37.656C81.6267 37.6072 81.5259 37.5597 81.4097 37.5151C79.9914 36.4774 80.1987 35.4665 79.4645 34.8817C78.4816 34.16 79.6138 32.1957 80.0444 31.5246C80.128 31.3944 80.1852 31.3123 80.1953 31.2982C80.1962 31.2968 80.1967 31.2957 80.1967 31.2957C80.1967 31.2957 79.251 32.1414 78.9253 33.5083C78.6432 35.237 78.8971 36.337 79.251 36.8903C79.8986 37.8047 79.9377 38.7563 82.8089 39.7174C83.5269 39.9579 84.2387 39.9273 84.9027 39.7465C84.9526 39.7331 85.002 39.7181 85.0514 39.703C86.5333 39.4052 87.7918 38.4553 88.4552 37.3092C88.1115 37.7967 87.5798 38.3086 86.9617 38.6928L86.9624 38.6932Z" fill="#CEE7F9"></path>
  <path d="M88.4343 34.3449C88.0996 35.3163 87.5598 35.2582 87.0007 36.4234C86.8853 36.7582 86.6604 37.0681 86.4071 37.3081C86.4696 37.3049 86.5168 37.3011 86.574 37.2983C86.6595 37.2938 86.7398 37.2898 86.8148 37.2856C87.5623 37.1833 88.2776 36.7927 88.6735 36.1959C88.9237 35.7297 89.036 35.1811 89.0911 34.651C89.2949 33.1426 88.5509 31.9005 87.687 31.0569C87.6802 31.0501 87.6733 31.0437 87.6669 31.0371C87.6511 31.0217 87.6353 31.0063 87.6189 30.9911C87.4925 30.8714 87.3645 30.7605 87.2361 30.6585C87.2314 30.6548 87.2268 30.6512 87.2221 30.6476C87.2053 30.634 87.1882 30.6207 87.1712 30.6075C86.8407 30.351 86.5161 30.1544 86.2422 30.0252C86.2437 30.0261 86.2448 30.0267 86.2462 30.0276C86.6706 30.322 89.3656 31.9404 88.4343 34.3449Z" fill="#CEE7F9"></path>
  <path d="M81.1011 32.702C80.9343 33.058 80.4509 33.9776 80.4906 34.334C80.3952 34.8495 81.7527 36.1722 82.48 35.5584C82.5513 35.4027 81.8277 35.0102 83.1304 35.4698C83.1817 35.4882 83.2549 35.4723 83.288 35.4276C83.3964 35.2512 83.3161 35.0879 83.1467 34.9807C82.361 34.3576 83.3869 33.4898 83.278 32.657C83.2828 32.622 83.2859 32.589 83.2876 32.5577C83.2825 32.4686 83.2724 32.383 83.2565 32.3019C83.0243 31.6329 81.6171 32.1352 81.6069 31.5095C81.7726 30.9354 80.3763 31.4149 81.5623 30.0872C81.472 30.1454 81.3923 30.2059 81.3117 30.2533C81.0313 30.4181 80.8233 30.5681 80.5888 30.8629C80.0551 31.5538 81.5124 31.5214 81.1011 32.702Z" fill="url(#paint8_radial_4597_209)"></path>
  <path d="M88.6145 37.0181C88.9911 36.1583 89.0754 34.832 89.0914 34.6522C88.8342 35.113 88.8988 35.6915 88.5799 36.1725C88.0574 36.9603 87.2909 37.2223 86.4071 37.3081C84.8554 38.7196 85.1152 37.6306 83.3792 37.6152C83.0521 38.1066 82.5237 37.8439 82.4764 38.2595C82.4757 38.4172 82.5087 38.5508 82.5683 38.6639C82.6333 38.7874 82.7299 38.8865 82.8499 38.9662C83.0217 39.0811 83.2406 39.1564 83.4799 39.2058C83.6187 39.2345 83.7645 39.2546 83.9121 39.269C84.2848 39.3052 84.667 39.3044 84.9725 39.3121C85.6539 39.3297 86.3507 39.074 86.9635 38.693C87.581 38.309 88.1131 37.7973 88.457 37.3094C88.5129 37.2304 88.5649 37.1313 88.6145 37.0181Z" fill="#3674CC"></path>
  <path d="M82.8831 37.5793C83.0021 37.0986 81.8858 36.9068 81.9786 37.4669C82.0664 37.8172 82.7302 37.964 82.8831 37.5793Z" fill="#3674CC"></path>
  <path d="M84.8909 37.5487C85.2658 37.9517 85.735 37.777 85.2739 37.3678C84.9889 37.1821 84.7588 37.2819 84.8909 37.5487Z" fill="#3674CC"></path>
  <path d="M81.8276 31.3466C81.7568 31.198 81.5242 31.222 81.3875 31.1666C81.0454 30.9696 81.4072 30.5284 81.5928 30.3794C81.93 30.0746 83.1098 29.5835 83.6119 29.5502C84.7277 29.4254 85.3894 29.6852 86.5758 30.2031C84.7221 29.0989 82.953 29.2294 81.5605 30.0896C80.3782 31.4141 81.6198 30.9745 81.6071 31.5092C81.6171 32.1353 83.0243 31.6329 83.2567 32.3015C83.0818 31.4173 82.1408 32.0086 81.8276 31.3466Z" fill="url(#paint9_radial_4597_209)"></path>
  <path d="M84.154 34.2186C84.4884 34.2569 84.446 33.8129 84.5772 33.6148C84.9709 33.2551 85.0381 32.8897 84.6919 32.6236C83.9878 32.0808 83.2466 33.9645 84.154 34.2186Z" fill="url(#paint10_radial_4597_209)"></path>
  <path d="M82.8422 30.801C82.6687 30.7402 82.2868 30.8844 82.3142 31.0538C82.3382 31.0977 82.374 31.1328 82.4171 31.1605C82.4218 31.1632 82.4266 31.166 82.4313 31.1687C82.4331 31.1697 82.4346 31.1705 82.4364 31.1716C82.872 31.4163 83.4113 31.022 82.8422 30.801Z" fill="url(#paint11_radial_4597_209)"></path>
  <path d="M84.0815 31.1483C83.4789 31.0211 83.5286 31.8949 83.9094 32.1142C84.3061 31.9945 84.7548 31.2904 84.0815 31.1483Z" fill="url(#paint12_radial_4597_209)"></path>
  <defs>
    <linearGradient id="paint0_linear_4597_209" x1="62.4998" y1="15.8392" x2="62.4998" y2="41.6694" gradientUnits="userSpaceOnUse">
      <stop stop-color="#370E91"></stop>
      <stop offset="0.078125" stop-color="#22006B"></stop>
      <stop offset="0.927083" stop-color="#22006B"></stop>
      <stop offset="1" stop-color="#370E91"></stop>
    </linearGradient>
    <linearGradient id="paint1_linear_4597_209" x1="62.5485" y1="17.2804" x2="62.5485" y2="40.7246" gradientUnits="userSpaceOnUse">
      <stop stop-color="#7541CB"></stop>
      <stop offset="0.140625" stop-color="#5511AC"></stop>
      <stop offset="0.880954" stop-color="#5511AC"></stop>
      <stop offset="1" stop-color="#7541CB"></stop>
    </linearGradient>
    <linearGradient id="paint2_linear_4597_209" x1="62.5502" y1="39.2457" x2="62.5502" y2="29.5927" gradientUnits="userSpaceOnUse">
      <stop stop-color="#57C9FF"></stop>
      <stop offset="1" stop-color="white"></stop>
    </linearGradient>
    <linearGradient id="paint3_linear_4597_209" x1="62.5502" y1="39.2458" x2="62.5502" y2="29.5928" gradientUnits="userSpaceOnUse">
      <stop stop-color="#57C9FF"></stop>
      <stop offset="1" stop-color="white"></stop>
    </linearGradient>
    <linearGradient id="paint4_linear_4597_209" x1="60.2759" y1="28.6074" x2="60.2759" y2="18.7539" gradientUnits="userSpaceOnUse">
      <stop stop-color="#57C9FF"></stop>
      <stop offset="1" stop-color="white"></stop>
    </linearGradient>
    <linearGradient id="paint5_linear_4597_209" x1="60.2759" y1="28.6074" x2="60.2759" y2="18.7539" gradientUnits="userSpaceOnUse">
      <stop stop-color="#57C9FF"></stop>
      <stop offset="1" stop-color="white"></stop>
    </linearGradient>
    <linearGradient id="paint6_linear_4597_209" x1="81.4249" y1="39.1641" x2="86.5831" y2="30.2065" gradientUnits="userSpaceOnUse">
      <stop stop-color="#57C9FF"></stop>
      <stop offset="1" stop-color="white"></stop>
    </linearGradient>
    <radialGradient id="paint7_radial_4597_209" cx="0" cy="0" r="1" gradientUnits="userSpaceOnUse" gradientTransform="translate(-37.3132 -82.7916) rotate(29.9352) scale(477.313 477.073)">
      <stop stop-color="#71F5FF"></stop>
      <stop offset="0.13" stop-color="#69E8FF"></stop>
      <stop offset="0.36" stop-color="#56C8FF"></stop>
      <stop offset="0.38" stop-color="#54C5FF"></stop>
      <stop offset="0.92" stop-color="#1483FF"></stop>
    </radialGradient>
    <radialGradient id="paint8_radial_4597_209" cx="0" cy="0" r="1" gradientUnits="userSpaceOnUse" gradientTransform="translate(81.3904 29.9065) rotate(29.9353) scale(8.97042 8.96589)">
      <stop stop-color="#71F5FF"></stop>
      <stop offset="0.13" stop-color="#69E8FF"></stop>
      <stop offset="0.36" stop-color="#56C8FF"></stop>
      <stop offset="0.38" stop-color="#54C5FF"></stop>
      <stop offset="0.92" stop-color="#1483FF"></stop>
    </radialGradient>
    <radialGradient id="paint9_radial_4597_209" cx="0" cy="0" r="1" gradientUnits="userSpaceOnUse" gradientTransform="translate(86.474 29.2027) rotate(29.9352) scale(8.74283 8.73844)">
      <stop stop-color="#71F5FF"></stop>
      <stop offset="0.13" stop-color="#69E8FF"></stop>
      <stop offset="0.36" stop-color="#56C8FF"></stop>
      <stop offset="0.38" stop-color="#54C5FF"></stop>
      <stop offset="0.92" stop-color="#1483FF"></stop>
    </radialGradient>
    <radialGradient id="paint10_radial_4597_209" cx="0" cy="0" r="1" gradientUnits="userSpaceOnUse" gradientTransform="translate(81.3251 35.7097) rotate(29.9352) scale(8.36474 8.36055)">
      <stop stop-color="#71F5FF"></stop>
      <stop offset="0.13" stop-color="#69E8FF"></stop>
      <stop offset="0.36" stop-color="#56C8FF"></stop>
      <stop offset="0.38" stop-color="#54C5FF"></stop>
      <stop offset="0.92" stop-color="#1483FF"></stop>
    </radialGradient>
    <radialGradient id="paint11_radial_4597_209" cx="0" cy="0" r="1" gradientUnits="userSpaceOnUse" gradientTransform="translate(81.3248 35.7097) rotate(29.9352) scale(8.36473 8.36056)">
      <stop stop-color="#71F5FF"></stop>
      <stop offset="0.13" stop-color="#69E8FF"></stop>
      <stop offset="0.36" stop-color="#56C8FF"></stop>
      <stop offset="0.38" stop-color="#54C5FF"></stop>
      <stop offset="0.92" stop-color="#1483FF"></stop>
    </radialGradient>
    <radialGradient id="paint12_radial_4597_209" cx="0" cy="0" r="1" gradientUnits="userSpaceOnUse" gradientTransform="translate(81.2467 35.731) rotate(29.9352) scale(8.55841 8.55412)">
      <stop stop-color="#71F5FF"></stop>
      <stop offset="0.13" stop-color="#69E8FF"></stop>
      <stop offset="0.36" stop-color="#56C8FF"></stop>
      <stop offset="0.38" stop-color="#54C5FF"></stop>
      <stop offset="0.92" stop-color="#1483FF"></stop>
    </radialGradient>
  </defs>
</svg>
