<?xml version="1.0" encoding="UTF-8"?>
<svg xmlns="http://www.w3.org/2000/svg" width="125" height="60" viewBox="0 0 125 60" fill="none">
  <rect width="125" height="60.0001" rx="6" fill="#1D0F2D"></rect>
  <path d="M45.6773 42.8484C44.8539 43.7286 43.8128 44.0125 42.6392 44.0315C42.0335 44.0315 41.4373 44.1545 40.8315 44.1924C39.0049 44.3154 37.6326 42.8011 37.926 41.0029C38.049 40.2457 38.1721 39.4791 38.333 38.5232C37.3771 39.1952 36.5537 39.7915 35.5694 40.1038C34.5851 40.4161 33.5819 40.6527 32.5408 40.7473C31.5187 40.842 30.4776 40.8515 29.4838 41.0786C29.2378 41.4666 29.2756 41.8925 29.1715 42.2806C28.7361 43.9841 27.2408 45.3659 25.5088 45.5931C24.7138 45.6972 23.9093 45.7729 23.1049 45.8391C21.0701 45.9906 19.7545 44.5804 20.0384 42.5456C20.3508 40.2457 20.8334 37.9648 21.2309 35.6839C21.7799 32.5702 22.3193 29.4659 22.8588 26.3521C22.9534 25.7843 23.0576 25.2164 23.1049 24.6485C23.2468 23.1153 24.1365 22.0743 25.2722 21.1657C25.7927 20.7492 26.4269 20.6357 27.0515 20.5789C29.7394 20.3139 32.4367 20.0678 35.1246 19.8407C37.2919 19.6609 39.3078 20.0489 41.0208 21.4969C41.0776 21.5443 41.1817 21.5632 41.2858 21.601C41.6739 20.9575 42.1849 20.418 42.7149 19.888C43.2449 19.358 43.8791 19.0457 44.6173 18.9794C47.5891 18.6955 50.5703 18.3548 53.5516 18.175C55.4728 18.0614 57.3278 18.4305 58.8327 19.8123C58.8137 19.8407 58.7854 19.8596 58.7664 19.888C58.5298 19.8691 58.35 19.7271 58.1418 19.6135C57.5645 19.3012 56.9587 19.0741 56.2962 18.9321C54.6211 18.5725 52.9837 18.9321 51.3275 19.0362C49.6712 19.1403 48.015 19.4716 46.3682 19.4621C44.816 19.4526 43.3964 20.7966 43.2449 22.1878C43.0935 23.6075 42.7717 25.0082 42.5162 26.4089C42.4121 25.6234 42.2985 24.8662 42.1471 24.1091C41.7969 22.415 40.7653 21.4023 39.2131 20.806C37.6515 20.2003 36.0521 20.4369 34.4526 20.5789C32.3137 20.7587 30.1842 21.0142 28.0453 21.2035C26.8622 21.3076 25.7454 22.1878 25.4804 23.3614C25.3006 24.1659 25.1681 24.9893 25.0261 25.8032C24.7233 27.5162 24.411 29.2387 24.1176 30.9518C23.6633 33.5734 23.1995 36.1855 22.7736 38.8072C22.6222 39.7631 22.3099 40.7 22.3856 41.6938C22.1868 42.2995 22.1963 42.8674 22.7358 43.3122C23.1238 43.7381 23.5876 43.7475 24.0892 43.5393C25.064 43.3879 26.0767 43.5393 27.0136 43.1607C27.9885 42.6591 28.6226 41.902 28.7456 40.7852C28.8213 40.1227 28.9444 39.4886 29.1242 38.845C30.2883 38.7504 31.4619 38.6747 32.626 38.5611C33.7901 38.457 34.9637 38.3623 36.0615 37.9175C36.5442 37.7188 37.1121 37.6336 37.4055 37.1036H37.3865C37.5474 37.132 37.6799 37.0847 37.7462 36.9332H37.7272C37.8408 36.8859 37.9639 36.8197 38.0774 36.7629C38.1437 36.7061 38.2099 36.6493 38.2667 36.5925C39.1658 35.8638 39.9324 35.0404 40.5003 34.0182C40.8978 33.2895 41.1249 32.485 41.5319 31.7657C41.5319 32.0212 41.5698 32.2862 41.5035 32.5323C41.0965 34.1791 40.8599 35.8448 40.5855 37.5106C40.4435 38.3813 40.1501 39.2331 40.1974 40.1322C40.0176 41.0502 40.1123 41.3057 40.7842 41.7222C41.106 42.1007 41.5224 41.9209 41.901 41.9115C42.9326 41.8073 43.9926 41.8641 44.9769 41.4572C45.0716 41.4288 45.1378 41.372 45.1662 41.2679H45.1757C45.9612 40.8988 46.3682 40.2647 46.5385 39.4223C46.7089 38.58 46.7373 37.7188 47.0496 36.9143C47.996 36.8291 48.9425 36.7345 49.8889 36.6493C49.9268 36.8764 49.9646 37.0941 50.0025 37.3213C49.3873 37.9838 48.7816 38.6463 48.1664 39.3182C47.9298 38.8829 47.6269 39.0438 47.3051 39.1857C47.2105 39.659 47.1159 40.1038 47.0212 40.5486C46.8792 40.6432 46.8509 40.7757 46.8982 40.9272C46.4723 41.5802 46.0464 42.2238 45.6205 42.8768L45.6773 42.8484Z" fill="#D90673"></path>
  <path d="M100.305 13.8308C100.646 13.8119 100.996 13.793 101.337 13.7646C102.87 13.6132 104.337 14.8814 104.252 16.4525C104.167 18.0141 103.987 19.5757 103.457 21.0143C103.022 22.2068 102.028 23.0869 100.769 23.5128C100.286 23.6737 99.7753 23.74 99.2926 23.8441C99.3967 25.6328 98.933 27.308 98.5544 29.0021C98.7248 29.1914 98.933 29.0305 99.1223 29.0589C101.091 29.3145 101.772 30.8193 101.602 32.2768C101.469 33.4409 101.233 34.5955 100.968 35.7407C100.58 37.4254 98.9803 38.8261 97.2767 39.0059C94.939 39.2425 92.5919 39.4507 90.2447 39.6779C88.702 39.8198 87.1499 39.9334 85.6167 40.1132C84.9163 40.189 84.2444 40.2079 83.5819 39.9618C83.5819 39.924 83.5819 39.8861 83.6008 39.8577C83.7901 39.7252 83.7427 39.5832 83.6008 39.4507C83.3642 39.252 83.1938 39.4223 83.0235 39.5738C82.9856 39.5738 82.9383 39.5738 82.9004 39.5738C82.2569 38.8261 81.8688 37.9743 82.0297 36.9711C82.3042 35.277 82.6638 33.5923 82.9099 31.8888C83.0424 31.0086 83.3642 30.1473 83.2601 29.2293C83.0708 29.4564 82.9477 29.693 82.8152 29.9391C81.3861 32.7784 79.957 35.6177 78.5279 38.457C77.9506 38.7125 77.3638 38.9491 76.9663 39.4697C76.4742 39.8482 76.0293 40.2741 75.84 40.8988C75.8022 40.8988 75.7738 40.8988 75.7359 40.8988C75.1586 41.0502 74.5718 41.1354 73.9756 41.1259C74.1081 40.5865 74.4961 40.1322 74.5056 39.5548C74.5056 39.2993 74.25 39.2047 74.1459 39.0059C74.515 38.9491 74.8747 38.864 75.2533 38.845C75.859 38.8072 76.4552 38.7598 76.9379 38.334C77.5436 37.9554 77.979 37.4254 78.2913 36.8102C79.3324 34.7375 80.3072 32.6364 81.3767 30.5827C83.1654 27.1755 84.7933 23.6927 86.582 20.2855C86.7335 19.9921 86.7145 19.6041 87.0647 19.4148C87.1688 19.5662 87.112 19.6987 87.0837 19.8407C86.7619 21.5821 86.4401 23.3235 86.1372 25.0744C85.6829 27.6961 85.2192 30.3082 84.7933 32.9393C84.6324 33.952 84.3485 34.9552 84.3958 35.9963C84.1497 36.9238 84.2349 37.1982 84.9352 37.7093C85.276 37.927 85.6261 38.05 86.0236 37.8702C89.6106 37.5484 93.2071 37.2266 96.794 36.8859C97.5512 36.8102 98.3462 36.8859 99.0276 36.4316C99.993 35.8732 100.532 35.0498 100.608 33.9425C100.646 33.3936 100.769 32.8636 100.883 32.3336C100.977 31.8793 101.006 31.425 100.987 30.9612C100.958 30.1757 100.457 29.712 99.6807 29.6741C99.1033 29.6457 98.5449 29.7971 97.9676 29.8445C96.1694 29.977 94.3712 30.1284 92.5824 30.3366C92.289 30.3745 91.9578 30.4596 91.6833 30.2704C91.6265 29.9959 91.5887 29.7404 91.7969 29.5227C93.1692 29.3996 94.5321 29.2671 95.9044 29.1536C96.3208 29.1157 96.6899 29.0021 96.9833 28.6993C97.4849 28.3491 97.9865 27.9705 98.1474 27.3648C98.4408 26.2291 98.7248 25.0839 98.7437 23.9103C98.7437 23.0396 98.2799 22.5759 97.4092 22.5853C96.7278 22.5853 96.0369 22.5948 95.346 22.7084C94.5605 22.8409 93.7655 22.8598 92.9799 22.926C92.8096 22.6232 92.9042 22.3866 93.0367 22.1594C95.7908 21.9228 98.5544 21.7146 101.299 21.3834C101.46 21.4023 101.592 21.3834 101.649 21.2035H101.63C102.264 20.8344 102.842 20.3612 103.022 19.6514C103.324 18.44 103.57 17.2001 103.712 15.9508C103.835 14.8908 103.031 14.2757 101.98 14.3987C100.693 14.5501 99.4062 14.6353 98.0149 14.7583C98.668 13.8119 99.2264 12.9507 99.851 12.1367C100.438 11.3701 100.466 10.6319 99.9267 9.84636C99.9646 9.8085 100.002 9.77065 100.04 9.73279C101.148 10.5562 101.167 12.1462 100.514 13.2251C100.409 13.3955 100.239 13.528 100.211 13.7362C100.154 13.8024 100.107 13.8687 100.211 13.9255C100.23 13.9349 100.296 13.8876 100.334 13.8592L100.305 13.8308Z" fill="#D90673"></path>
  <path d="M59.2207 20.1246C59.3816 20.1246 59.4573 20.0584 59.5236 19.9069C59.8832 19.1308 60.4984 18.563 61.1136 18.0046C61.4827 17.6733 61.9086 17.4651 62.4102 17.3799C63.5743 17.1907 64.7479 17.0866 65.9214 17.0392C66.3 17.0298 66.6597 17.1528 66.9909 17.2569C68.4957 16.5471 70.0952 16.5282 71.6568 16.5566C73.1143 16.5849 74.0324 17.6544 74.2311 18.8185C74.5434 20.6925 74.8842 22.5569 75.2059 24.4214C75.2533 24.6675 75.2059 24.9419 75.4142 25.1502C75.7075 25.0082 75.7454 24.6959 75.859 24.4593C76.8149 22.5285 77.7613 20.5978 78.6793 18.6482C79.1147 17.7112 79.7677 16.9635 80.5154 16.2821C80.9981 15.8373 81.566 15.5912 82.219 15.5249C83.3358 15.4208 84.4526 15.3167 85.5694 15.2032C86.1372 15.1464 86.6388 15.383 87.1878 15.4871C88.2951 14.6921 89.6769 14.9665 90.8883 14.6542C91.2006 13.9065 91.513 13.1967 91.8064 12.4869C92.0051 12.0042 92.2796 11.5689 92.6014 11.1619C93.4626 10.0546 94.5037 9.26903 95.9896 9.23117C96.5858 9.22171 97.1915 9.1176 97.7878 9.03242C98.6396 8.90939 99.3778 9.13653 100.002 9.71385C99.9646 9.75171 99.9362 9.78957 99.8889 9.82742C99.6428 9.76117 99.3873 9.63814 99.1412 9.6476C98.138 9.70439 97.1442 9.78957 96.1505 9.89367C95.7719 9.93153 95.4785 10.1587 95.1946 10.4237C94.1535 11.3701 93.6614 12.6005 93.3206 13.916C93.0935 14.2946 93.0367 14.6921 93.2165 15.099C92.3553 15.383 91.4562 15.3924 90.576 15.4303C89.5633 15.4682 88.7115 15.6669 88.0679 16.4808C88.0396 16.5092 87.9638 16.4998 87.8692 16.5092C87.4717 15.9035 86.8565 15.7616 86.1467 15.8278C85.2003 15.913 84.2633 16.036 83.3169 16.0549C82.9761 16.0549 82.626 16.1496 82.361 16.3957C81.8215 16.9067 81.2536 17.3894 80.9224 18.0992C80.2883 19.4526 79.6352 20.7966 78.9822 22.1405C77.9695 24.2321 76.8717 26.2859 75.9252 28.4153C75.8401 28.6046 75.7927 28.8507 75.4899 28.9264C75.4142 28.4911 75.3574 28.103 75.2911 27.715C74.9788 25.9073 74.6759 24.0996 74.3636 22.2919C74.1365 20.9953 73.9283 19.6892 73.6727 18.4021C73.5118 17.5787 72.8966 17.0014 72.1868 17.1149C71.4486 17.2285 70.7009 17.2474 69.9627 17.3042C69.1204 17.3705 68.4768 17.6544 67.9752 18.3075C67.9468 18.3453 67.8711 18.3453 67.7765 18.3737C67.36 17.6923 66.7732 17.5124 65.9593 17.6828C65.3252 17.8153 64.6532 17.8153 63.9907 17.8816C62.7793 18.0046 61.8518 18.7523 61.5679 19.9448C61.1609 21.6673 60.9054 23.4182 60.6214 25.1691C60.5552 24.5728 60.5741 23.9766 60.4889 23.3993C60.328 22.2162 59.8454 21.1562 59.1261 20.2003C59.1545 20.1719 59.1829 20.1435 59.2112 20.1151L59.2207 20.1246Z" fill="#D90673"></path>
  <path d="M45.6773 42.8484C46.1032 42.1954 46.5291 41.5518 46.9549 40.8988C47.1064 40.842 47.2294 40.7663 47.2578 40.5864C47.5796 40.1511 47.8919 39.7252 48.2137 39.2898C48.8289 38.6273 49.4346 37.9648 50.0498 37.2929C50.5135 36.9521 50.9016 36.5452 51.2707 36.1098C51.3275 36.0814 51.3748 36.0625 51.4316 36.0341C51.5546 35.9489 51.706 35.8732 51.7628 35.7123C52.3685 35.3432 52.9175 34.8605 53.5989 34.6145C53.7598 34.6523 53.8923 34.6239 53.968 34.463C54.1384 34.463 54.3087 34.463 54.4696 34.4536C55.435 34.3684 55.6148 34.5387 55.5675 35.5136C55.5675 35.6271 55.5485 35.7407 55.5391 35.8543C54.9712 36.8859 54.498 37.9743 53.6462 38.8261C53.6273 38.6652 53.6841 38.4854 53.4853 38.3434C53.3812 38.3245 53.2393 38.3055 53.1068 38.2771C53.1351 38.1825 53.1635 38.0973 53.2014 38.0027C53.7503 37.3118 54.1951 36.5641 54.5264 35.7123C53.4948 35.807 52.6714 36.2518 51.971 36.9711H51.9426C51.3369 37.3496 50.8542 37.8512 50.4189 38.4002C49.7469 39.0438 49.1601 39.7536 48.6585 40.5296C47.9108 41.3057 47.4376 42.29 46.7846 43.1418C46.3682 43.1134 46.1032 43.3216 45.8665 43.6434C45.081 44.7129 45.0905 46.0284 44.7308 47.2209C44.7119 47.2966 44.8255 47.4197 44.8823 47.5238C45.081 47.4007 45.0337 47.0411 45.3555 47.1168C45.488 47.7604 45.9707 47.7888 46.4723 47.732C47.1537 47.6563 47.7878 47.4102 48.4314 47.1925C48.4692 47.2304 48.5071 47.3061 48.5355 47.2966C48.6396 47.2777 48.6017 47.1831 48.5923 47.1168C48.6964 47.0032 48.81 46.9181 48.9708 46.9181C49.3683 47.325 49.728 46.9938 50.116 46.8707C50.5041 46.7382 50.7501 46.2745 51.2328 46.407C49.8037 47.6468 48.1285 48.4324 46.3208 48.9434C46.0558 49.0191 45.753 49.0002 45.4596 48.9907C44.5132 48.9434 43.9264 48.3188 43.9169 47.3723C43.9169 46.7004 44.163 46.0852 44.3901 45.4606C44.7214 44.5425 45.2987 43.7381 45.6678 42.8389L45.6773 42.8484ZM45.7151 48.1295C45.6489 48.0254 45.5921 47.8929 45.4501 48.0916C45.5353 48.1106 45.6205 48.139 45.6962 48.1579C45.9896 48.385 46.3019 48.3093 46.6899 48.2336C46.3208 48.0727 46.018 48.1484 45.7246 48.139L45.7151 48.1295Z" fill="#85DAF3"></path>
  <path d="M83.5913 39.8482C83.5913 39.8482 83.5629 39.9145 83.5724 39.9523C82.4367 41.0124 81.0833 41.6843 79.6542 42.2049C79.3134 42.3279 79.0484 42.5077 78.8024 42.7538C78.4333 43.1229 78.0452 43.4541 77.6099 43.7381C77.2502 43.9747 76.8622 44.164 76.4363 44.2586C75.3668 44.4952 74.9125 44.2018 74.6665 43.0283C74.0702 43.3974 73.5118 43.7759 72.925 44.0977C72.3477 44.41 72.1963 44.3533 71.6568 43.7949C71.7609 42.8863 72.2815 42.1007 72.5654 41.2395C72.66 41.0691 73.0291 40.8704 72.5086 40.7852C72.7452 40.4729 73.0007 40.17 73.4266 40.0375C73.7106 40.8515 72.9061 41.4382 73.0859 42.1954C73.1616 42.2143 73.2468 42.2332 73.3225 42.2522C73.3699 42.4888 73.0291 42.697 73.2752 42.9809C74.1743 42.5361 74.7895 41.7316 75.5845 41.1732C75.6318 41.3436 75.7075 41.4856 75.9441 41.5424C76.2943 41.372 76.7202 41.2868 77.1461 41.2206L77.6288 41.5329C77.9411 41.8263 78.244 41.8831 78.4995 41.4666C78.9917 41.1543 79.1999 40.5581 78.9917 40.1132C78.8118 39.7252 78.4143 39.6211 77.7992 39.8198C77.695 39.8482 77.5909 39.9145 77.4963 39.9713C77.5909 39.2804 78.1399 39.1479 78.6793 39.11C79.162 39.0816 79.6542 39.1668 80.1368 39.1952C80.5343 39.7157 80.2126 40.3215 80.2788 40.9556C81.1968 40.4634 82.1149 40.1416 82.891 39.5548C82.9288 39.5548 82.9761 39.5548 83.014 39.5548C83.1654 39.7347 83.3736 39.8009 83.6008 39.8388L83.5913 39.8482ZM76.0861 43.4825C76.1524 43.5772 76.2186 43.6624 76.3416 43.5299C76.2565 43.5109 76.1713 43.492 76.0956 43.4731C76.0009 43.3122 75.9158 43.1229 75.6508 43.2081C75.6791 43.5109 75.9063 43.4541 76.0861 43.4825ZM76.9568 41.7411C76.9568 41.7411 76.9095 41.6843 76.9852 41.7695C76.8906 41.7032 76.919 41.7222 76.9568 41.7506C77.184 42.0913 77.5058 42.0724 77.9222 42.025C77.5625 41.8736 77.2975 41.7127 76.9663 41.7411H76.9568ZM72.802 42.962C72.6506 42.9999 72.4613 42.9241 72.3288 43.1513C72.4424 43.3784 72.5938 43.5583 72.944 43.5677C72.8872 43.3216 72.8493 43.1418 72.802 42.962C72.8304 42.9431 72.8588 42.9147 72.7925 42.9715C72.8493 42.9052 72.8304 42.9336 72.802 42.962ZM76.0388 42.5077C76.3606 43.2175 76.4836 43.2365 77.3638 42.7633C76.8811 42.7822 76.5309 42.6118 76.0388 42.5077ZM75.4804 42.8579C75.4804 42.8579 75.5277 42.839 75.5372 42.82C75.5372 42.8011 75.5372 42.7632 75.5277 42.7443C75.4804 42.697 75.4425 42.7159 75.4425 42.7916C75.4425 42.8106 75.4709 42.839 75.4804 42.8579Z" fill="#85DAF3"></path>
  <path d="M60.4605 43.2554L60.4227 43.2838C60.2996 43.2838 60.205 43.3216 60.1955 43.4636C59.9305 43.4447 59.6845 43.4636 59.6939 43.8232C59.4005 43.7286 59.2207 43.9557 58.9936 44.0598C58.1702 44.4479 57.4698 45.0631 56.6275 45.347C56.1858 45.0252 55.9618 44.6498 55.9555 44.2207C56.0123 44.1545 56.0596 44.0977 56.1164 44.0314C56.1448 43.9936 56.2016 43.9463 56.2016 43.9368C56.1259 43.8327 56.0975 43.9179 56.0596 43.9747C55.9934 44.0314 55.9366 44.0788 55.8703 44.1356C55.558 44.2302 55.3025 44.4006 55.1984 44.7318C55.1794 44.7886 55.1416 44.8264 55.0848 44.8359C54.8103 44.8359 54.6021 44.9116 54.5359 45.2145C54.0721 45.2713 53.5705 45.4511 53.3244 44.7697C53.6841 43.9652 53.9869 43.0945 54.5453 42.3468C54.621 42.2522 54.6494 42.148 54.6116 42.0345L54.6684 42.0818C54.7819 42.0818 54.8482 42.0155 54.8482 41.8925C54.9618 41.8925 55.028 41.8357 55.028 41.7222H55.0185C55.2457 41.7222 55.3687 41.5991 55.3687 41.372V41.3909C55.4823 41.3909 55.5485 41.3247 55.5485 41.2111C55.6621 41.2111 55.7284 41.1543 55.7284 41.0407V41.0597C55.9082 41.0313 55.9082 40.8893 55.9082 40.7568C56.1448 40.5864 56.3719 40.4161 56.6086 40.2552C56.6748 40.2457 56.7411 40.2363 56.8073 40.2268C57.3846 40.0848 57.9336 40.1227 58.4257 40.4918C58.6055 40.3877 58.757 40.3025 58.8989 40.2173C59.0977 40.2079 59.2775 40.2457 59.4384 40.3782C59.552 40.6622 59.3721 40.842 59.2112 41.0407C58.8611 41.5139 58.3973 41.8925 58.1418 42.432C57.555 43.0377 57.1196 43.7286 56.8546 44.552C58.0471 44.0314 59.0882 43.3406 60.0346 42.4793C60.3091 42.3752 60.5173 42.167 60.7066 41.9588C61.3786 41.2111 62.1546 40.5864 63.0064 40.0375C63.5427 39.9807 63.8929 40.1732 64.057 40.6148C63.9813 40.8325 63.8298 40.9934 63.6121 41.088C63.3945 41.0313 63.1863 40.9745 62.9686 40.9082C62.6941 41.088 62.3061 41.1354 62.325 41.5802H62.3155C62.1073 41.5518 62.0221 41.6748 61.9748 41.8547C61.9748 41.9398 61.9748 42.025 61.9748 42.1102C61.9559 42.2332 61.937 42.3657 61.918 42.4888C61.2555 42.4036 60.8202 42.7159 60.5173 43.2743L60.4605 43.2554ZM56.5896 42.2805C56.8736 42.3279 56.8925 42.1007 56.9493 41.9209C56.9777 41.9398 57.0061 41.9493 57.0344 41.9398C57.9146 41.5802 58.1607 41.2111 57.9336 40.558C57.0344 40.6905 56.3435 41.1164 55.8798 41.9209C55.6337 42.1764 55.3119 42.3657 55.1889 42.7254C54.6684 43.1797 54.3182 43.7286 54.2141 44.4384C55.028 43.8611 55.8893 43.3406 56.4477 42.4793H56.4098C56.5802 42.5077 56.6275 42.4414 56.5896 42.2805Z" fill="#EFE8C0"></path>
  <path d="M62.4291 44.5331C62.4386 44.836 62.2777 45.0915 62.1262 45.3281C61.1514 46.7951 59.8927 47.9403 58.2648 48.6595C58.085 48.7353 57.8862 48.792 57.6875 48.8394C57.3184 48.9151 56.9114 48.9908 56.6653 48.6122C56.4287 48.2526 56.5991 47.8835 56.7978 47.5617C57.1669 46.937 57.7064 46.4449 58.2269 45.9527C58.88 45.347 59.5425 44.7508 60.328 44.3249C60.4795 44.5994 60.6877 44.552 60.9053 44.4101C61.2555 44.1829 61.6246 44.0031 61.9559 43.8895C62.3155 44.041 62.183 44.4101 62.4196 44.552L62.4291 44.5331ZM57.9619 47.5428C59.7696 47.1358 60.9527 46.0852 61.142 44.7697C59.8737 45.2145 58.4919 46.3976 57.9619 47.5428ZM57.3846 47.6942C57.413 48.0349 57.555 48.1769 57.9052 48.0633C57.6875 47.9119 57.5361 47.7983 57.3846 47.6942Z" fill="#85DAF3"></path>
  <path d="M63.7541 43.2176C63.262 43.4447 62.6563 43.5393 62.4859 44.1924C62.4197 43.8801 62.3629 43.5583 62.6847 43.3406C63.3756 42.8579 64.0759 42.3942 65.0129 42.309C64.8898 43.0188 64.6154 43.5867 64.2084 44.0694C64.8141 44.7035 65.2306 44.6845 65.7038 44.022C66.565 43.6624 67.2843 43.0851 68.0509 42.5645C68.7418 42.839 69.4611 42.7822 70.1709 42.7349L70.2183 42.7917C69.6031 43.4352 68.9974 44.0788 68.3822 44.7224C68.1834 44.9306 67.9468 44.9969 67.6818 44.8454C67.4168 44.694 67.4452 44.4858 67.5588 44.2586C67.5872 44.1829 67.625 44.0977 67.6534 44.022C67.7954 43.9558 67.8332 43.8801 67.6723 43.7097C67.625 43.776 67.5777 43.8422 67.5398 43.9085C67.4831 43.9463 67.4357 43.9936 67.379 44.0315C66.7259 44.3817 66.0823 44.7413 65.4293 45.0726C65.0697 45.2524 64.6816 45.3565 64.2747 45.2902C63.6311 45.1767 63.4039 44.7981 63.6311 44.1924C63.7257 43.9274 63.8677 43.6719 63.9813 43.4163C64.1043 43.3027 64.2557 43.1986 64.1138 42.9999C63.9718 43.0377 63.8393 43.0945 63.7636 43.227L63.7541 43.2176ZM68.4579 44.0315C68.4957 44.0883 68.5336 44.164 68.6093 44.0694C68.6093 44.0694 68.5525 44.0031 68.5241 43.9747C68.4484 43.8611 68.3632 43.757 68.2118 43.9463C68.3065 43.9842 68.3822 44.0031 68.4579 44.0315Z" fill="#85DAF3"></path>
  <path d="M65.7038 44.0125C65.2305 44.675 64.8047 44.7034 64.2084 44.0598C64.6154 43.5677 64.8898 42.9998 65.0129 42.2995C64.0759 42.3847 63.3755 42.8484 62.6846 43.3311C62.3629 43.5582 62.4291 43.8706 62.4859 44.1829C62.467 44.2964 62.448 44.41 62.4291 44.5236C62.183 44.3816 62.3155 44.0125 61.9654 43.8611C61.6341 43.9747 61.265 44.1639 60.9148 44.3816C60.6971 44.5236 60.4889 44.5709 60.3375 44.2964C60.4416 44.2964 60.5079 44.2397 60.5552 44.145C60.6687 44.0504 60.7918 43.9557 60.9054 43.8706C61.4637 43.7475 61.8045 43.3595 62.1168 42.9147C62.6279 42.9714 62.9496 42.5834 63.3282 42.3657C64.5207 41.6559 65.8741 41.1638 66.8016 40.0375C66.9247 40.0564 67.0382 40.0754 67.1613 40.0943C67.4831 40.3309 67.2654 40.5297 67.1139 40.7284C66.565 41.4855 66.0161 42.2427 65.4861 43.0093C65.2684 43.3311 65.0034 43.6434 64.975 44.0598C65.24 44.2397 65.4766 44.0314 65.7132 44.0031L65.7038 44.0125Z" fill="#EFE8C0"></path>
  <path d="M55.9366 44.2208C55.9492 44.6498 56.1732 45.0252 56.6086 45.347C57.4509 45.0631 58.1512 44.4479 58.9746 44.0599C59.2018 43.9558 59.3816 43.7286 59.675 43.8233C58.7002 44.7129 57.5644 45.347 56.3719 45.8675C55.7189 46.1515 55.3593 45.8486 55.3782 45.1104C55.3782 44.94 55.558 44.6845 55.1794 44.7224C55.293 44.3911 55.5391 44.2208 55.8514 44.1261C55.8798 44.1545 55.9082 44.1829 55.9461 44.2208H55.9366Z" fill="#85DAF3"></path>
  <path d="M54.5832 42.0156C54.621 42.1291 54.5832 42.2332 54.5169 42.3279C53.9585 43.0756 53.6557 43.9463 53.296 44.7508C53.5421 45.4322 54.0437 45.2524 54.5075 45.205C54.1952 45.6309 53.7503 45.8486 53.3339 46C52.908 45.9716 52.7376 45.7066 52.5673 45.4416L52.5957 45.0536C52.8134 44.3154 53.2203 43.6813 53.5894 43.0282C53.9585 42.7349 54.1289 42.2332 54.5737 42.0156H54.5832Z" fill="#85DAF3"></path>
  <path d="M52.5957 45.0631C52.5957 45.1956 52.5768 45.3186 52.5673 45.4511C52.5105 45.4701 52.4537 45.4984 52.3969 45.5174C52.2455 45.5268 52.1225 45.5647 52.0941 45.7351C51.9805 45.7351 51.9143 45.7824 51.9143 45.9054C51.7912 45.8959 51.7344 45.9433 51.725 46.0663C51.46 46.0379 51.2044 46.0379 51.2139 46.4165C50.7218 46.2934 50.4757 46.7477 50.0971 46.8802C49.7185 47.0127 49.3589 47.3345 48.9519 46.9276C49.8227 46.3597 50.7028 45.8013 51.5641 45.205C51.8953 44.9779 52.2171 44.8927 52.5862 45.0536L52.5957 45.0631Z" fill="#EFE8C0"></path>
  <path d="M62.1078 42.9243C61.7954 43.3598 61.4546 43.7479 60.896 43.8804C60.8203 43.6248 60.6877 43.4071 60.4605 43.2556C60.7635 42.6971 61.199 42.3847 61.8616 42.4699C61.9468 42.6213 62.032 42.7728 62.1078 42.9243Z" fill="#85DAF3"></path>
  <path d="M72.4993 40.7947C73.02 40.8799 72.6508 41.0787 72.5561 41.2491C72.2816 41.2207 72.0639 41.3911 71.8177 41.4574L71.7609 41.4006C72.0071 41.2018 72.2532 40.9935 72.4993 40.7947Z" fill="#7A4896"></path>
  <path d="M59.6845 43.8139C59.6845 43.4542 59.9212 43.4352 60.1862 43.4542C60.0632 43.634 59.9212 43.7855 59.6845 43.8139Z" fill="#85DAF3"></path>
  <path d="M51.2328 46.4166C51.2139 46.0379 51.4695 46.0379 51.744 46.0663C51.621 46.2556 51.4695 46.3882 51.2328 46.4166Z" fill="#85DAF3"></path>
  <path d="M58.8516 19.7934C59.0315 19.8407 59.1545 19.9543 59.2208 20.1247C59.1924 20.1531 59.164 20.1815 59.1356 20.2099C58.9463 20.172 58.8327 20.0584 58.7853 19.8691C58.8043 19.8407 58.8327 19.8218 58.8516 19.7934Z" fill="#D90673"></path>
  <path d="M54.5169 45.2051C54.5737 44.9022 54.7915 44.817 55.066 44.8265C54.924 45.0063 54.782 45.1862 54.5169 45.2051Z" fill="#85DAF3"></path>
  <path d="M71.231 41.8926C71.1647 42.0062 71.0795 42.0914 70.9375 42.1198C70.9186 42.1008 70.8997 42.0724 70.8807 42.0535C70.9849 41.9778 71.089 41.902 71.1837 41.8263L71.231 41.8831V41.8926Z" fill="#85DAF3"></path>
  <path d="M52.0941 45.7351C52.1225 45.5552 52.2455 45.5268 52.397 45.5174C52.3118 45.612 52.255 45.7446 52.0941 45.7351Z" fill="#85DAF3"></path>
  <path d="M70.5685 42.4509C70.5401 42.5456 70.4833 42.5929 70.3886 42.6213L70.3413 42.574C70.3981 42.5172 70.4549 42.4604 70.5117 42.4036L70.5685 42.4604V42.4509Z" fill="#85DAF3"></path>
  <path d="M70.3887 42.6118C70.3603 42.7065 70.3035 42.7633 70.2088 42.7822L70.1615 42.7254C70.2183 42.6686 70.2751 42.6213 70.3413 42.5645L70.3887 42.6118Z" fill="#85DAF3"></path>
  <path d="M71.8272 41.4572C71.8083 41.5329 71.761 41.5802 71.6758 41.5708C71.6379 41.5613 71.619 41.5329 71.6095 41.5045C71.6663 41.4666 71.7136 41.4382 71.7704 41.4004L71.8272 41.4572Z" fill="#7A4896"></path>
  <path d="M60.1955 43.4637C60.205 43.3216 60.2997 43.2838 60.4227 43.2838C60.347 43.3406 60.2713 43.3974 60.1955 43.4637Z" fill="#85DAF3"></path>
  <path d="M71.6758 41.5708C71.5906 41.6276 71.5054 41.6844 71.4108 41.7412L71.354 41.6844C71.4392 41.6276 71.5244 41.5613 71.6096 41.5045C71.6096 41.5424 71.638 41.5613 71.6758 41.5708Z" fill="#85DAF3"></path>
  <path d="M71.4108 41.7411C71.373 41.8263 71.3162 41.8831 71.2215 41.902L71.1741 41.8452C71.2309 41.7979 71.2878 41.7411 71.354 41.6938L71.4108 41.7506V41.7411Z" fill="#85DAF3"></path>
  <path d="M60.5458 44.1545C60.5079 44.2491 60.4416 44.306 60.328 44.306C60.3659 44.2113 60.4416 44.1545 60.5458 44.1545Z" fill="#85DAF3"></path>
  <path d="M51.9237 45.9055C51.9237 45.7824 51.99 45.7256 52.1036 45.7351C52.1036 45.8487 52.0373 45.9149 51.9237 45.9055Z" fill="#85DAF3"></path>
  <path d="M51.7439 46.0569C51.7439 45.9338 51.8102 45.8865 51.9332 45.8959C51.9332 46.0096 51.8575 46.0569 51.7439 46.0569Z" fill="#85DAF3"></path>
  <path d="M70.9376 42.1292C70.9092 42.2239 70.8429 42.2712 70.7483 42.2901L70.6915 42.2333C70.7483 42.1765 70.8145 42.1197 70.8713 42.0724C70.8903 42.0913 70.9092 42.1197 70.9281 42.1387L70.9376 42.1292Z" fill="#85DAF3"></path>
  <path d="M70.7578 42.29C70.7294 42.3847 70.6726 42.432 70.5779 42.451L70.5211 42.3942C70.5779 42.3374 70.6347 42.2806 70.701 42.2238L70.7578 42.2806V42.29Z" fill="#85DAF3"></path>
  <path d="M58.7854 19.8691C58.8327 20.0584 58.9463 20.1625 59.1355 20.2098C59.8548 21.1657 60.328 22.2257 60.4984 23.4087C60.5836 23.9955 60.5646 24.5918 60.6309 25.1785C60.9243 23.4277 61.1704 21.6768 61.5773 19.9542C61.8613 18.7617 62.7888 18.0141 64.0002 17.891C64.6532 17.8248 65.3347 17.8342 65.9688 17.6923C66.7827 17.5125 67.3695 17.7017 67.7859 18.3832C67.89 18.3453 67.9563 18.3453 67.9847 18.3169C68.4863 17.6544 69.1299 17.38 69.9722 17.3137C70.7104 17.2569 71.4581 17.238 72.1963 17.1244C72.9061 17.0203 73.5118 17.5882 73.6822 18.4116C73.9377 19.7082 74.1459 21.0048 74.3731 22.3014C74.6854 24.1091 74.9977 25.9168 75.3006 27.7245C75.3668 28.1125 75.4331 28.5005 75.4993 28.9359C75.8022 28.8602 75.8495 28.6141 75.9347 28.4248C76.8811 26.2953 77.979 24.2416 78.9917 22.15C79.6447 20.806 80.2977 19.4621 80.9319 18.1087C81.2631 17.4083 81.8215 16.9162 82.3704 16.4051C82.6354 16.1591 82.9856 16.0739 83.3263 16.0644C84.2728 16.0455 85.2192 15.9224 86.1562 15.8373C86.866 15.771 87.4717 15.913 87.8787 16.5187C87.9733 16.5092 88.0585 16.5187 88.0774 16.4903C88.721 15.6764 89.5728 15.4776 90.5855 15.4398C91.4562 15.4019 92.3648 15.3924 93.226 15.1085C93.5099 15.1085 93.7749 15.0517 93.9737 14.7773C93.898 14.5501 93.8317 14.3135 93.7465 14.0769C93.6708 13.8687 93.5194 13.8687 93.3396 13.9255C93.6803 12.6099 94.1724 11.3796 95.2135 10.4331C95.4974 10.1681 95.8003 9.941 96.1694 9.90314C97.1632 9.79904 98.1664 9.71386 99.1601 9.65707C99.4062 9.64761 99.6523 9.77064 99.9078 9.83689C100.447 10.6224 100.419 11.3606 99.8321 12.1273C99.2169 12.9412 98.6585 13.8024 97.996 14.7489C99.3873 14.6258 100.674 14.5407 101.962 14.3892C103.012 14.2662 103.817 14.8814 103.694 15.9414C103.552 17.1812 103.306 18.421 103.003 19.6419C102.823 20.3517 102.245 20.825 101.611 21.1941C101.592 20.9953 101.498 20.8817 101.28 20.8912C100.797 20.9101 100.315 20.8912 99.8226 20.948C98.9519 21.0616 98.0717 21.1657 97.1916 21.2225C95.8287 21.3076 94.4753 21.4401 93.1692 21.6105C92.9799 21.7903 93.0273 21.9701 93.0083 22.1405C92.8758 22.3676 92.7812 22.6043 92.9515 22.9071C93.7371 22.8409 94.5415 22.8219 95.3176 22.6894C96.0085 22.5759 96.6899 22.5759 97.3808 22.5664C98.2516 22.5569 98.7248 23.0207 98.7153 23.8914C98.7058 25.0744 98.4219 26.2196 98.1191 27.3459C97.9582 27.9516 97.4566 28.3302 96.9549 28.6803C96.6899 28.3586 96.3114 28.4721 96.0085 28.5289C95.5542 28.6141 95.0999 28.5952 94.6646 28.6709C93.7465 28.8223 92.8096 28.8128 91.9483 28.8696C91.7496 29.1062 91.7969 29.3145 91.7685 29.5037C91.5603 29.7214 91.5981 29.977 91.6549 30.2514C91.9389 30.4407 92.2606 30.3555 92.554 30.3177C94.3428 30.1 96.141 29.958 97.9392 29.8255C98.5071 29.7782 99.0655 29.6362 99.6523 29.6552C100.438 29.693 100.939 30.1568 100.958 30.9423C100.977 31.3966 100.958 31.8509 100.854 32.3146C100.741 32.8446 100.618 33.3746 100.58 33.9236C100.514 35.0309 99.9646 35.8638 98.9992 36.4127C99.0087 36.0436 98.7437 36.0814 98.526 36.1098C97.2483 36.2802 95.9612 36.3275 94.693 36.46C92.2796 36.7155 89.8662 36.9427 87.4528 37.132C86.8849 37.1793 86.3265 37.2834 86.0047 37.8513C85.6072 38.0311 85.2571 37.9081 84.9163 37.6904C85.0583 37.4822 85.2003 37.2834 85.3612 37.0468C84.9921 36.6966 84.8974 36.2234 84.7365 35.7691C84.5756 35.8638 84.4715 35.9205 84.3769 35.9773C84.3295 34.9363 84.604 33.933 84.7744 32.9204C85.2003 30.2987 85.664 27.6771 86.1183 25.0555C86.4212 23.3046 86.7429 21.5632 87.0647 19.8217C87.0931 19.6798 87.1499 19.5473 87.0458 19.3959C86.7051 19.5851 86.7146 19.9826 86.5631 20.2666C84.7744 23.6737 83.1465 27.1566 81.3577 30.5637C80.2788 32.6175 79.304 34.7186 78.2724 36.7913C77.9601 37.4064 77.5247 37.9459 76.919 38.315C76.8527 38.2677 76.7865 38.1731 76.7202 38.1731C75.4709 38.1731 74.2406 38.3623 73.0008 38.5232C72.7263 38.5611 72.4991 38.7788 72.4708 39.11C72.2341 39.1384 71.9881 39.1573 71.7515 39.1857C71.5906 39.1763 71.4391 39.1573 71.2783 39.1479C71.2025 39.0343 71.1268 38.9207 71.0606 38.8072C71.212 38.6084 71.3729 38.4002 71.4391 38.315C70.6063 35.1445 70.2277 32.0023 69.6504 28.8886C69.0731 25.7559 68.5525 22.6137 68.0131 19.481C67.7859 20.1625 67.6345 20.8439 67.644 21.5537C67.5872 21.62 67.4925 21.6673 67.4831 21.743C67.1234 23.7968 66.7638 25.86 66.4136 27.9137C65.8741 31.0748 65.3252 34.2264 64.7952 37.3875C64.6438 38.3056 64.2747 39.0722 63.4323 39.5454C63.1768 39.2425 62.8455 39.3845 62.5616 39.4318C62.3061 39.4791 62.06 39.5548 61.8045 39.5264C61.0757 39.4507 60.4605 39.6968 59.9211 40.17C59.798 40.3782 59.5993 40.3593 59.4005 40.3688C59.2491 40.2268 59.0598 40.1984 58.8611 40.2079L58.8327 40.0186C59.003 39.8104 59.2113 39.6211 59.2964 39.3182C59.0125 38.9586 58.9368 38.5327 58.8705 38.0595C58.7002 38.1541 58.6055 38.2014 58.5109 38.2488C58.4352 37.9364 58.4446 37.6147 58.5014 37.3023C58.8043 35.5041 59.1734 33.7154 59.4289 31.9077C59.5425 31.0937 59.94 30.3271 59.7791 29.447C59.2018 31.6143 58.0187 33.3936 56.4287 34.7659C56.3909 35.1161 56.4855 35.2959 56.5612 35.4852C56.8736 36.2234 57.2048 36.9522 57.4887 37.7093C57.7727 38.4759 57.8105 39.2236 57.0912 39.8198C56.9587 39.924 56.8736 40.0848 56.7695 40.2173C56.7032 40.2268 56.637 40.2363 56.5707 40.2457C56.4193 39.9997 56.1732 40.0848 55.965 40.0565C55.3403 39.9807 54.7441 40.2457 54.1194 40.2268C53.5705 40.2079 53.1257 40.4066 52.8323 40.8798C52.4348 40.8515 51.9521 41.1354 51.6966 40.577C51.9521 40.2552 52.2928 40.1038 52.6809 39.9713C53.703 39.6306 54.763 39.6211 55.8041 39.4886C56.088 39.4507 56.3909 39.5075 56.5518 39.1952L56.8073 38.9302C57.1291 38.5516 56.9209 38.192 56.7884 37.8134C56.4382 36.7723 55.7757 35.8354 55.7378 34.6902C55.7378 34.5388 55.5675 34.3968 55.4823 34.2548C55.9366 33.9614 56.4193 33.7059 56.76 33.2611C56.9777 33.1475 57.1386 32.9771 57.2237 32.75C57.2616 32.7027 57.3089 32.6554 57.3468 32.608C57.6591 32.3052 57.8862 31.9361 58.085 31.5575C58.8421 30.1568 59.2491 28.633 59.5236 27.0714C59.7602 25.718 60.0252 24.3552 59.6939 22.9828C59.5993 22.6043 59.6655 22.1121 59.1829 21.8944C59.2396 21.6105 59.2491 21.355 58.8421 21.3739C58.9746 21.1562 58.88 21.0616 58.6529 21.0426C58.6812 20.9007 58.6339 20.8344 58.4825 20.8723C58.5109 20.7209 58.4541 20.6641 58.3121 20.7019C58.2648 20.3991 58.1039 20.276 57.8011 20.3517C57.7821 20.1057 57.6591 20.0678 57.4509 20.1719C57.432 19.9164 57.29 19.9164 57.1007 20.0016C57.0061 19.7176 56.7979 19.7366 56.5802 19.8312C56.3057 19.4621 55.8893 19.5094 55.5107 19.4905C54.4507 19.4242 53.3907 19.5378 52.3402 19.6419C50.2012 19.8596 48.0623 20.0205 45.9234 20.2098C45.6678 20.2287 45.4028 20.2571 45.2325 20.4937C45.1 20.5884 44.9958 20.7019 44.9769 20.8628C44.9012 20.8912 44.8728 20.948 44.9012 21.0332C44.8917 21.0994 44.8728 21.1657 44.8633 21.2319C44.816 21.4307 44.7498 21.62 44.7119 21.8187C43.9926 25.9546 43.2923 30.0811 42.5541 34.217C42.2607 35.8543 42.0619 37.5106 41.6455 39.129C41.6266 39.375 41.636 39.6022 41.4846 39.8388C41.3426 40.0659 41.3616 40.3309 41.7212 40.4066C41.7591 40.7095 41.9767 40.7473 42.2133 40.7284C43.0462 40.6527 43.8885 40.5959 44.7214 40.4918C44.9201 40.4634 45.1757 40.4256 45.3271 40.2363C45.3934 40.1416 45.4596 40.047 45.5353 39.9618C45.6962 39.8198 45.7719 39.6306 45.8098 39.4413C46.0275 38.2393 46.3114 37.0468 46.3871 35.8164L46.5669 35.6934C46.7467 36.0057 47.0023 35.8259 47.2484 35.807C48.4693 35.7313 49.6712 35.4757 50.9016 35.5609C51.0341 35.7786 51.1477 35.9679 51.2612 36.1572C50.9016 36.5925 50.5041 36.9995 50.0403 37.3402C50.0025 37.1131 49.9646 36.8954 49.9268 36.6682C49.9552 36.4695 50.2107 36.3843 50.1918 36.1288C49.1791 36.053 48.1948 36.3938 47.2578 36.3086C47.0307 36.5357 47.0969 36.7439 47.078 36.9427C46.7562 37.7472 46.7373 38.6179 46.5669 39.4507C46.3966 40.2931 45.9896 40.9272 45.2041 41.2963C44.9201 40.9934 44.5605 41.1448 44.2292 41.1354C43.8601 41.1354 43.51 41.3341 43.1314 41.2868C42.573 41.2206 42.2039 41.4761 41.9294 41.9399C41.5414 41.9399 41.1249 42.1291 40.8126 41.7506C40.8883 41.5329 41.1344 41.4288 41.1628 41.1259C40.8316 40.8041 40.8505 40.2836 40.6612 39.8104C40.4719 39.9618 40.3489 40.0565 40.2164 40.1606C40.1596 39.2615 40.453 38.4097 40.6044 37.5389C40.8789 35.8732 41.1155 34.198 41.5224 32.5607C41.5792 32.3146 41.5414 32.0496 41.5508 31.7846C41.6833 31.69 41.7401 31.5859 41.6455 31.425C41.5224 31.5291 41.5887 31.6711 41.5603 31.7941C41.1533 32.5134 40.9262 33.3179 40.5287 34.0466C39.9608 35.0688 39.1848 35.8922 38.2951 36.6209C38.2289 36.6777 38.1626 36.7345 38.1058 36.7913C37.9733 36.8291 37.8219 36.8291 37.7556 36.9711H37.7746C37.6326 36.9711 37.4906 36.99 37.4149 37.1414H37.4339C36.8187 37.255 36.2603 37.5673 35.6356 37.6714C34.5094 37.8607 33.3737 37.8986 32.238 38.0406C31.2253 38.1636 30.1937 38.1068 29.1904 38.4286C29.181 38.5895 29.162 38.7314 29.1526 38.8734C28.9728 39.5075 28.8403 40.1511 28.774 40.8136C28.651 41.9209 28.0169 42.6875 27.042 43.1891C27.0704 43.085 27.1461 42.9809 27.0799 42.8674C26.512 42.8674 25.9442 42.8295 25.3858 42.8768C24.8842 42.9147 24.3542 42.9999 24.1176 43.5677C23.616 43.7759 23.1522 43.7665 22.7642 43.3406C22.9724 43.1891 23.1806 43.0377 23.2563 42.6781C22.9345 42.4131 23.1333 41.8452 22.7452 41.5329C22.6222 41.6086 22.5181 41.6654 22.4235 41.7222C22.3477 40.7379 22.6506 39.7915 22.8115 38.8356C23.2374 36.2139 23.7011 33.5923 24.1554 30.9802C24.4583 29.2577 24.7611 27.5446 25.064 25.8316C25.206 25.0177 25.3385 24.1943 25.5183 23.3898C25.7738 22.2162 26.8906 21.336 28.0831 21.2319C30.2221 21.0521 32.3515 20.7871 34.4905 20.6073C36.0805 20.4748 37.6894 20.2382 39.251 20.8344C40.8032 21.4307 41.8348 22.4434 42.1849 24.1375C42.3458 24.9041 42.4499 25.6518 42.5541 26.4373C42.8001 25.0271 43.1219 23.6264 43.2828 22.2162C43.4342 20.825 44.8633 19.481 46.406 19.4905C48.0623 19.5 49.7091 19.1687 51.3653 19.0646C53.0216 18.9605 54.6589 18.6008 56.3341 18.9605C56.9871 19.1025 57.5929 19.3296 58.1796 19.6419C58.3784 19.7555 58.5677 19.8975 58.8043 19.9164L58.7854 19.8691ZM75.4709 31.9266C75.4709 31.9266 75.4142 31.955 75.4047 31.9929C75.3574 31.9645 75.3101 31.9645 75.2627 31.9929L75.2343 31.9266C75.2627 31.5764 75.2154 31.2452 75.1586 30.9045C74.657 27.9895 74.1554 25.0744 73.6633 22.1594C73.4645 20.9953 73.2847 19.8407 73.067 18.686C72.9156 17.91 72.6411 17.7017 71.9597 17.8248C71.4202 17.9194 70.8713 17.9194 70.3318 17.9667C69.9343 17.9951 69.5274 17.9857 69.1961 18.2696C68.9311 18.4116 68.8743 18.6671 68.8175 18.9226C68.704 19.1971 68.7229 19.4905 68.7702 19.7744C69.234 22.5001 69.7356 25.2259 70.1899 27.9516C70.4454 29.4943 70.7956 31.0275 70.9849 32.5891C71.0795 33.3557 71.1836 34.1318 71.4297 34.8511C71.5811 35.2959 71.6568 35.7123 71.6474 36.1761C71.6379 36.8197 71.742 37.4254 72.272 37.9554C73.7579 37.9554 75.2533 37.7188 76.7581 37.5768C76.8906 37.5673 76.9095 37.4159 76.9474 37.3118C77.1556 37.0752 77.4017 36.8575 77.4774 36.5263C77.6288 36.4127 77.6761 36.2707 77.6667 36.0909C77.8465 36.0436 77.856 35.9016 77.8465 35.7502C78.0263 35.7029 78.0358 35.5609 78.0263 35.4C78.2061 35.3527 78.2156 35.2107 78.2061 35.0593C78.386 35.012 78.3954 34.87 78.386 34.7091C78.5658 34.6618 78.5752 34.5198 78.5658 34.3684C78.7456 34.3211 78.7551 34.1791 78.7456 34.0277C78.9254 33.9804 78.9349 33.8384 78.9254 33.6775C79.1052 33.6302 79.1147 33.4882 79.1052 33.3368C79.2851 33.2895 79.2945 33.1475 79.2851 32.9866C79.4649 32.9393 79.4838 32.7973 79.4649 32.6459C79.711 32.5607 79.7488 32.3146 79.8435 32.1159C81.7742 28.2734 83.6954 24.4403 85.6167 20.5884C85.7303 20.3612 85.9006 20.153 85.8533 19.8691C86.0426 19.8217 86.0521 19.6892 86.0331 19.5284C86.2224 19.481 86.2319 19.3391 86.213 19.1876C86.4022 19.1403 86.4117 18.9984 86.3928 18.8469C86.5821 18.7996 86.5915 18.6576 86.5726 18.4967C86.7619 18.4494 86.7808 18.3169 86.7524 18.156C86.9417 18.1087 86.9606 17.9762 86.9322 17.8058C87.131 17.768 87.1499 17.626 87.1026 17.4557C87.4717 17.2285 87.3108 16.9446 87.1878 16.6228C86.5347 16.5471 85.9006 16.4714 85.2854 16.7742C84.8028 16.8216 84.3106 16.9257 83.8279 16.9162C83.1087 16.8973 82.749 17.2569 82.4556 17.8626C81.1306 20.6357 79.7772 23.3898 78.4427 26.1439C77.5247 28.0273 76.6256 29.9107 75.7076 31.8036C75.6318 31.8414 75.5845 31.8887 75.6034 31.9739L75.4709 31.9266ZM40.0082 33.1286C40.188 33.0718 40.1974 32.9204 40.188 32.7689C40.4908 32.5607 40.5382 32.2389 40.5382 31.9077C40.5949 31.8604 40.6707 31.813 40.699 31.7373C41.3521 29.6173 41.8442 27.4689 41.7212 25.2448C41.6549 24.0712 41.2858 22.9923 40.3678 22.1784C40.0839 21.9228 39.8094 21.5821 39.3362 21.7146C39.3362 21.4401 39.0996 21.4307 38.9198 21.3644C38.0869 21.071 37.2162 21.0805 36.3549 21.1468C33.9226 21.3171 31.4903 21.5159 29.0674 21.7619C28.5469 21.8187 27.9695 21.7146 27.4963 22.0553C27.1745 22.1784 27.061 22.4339 27.0231 22.7462C26.9947 22.7935 26.9569 22.8409 26.9474 22.8976C26.2376 26.9957 25.5372 31.1032 24.8085 35.2013C24.4583 37.1793 24.1933 39.1763 23.7295 41.1354C23.7295 41.4761 23.3888 41.8925 23.9661 42.0913C23.9851 42.3563 24.1744 42.4415 24.3826 42.3941C25.3195 42.1575 26.2944 42.309 27.2408 42.0818C27.5342 42.0061 27.6667 41.8357 27.7708 41.5991C28.1588 40.3498 28.3481 39.0722 28.4901 37.7756C28.5469 37.7282 28.5942 37.6904 28.651 37.6431C29.0012 37.8323 29.3797 37.7566 29.7488 37.7188C31.3104 37.5673 32.8626 37.3686 34.4337 37.2361C35.3896 37.1509 36.2792 36.8575 37.1499 36.4979C37.3487 36.4127 37.5948 36.3275 37.6137 36.0436C37.7367 35.9963 37.8787 35.9868 37.9544 35.8543H37.9355C38.068 35.8354 38.2099 35.8164 38.2951 35.6839H38.2667C38.456 35.6555 38.6358 35.6272 38.5696 35.3622C38.598 35.2959 38.6169 35.2297 38.6453 35.1539C38.863 35.0404 39.0239 34.87 39.109 34.6429C39.1469 34.5955 39.1942 34.5482 39.2321 34.5009C39.4308 34.2927 39.6296 34.0939 39.6958 33.8005V33.8195C39.8283 33.7438 39.8757 33.6113 39.8662 33.4598C40.0365 33.4125 40.0649 33.2705 40.046 33.1191L40.0082 33.1286ZM98.2232 12.9507C98.2705 12.8844 98.3273 12.8276 98.3746 12.7614C98.5355 12.6194 98.6585 12.449 98.7248 12.2408C98.8951 12.0989 99.0182 11.9285 99.075 11.7203V11.7298C99.1317 11.6635 99.1791 11.5973 99.2358 11.5215V11.5405C99.3589 11.4553 99.4346 11.3512 99.4062 11.1808C99.6901 10.6035 99.605 10.3101 99.075 10.329C98.1096 10.3669 97.1348 10.3764 96.1978 10.6698C95.8855 10.8401 95.6773 11.0956 95.5353 11.4269C95.223 12.1651 94.9107 12.8939 94.6078 13.6226L94.5699 13.5564C94.409 13.7551 94.3144 13.9728 94.3901 14.3135C95.4501 14.7962 96.4912 14.6353 97.5323 14.181C97.5796 14.1621 97.5796 14.0296 97.5985 13.9539C97.7405 13.7173 97.8824 13.4901 98.0244 13.2535C98.138 13.1778 98.1853 13.0548 98.2137 12.9317L98.2232 12.9507ZM59.8548 38.6368C59.9211 38.7031 59.9779 38.7598 60.0441 38.8261V38.8072C60.0914 39.1857 60.3943 39.1573 60.6309 39.11C61.3029 38.9491 61.9938 38.9965 62.6752 38.9207C63.0064 38.8829 63.4513 38.8923 63.6027 38.4475C63.6311 38.3718 63.6689 38.2961 63.6973 38.2204C64.0854 37.8134 64.057 37.2645 64.1422 36.7723C64.8898 32.5323 65.6091 28.2923 66.3473 24.0523C66.6218 22.4434 66.9152 20.8344 67.1707 19.216C67.2748 18.5441 66.9625 18.2223 66.2906 18.3264C65.8363 18.3926 65.382 18.4116 64.9182 18.4589C64.4166 18.5062 63.8866 18.4589 63.4418 18.7807C63.1768 18.9416 63.0443 19.1876 63.0159 19.4905C62.9402 19.8501 62.8455 20.2192 62.7793 20.5789C62.0411 24.7905 61.2934 29.0021 60.5836 33.2138C60.3091 34.8511 59.9305 36.4789 59.798 38.1352C59.7886 38.192 59.7602 38.2393 59.7129 38.2677C59.6561 38.2961 59.5614 38.2298 59.5614 38.3529C59.5614 38.5516 59.6939 38.6179 59.8643 38.6463H59.8548V38.6368ZM85.9385 36.4032H85.929C86.0521 36.9238 86.4969 36.7345 86.7713 36.6872C88.3235 36.4316 89.904 36.4222 91.4656 36.2329C93.6519 35.9679 95.8571 35.8638 98.0528 35.6555C98.5071 35.6082 99.0466 35.6839 99.34 35.1729C99.3778 35.0972 99.4062 35.0214 99.4441 34.9457C99.6617 34.7375 99.7091 34.4536 99.7564 34.1696C99.8984 33.3557 100.069 32.5418 100.211 31.7279C100.428 30.488 100.201 30.242 98.9235 30.3839C97.078 30.5827 95.223 30.7436 93.3774 30.9139C92.4973 30.9896 91.5981 30.9612 90.7464 31.2262H90.7558C90.6801 30.9234 90.7464 30.6111 90.7748 30.2987C90.841 29.6457 91.0587 29.0211 91.0587 28.3586C91.1155 28.3207 91.1817 28.2828 91.2385 28.245C91.371 28.4532 91.5792 28.4437 91.778 28.4153C93.0273 28.2355 94.286 28.1882 95.5258 28.0462C96.0369 27.9894 96.6994 28.1693 97.0969 27.6014C97.1348 27.5257 97.1821 27.45 97.2199 27.3743C97.7783 26.248 97.8067 25.0177 97.996 23.8157C98.0528 23.456 97.7783 23.2478 97.3998 23.2384C97.201 23.2384 97.0023 23.2478 96.8035 23.2573C95.1757 23.333 93.5667 23.6359 91.9389 23.6359C92.1376 22.8976 92.0714 22.0932 92.3742 21.3739C92.5919 21.2509 92.7339 21.0332 93.0273 21.0048C94.0778 20.9101 95.1189 20.7303 96.1599 20.683C97.7499 20.6073 99.321 20.3234 100.92 20.295C101.223 20.295 101.536 20.2098 101.782 19.9826H101.772C101.857 19.9353 102.018 19.9826 102.037 19.8312C102.066 19.746 102.104 19.6609 102.132 19.5757C102.359 19.3296 102.397 19.0173 102.454 18.705C102.586 17.8816 102.719 17.0676 102.87 16.2442C103.059 15.2032 102.794 14.9003 101.772 15.0612C100.211 15.2978 98.6396 15.3451 97.0685 15.506C94.9296 15.7237 92.7906 15.8657 90.6517 16.0928C90.2258 16.1401 89.7242 16.036 89.3551 16.3957C89.0901 16.5471 88.9765 16.7837 88.9576 17.0676C88.9197 17.1433 88.8724 17.2191 88.863 17.3042C88.0017 22.2541 87.1215 27.2039 86.2887 32.1537C86.0804 33.3652 85.7397 34.5671 85.7397 35.807C85.7208 35.8922 85.7113 35.9679 85.6924 36.053C85.4937 36.3464 85.7303 36.3654 85.9196 36.4127L85.9385 36.4032ZM59.9589 28.775C59.8738 28.8507 59.8643 28.9359 59.9589 29.0116C60.0157 28.9359 60.0157 28.8507 59.9589 28.775Z" fill="#7A4896"></path>
  <path d="M47.078 40.5202C47.1348 40.5486 47.2011 40.5675 47.2579 40.5959C47.2295 40.7663 47.1064 40.8515 46.955 40.9083C46.9076 40.7474 46.9455 40.6243 47.078 40.5297V40.5202Z" fill="#7A4896"></path>
  <path d="M45.0148 41.4383C45.0242 41.3247 45.081 41.2585 45.2041 41.249C45.1757 41.3531 45.1094 41.4005 45.0148 41.4383Z" fill="#7A4896"></path>
  <path d="M71.2877 39.1384C71.4486 39.1479 71.6 39.1668 71.7609 39.1763C71.9881 39.4507 71.8934 39.6874 71.6947 39.9334C71.477 40.2079 71.2972 40.5013 71.0984 40.7852C71.1363 40.8136 71.1741 40.842 71.2215 40.8704L73.3225 39.1479C73.4645 39.1763 73.5781 39.1479 73.6443 39.0154C73.8052 39.0154 73.9756 38.9965 74.1365 38.9965C74.2406 39.1952 74.4961 39.2899 74.4961 39.5454C74.4866 40.1227 74.0986 40.577 73.9661 41.1165C73.6349 41.4383 73.5686 41.902 73.3225 42.2711C73.2374 42.2522 73.1616 42.2333 73.0859 42.2143C72.9156 41.4572 73.7106 40.8704 73.4266 40.0565C72.9913 40.189 72.7452 40.4918 72.5086 40.8041C72.2625 41.0029 72.0165 41.2111 71.7704 41.4099C71.7136 41.4477 71.6663 41.4761 71.6095 41.514C71.5243 41.5708 71.4391 41.637 71.354 41.6938C71.2972 41.7411 71.2404 41.7979 71.1741 41.8452C71.07 41.9209 70.9659 41.9966 70.8713 42.0724C70.8145 42.1291 70.7482 42.1859 70.6915 42.2333C70.6347 42.29 70.5779 42.3468 70.5116 42.4036C70.4548 42.4604 70.3981 42.5172 70.3413 42.574C70.2845 42.6308 70.2277 42.6781 70.1614 42.7349C69.4422 42.7917 68.7323 42.8484 68.0414 42.5645C68.562 42.0061 69.2529 41.6181 69.6693 40.9556C70.2088 40.3499 70.7482 39.7536 71.2877 39.1479V39.1384Z" fill="#EFE8C0"></path>
  <path d="M78.509 38.4475C79.1147 38.5611 79.834 38.4286 80.1274 39.1952C79.6447 39.1668 79.1526 39.0816 78.6699 39.11C78.1209 39.1479 77.5815 39.2709 77.4868 39.9713C77.5436 40.2173 77.4111 40.3972 77.2597 40.5486C77.0515 40.7568 77.0704 40.9839 77.1461 41.23C76.7202 41.2963 76.3038 41.3814 75.9441 41.5518C75.7075 41.5045 75.6224 41.3531 75.5845 41.1827L75.7265 40.8893C75.7265 40.8893 75.7927 40.8988 75.8306 40.8893C76.6256 40.7473 76.9 40.1889 76.9568 39.4602C77.3543 38.9397 77.9411 38.703 78.5184 38.4475H78.509Z" fill="#EFE8C0"></path>
  <path d="M76.9477 39.4602C76.8909 40.1892 76.6258 40.7477 75.8211 40.8897C76.0104 40.2649 76.4459 39.8389 76.9477 39.4602Z" fill="#85DAF3"></path>
  <path d="M83.5915 39.8484C83.3643 39.8105 83.156 39.7442 83.0045 39.5643C83.175 39.4223 83.3454 39.2519 83.582 39.4413C83.7335 39.5643 83.7714 39.7063 83.582 39.8484H83.5915Z" fill="#EFE8C0"></path>
  <path d="M101.28 21.355C101.356 21.2225 101.479 21.1657 101.63 21.1751C101.574 21.3455 101.441 21.3739 101.28 21.355Z" fill="#7A4896"></path>
  <path d="M44.9864 20.8439C45.0053 20.6735 45.1094 20.56 45.2419 20.4748C47.4092 20.3896 49.5671 20.0773 51.725 19.9164C52.8039 19.8312 53.8828 19.6703 54.9712 19.6703C55.5202 19.6703 56.0312 19.9353 56.5802 19.8217C56.6937 20.0584 56.8925 20.0394 57.1007 19.9921C57.148 20.1909 57.29 20.2003 57.4509 20.1625C57.4982 20.3517 57.6307 20.3896 57.8011 20.3423C57.8768 20.5884 58.0282 20.7398 58.3121 20.6925C58.2743 20.8439 58.3405 20.9007 58.4825 20.8628C58.4541 21.0048 58.5014 21.071 58.6529 21.0332C58.5771 21.2225 58.6529 21.3266 58.8421 21.3739C58.8421 21.62 58.9273 21.8093 59.1829 21.8944C59.145 22.4812 59.5141 22.9734 59.5236 23.5602C59.6087 26.5982 59.0598 29.4848 57.5361 32.1443C57.4509 32.2863 57.3184 32.4188 57.3468 32.608C57.3089 32.6554 57.2616 32.7027 57.2237 32.75C56.9398 32.8068 56.7695 32.9677 56.76 33.2611C56.4193 33.7059 55.9366 33.952 55.4823 34.2548C54.9428 34.1034 54.4412 34.1507 53.9775 34.482C53.8261 34.463 53.703 34.5009 53.6084 34.6239C52.9269 34.8795 52.378 35.3527 51.7723 35.7218C51.6398 35.4379 51.5925 35.0972 51.2328 34.9741C51.1476 34.8322 51.0057 34.8038 50.8732 34.87C50.7312 34.9363 50.8448 35.0593 50.8448 35.1539C50.646 35.1823 50.4473 35.2202 50.2485 35.2391C49.0276 35.4095 47.7878 35.3905 46.5764 35.6461L46.3966 35.7691C45.9612 36.0909 46.0937 36.5831 46.0085 37.0089C45.8287 37.9743 45.5637 38.9207 45.5448 39.9145C45.4785 40.0091 45.4123 40.1038 45.3366 40.189C44.286 40.312 43.2355 40.4445 42.1755 40.4634C42.2985 40.2268 42.1282 40.0754 42.024 39.905C42.0998 38.7315 42.3364 37.5863 42.554 36.4411C42.8096 35.0688 43.0462 33.687 43.2828 32.3146C43.6046 30.4596 43.9074 28.6046 44.2292 26.7496C44.5321 25.0082 44.8539 23.2762 45.1567 21.5348C45.1946 21.3171 45.0621 21.2225 44.8633 21.2035C44.8728 21.1373 44.8917 21.071 44.9012 21.0048C44.9296 20.948 44.958 20.8912 44.9769 20.8344L44.9864 20.8439ZM54.8577 24.27C54.0248 23.7021 53.1825 24.251 52.3402 24.2605C52.3118 24.2605 52.2739 24.4119 52.2455 24.4877C51.9332 24.535 51.6303 24.5823 51.318 24.6202C50.3621 24.7337 49.3873 24.7337 48.4409 24.9419L48.28 25.0555C48.0812 25.1123 48.0434 25.3111 48.015 25.4625C47.731 27.0619 47.4566 28.6614 47.1821 30.2704C47.1537 30.4312 47.2483 30.5354 47.3619 30.63L47.3998 30.6773C47.5134 30.895 47.7216 30.8855 47.9203 30.8666C49.4157 30.7341 50.9205 30.6111 52.4159 30.4407C52.6619 30.4123 53.0121 30.4596 53.1352 30.1095C54.1384 29.9107 54.6873 29.2198 54.9996 28.3207C55.1984 27.7623 55.3214 27.1755 55.4823 26.6077C55.4918 26.6361 55.5012 26.6644 55.5202 26.6834C55.5202 26.6928 55.5675 26.6928 55.5675 26.6834C56.0407 25.5666 55.8325 24.8378 54.8482 24.2605L54.8577 24.27Z" fill="#FDCC01"></path>
  <path d="M53.5989 43.0283C53.0594 43.0756 52.52 43.1134 51.9805 43.1608C50.2864 43.3217 49.2926 42.3563 48.8857 41.1638C48.81 40.9461 48.7342 40.7379 48.6491 40.5297C49.1507 39.7536 49.7469 39.0438 50.4094 38.4002C50.8259 38.7882 50.8259 39.3656 51.0435 39.8388C51.1855 40.1511 51.2991 40.454 51.6776 40.5581C51.9332 41.1165 52.4159 40.8325 52.8134 40.8609C53.8355 40.8988 54.8293 40.5675 55.8514 40.7C55.7946 40.8136 55.7378 40.9177 55.6811 41.0313V41.0124C55.5769 41.0218 55.5012 41.0786 55.5012 41.1922C55.3877 41.1922 55.3119 41.2395 55.3214 41.3625V41.3436C55.1132 41.372 54.9807 41.4761 54.9712 41.6938H54.9807C54.8482 41.6938 54.7914 41.7411 54.8009 41.8736C54.6684 41.8547 54.6116 41.9115 54.621 42.044L54.5643 41.9966C54.1194 42.2143 53.9491 42.7159 53.58 43.0093L53.5989 43.0283Z" fill="#D90673"></path>
  <path d="M56.7978 38.9208L56.5423 39.1858C55.435 39.252 54.3466 39.4792 53.2298 39.4129C53.3528 39.2047 53.6084 39.0911 53.6462 38.8261C54.498 37.9838 54.9712 36.8954 55.5391 35.8638C56.1827 36.7913 56.4761 37.8608 56.7978 38.9208Z" fill="#FDCC01"></path>
  <path d="M46.7846 43.1513C46.4912 43.7381 46.1884 44.3154 45.9139 44.9117C45.5826 45.612 45.3744 46.3502 45.3555 47.1358C45.0337 47.0695 45.081 47.4292 44.8823 47.5427C44.8255 47.4292 44.7119 47.3156 44.7308 47.2399C45.0905 46.0379 45.081 44.7224 45.8666 43.6624C46.1032 43.3406 46.3682 43.1229 46.7846 43.1608V43.1513Z" fill="#EFE8C0"></path>
  <path d="M51.971 36.9809C52.6621 36.2614 53.4857 35.8165 54.5271 35.7218C54.1957 36.5738 53.7508 37.3217 53.2017 38.0128C53.1639 37.9844 53.1355 37.956 53.0976 37.9181C53.0503 37.6057 53.3816 37.3406 53.2207 36.9904C52.8609 36.7916 52.5674 37.085 52.2456 37.1324C52.1604 37.085 52.0657 37.0282 51.9805 36.9809H51.971Z" fill="#C4A60F"></path>
  <path d="M56.7978 38.9207C56.4855 37.8607 56.1827 36.7913 55.5391 35.8638C55.5486 35.7502 55.5675 35.6366 55.5675 35.5231C55.6148 34.5482 55.435 34.3779 54.4696 34.4631C54.2993 34.482 54.1289 34.4631 53.968 34.4725C54.4318 34.1413 54.9334 34.0939 55.4728 34.2454C55.5675 34.3873 55.7284 34.5293 55.7284 34.6807C55.7662 35.8354 56.4287 36.7629 56.7789 37.804C56.902 38.1825 57.1102 38.5422 56.7978 38.9207Z" fill="#EFE8C0"></path>
  <path d="M51.971 36.9806C52.0562 37.0279 52.1509 37.0847 52.2361 37.132C52.3687 37.5202 52.5012 37.8989 52.6432 38.287C52.6243 38.4195 52.5959 38.5521 52.5769 38.6941C52.0752 38.2397 52.0089 37.6148 51.9426 36.99H51.971V36.9806Z" fill="#EFE8C0"></path>
  <path d="M51.4317 36.0439C51.3843 35.7315 51.2802 35.438 51.1287 35.154C51.1571 35.1256 51.1666 35.0877 51.1571 35.0499C51.195 35.0499 51.2234 35.0215 51.2329 34.9741C51.5831 35.0972 51.6399 35.438 51.7725 35.722C51.7157 35.8829 51.5737 35.9492 51.4411 36.0439H51.4317Z" fill="#EFE8C0"></path>
  <path d="M52.5768 38.6938C52.5957 38.5613 52.6241 38.4287 52.643 38.2867C52.7945 38.1637 52.8513 37.927 53.0974 37.9175C53.1258 37.9459 53.1637 37.9743 53.2016 38.0122C53.1732 38.1068 53.1448 38.1921 53.1069 38.2867H53.1164C53.0028 38.4003 52.8986 38.5234 52.785 38.6465C52.7188 38.6465 52.6525 38.6465 52.5768 38.6465V38.6843V38.6938Z" fill="#C4A60F"></path>
  <path d="M53.1068 38.2867C53.2393 38.3056 53.3813 38.334 53.4854 38.3529C53.6842 38.4949 53.6274 38.6748 53.6464 38.8357C53.4476 38.6748 53.2204 38.5423 53.1068 38.2867Z" fill="#EFE8C0"></path>
  <path d="M45.7151 48.1295C46.0086 48.1485 46.321 48.0727 46.6808 48.2242C46.2926 48.3094 45.9802 48.3851 45.6867 48.1485L45.7057 48.1201L45.7151 48.1295Z" fill="#EFE8C0"></path>
  <path d="M53.5989 34.624C53.6936 34.5009 53.8166 34.463 53.9681 34.4725C53.8924 34.6335 53.7504 34.6619 53.5989 34.624Z" fill="#EFE8C0"></path>
  <path d="M45.6868 48.1485C45.6111 48.1296 45.5353 48.1106 45.4407 48.0822C45.5827 47.8834 45.6395 48.016 45.7057 48.1201L45.6868 48.1485Z" fill="#EFE8C0"></path>
  <path d="M48.4219 47.202C48.4787 47.1736 48.5355 47.1547 48.5923 47.1263C48.5923 47.202 48.6397 47.2872 48.5355 47.3062C48.5071 47.3062 48.4598 47.2399 48.4314 47.202H48.4219Z" fill="#EFE8C0"></path>
  <path d="M72.8116 42.962C72.8495 43.1419 72.8968 43.3217 72.9536 43.5679C72.6128 43.549 72.4519 43.3786 72.3383 43.1513C72.4708 42.9241 72.6601 42.9999 72.8116 42.962Z" fill="#EFE8C0"></path>
  <path d="M76.9568 41.7411C77.2882 41.7127 77.5532 41.8736 77.913 42.0251C77.4964 42.0725 77.1746 42.0914 76.9474 41.7506L76.9568 41.7411Z" fill="#EFE8C0"></path>
  <path d="M77.6288 41.5424L78.4998 41.4761C78.2442 41.9021 77.9412 41.8453 77.6288 41.5424Z" fill="#EFE8C0"></path>
  <path d="M76.0862 43.4826C75.9064 43.4542 75.6792 43.511 75.6508 43.2081C75.9158 43.1229 75.9916 43.3122 76.0957 43.4732L76.0862 43.4826Z" fill="#EFE8C0"></path>
  <path d="M75.4804 42.8579C75.4804 42.8579 75.4425 42.8106 75.4425 42.7917C75.4425 42.7159 75.4804 42.697 75.5277 42.7443C75.5467 42.7633 75.5467 42.8011 75.5372 42.8201C75.5372 42.839 75.4993 42.8485 75.4804 42.8579Z" fill="#EFE8C0"></path>
  <path d="M76.0956 43.4731C76.1713 43.492 76.2471 43.511 76.3417 43.5299C76.2187 43.6624 76.1524 43.5867 76.0861 43.4825L76.0956 43.4731Z" fill="#EFE8C0"></path>
  <path d="M76.9474 41.7506C76.9474 41.7506 76.8811 41.7032 76.9758 41.7695C76.9 41.6843 76.9285 41.7127 76.9474 41.7411V41.7506Z" fill="#EFE8C0"></path>
  <path d="M72.802 42.962C72.802 42.962 72.8493 42.9052 72.7925 42.9715C72.8588 42.9147 72.8304 42.9431 72.802 42.962Z" fill="#EFE8C0"></path>
  <path d="M71.2877 39.1384C70.7482 39.7441 70.2088 40.3404 69.6693 40.9461C68.7702 40.6338 68.5714 39.8293 68.3348 39.0532C68.562 38.6652 68.9784 38.4097 69.1204 37.9365C68.7986 37.3686 68.4863 37.7282 68.1834 37.9365C68.1266 37.7756 68.0509 37.6147 68.0225 37.4443C67.6534 35.3054 67.2938 33.157 66.9341 31.018C66.9057 30.8477 66.9341 30.6205 66.6313 30.5921C66.3663 32.2105 66.1202 33.8195 65.8457 35.4284C65.628 36.6966 65.4766 37.9838 65.1454 39.2236C64.8804 40.2363 64.2652 40.965 63.3093 41.4099C63.2998 41.23 63.4986 41.1922 63.5554 41.0597C63.773 40.965 63.9245 40.8041 64.0002 40.5865C63.8361 40.1448 63.486 39.9524 62.9496 40.0091L62.9118 39.9523C63.0821 39.8104 63.2525 39.6684 63.4323 39.5265C64.2841 39.0532 64.6438 38.2866 64.7952 37.3686C65.3252 34.2075 65.8741 31.0559 66.4136 27.8948C66.7638 25.8411 67.1234 23.7778 67.4831 21.7241C67.4925 21.6578 67.5872 21.601 67.6439 21.5348C68.0509 23.8157 68.4768 26.0966 68.8743 28.3775C69.4138 31.4818 69.9343 34.5861 70.4643 37.6904C70.54 38.1163 70.6915 38.5232 71.0606 38.7977C71.1363 38.9113 71.212 39.0248 71.2782 39.1384H71.2877Z" fill="#D90673"></path>
  <path d="M56.76 40.1984C56.8641 40.0659 56.9493 39.905 57.0818 39.8009C57.8105 39.2047 57.7632 38.457 57.4793 37.6904C57.2048 36.9427 56.8736 36.2045 56.5518 35.4663C56.4761 35.277 56.3814 35.1066 56.4193 34.747C58.0093 33.3652 59.1923 31.5954 59.7696 29.428C59.9305 30.3082 59.533 31.0748 59.4195 31.8888C59.1639 33.6964 58.7948 35.4852 58.492 37.2834C58.4446 37.5863 58.4257 37.9081 58.5014 38.2299H58.492C58.3784 38.3056 58.3311 38.4002 58.3405 38.5232C58.3121 39.0722 58.2364 39.6495 58.8327 39.9902C58.8327 40.0565 58.8516 40.1227 58.8611 40.1795C58.7096 40.2647 58.5677 40.3499 58.3879 40.454C57.8957 40.0849 57.3468 40.047 56.7695 40.189L56.76 40.1984Z" fill="#D90673"></path>
  <path d="M59.3911 40.3498C59.5898 40.3498 59.7886 40.3498 59.9116 40.1511C60.9243 40.2457 61.9086 40.0186 62.9118 39.9523L62.9496 40.0091C62.0979 40.5486 61.3312 41.1732 60.6498 41.9304C60.4605 42.1386 60.2523 42.3468 59.9779 42.4509C59.3532 42.3847 58.7096 42.7443 58.0945 42.4036C58.35 41.8641 58.8137 41.4856 59.1639 41.0123C59.3153 40.8041 59.5046 40.6338 59.3911 40.3498Z" fill="#D90673"></path>
  <path d="M55.8893 41.9213C56.3437 41.1261 57.0442 40.6906 57.9436 40.5581C58.1708 41.2018 57.9246 41.5805 57.0442 41.9402C57.0537 41.8361 57.12 41.7225 56.9969 41.6184C56.5614 41.4574 56.249 41.7888 55.8893 41.9213Z" fill="#85DAF3"></path>
  <path d="M55.8895 41.921C56.2492 41.779 56.5616 41.4572 56.9971 41.6181C57.1202 41.7222 57.0539 41.8358 57.0444 41.94C57.016 41.94 56.9876 41.94 56.9592 41.921C56.7699 41.9778 56.5427 42.0062 56.5995 42.2997H56.6089C56.448 42.2524 56.3533 42.2808 56.4291 42.4701H56.4669C56.0031 42.347 55.6717 42.8867 55.1984 42.7352C55.3309 42.3754 55.6528 42.1861 55.8895 41.9305V41.921Z" fill="#D90673"></path>
  <path d="M63.5557 41.0692C63.4989 41.2017 63.3001 41.2396 63.3096 41.4195C63.1865 41.4005 63.1203 41.4668 63.1203 41.5899L63.1297 41.5804C63.0066 41.5804 62.9404 41.6277 62.9404 41.7508H62.9498C62.6753 41.8549 62.467 41.6845 62.2588 41.5615C62.2304 41.1071 62.628 41.0692 62.9025 40.8893C63.1203 40.9461 63.3285 41.0124 63.5463 41.0692H63.5557Z" fill="#85DAF3"></path>
  <path d="M62.2778 41.5613C62.4955 41.6843 62.6943 41.8548 62.9689 41.7411C62.7227 42.1766 62.2967 42.0441 61.918 42.0914C61.918 42.0062 61.918 41.921 61.918 41.8358C62.0316 41.7506 62.1452 41.6654 62.2588 41.5707L62.2683 41.5613H62.2778Z" fill="#D90673"></path>
  <path d="M54.9712 41.7034C54.9902 41.4856 55.1132 41.3815 55.3215 41.3531C55.3215 41.5803 55.1984 41.7034 54.9712 41.7034Z" fill="#85DAF3"></path>
  <path d="M62.2683 41.5708C62.1547 41.656 62.0411 41.7412 61.9275 41.8358C61.9748 41.656 62.0506 41.5329 62.2683 41.5708Z" fill="#85DAF3"></path>
  <path d="M55.8609 40.7095V40.7379C55.8609 40.8704 55.8609 41.0124 55.681 41.0408C55.7378 40.9272 55.7946 40.8231 55.8515 40.7095H55.8609Z" fill="#85DAF3"></path>
  <path d="M55.5012 41.2017C55.5012 41.0786 55.577 41.0313 55.6811 41.0218C55.6811 41.1354 55.6148 41.2017 55.5012 41.2017Z" fill="#85DAF3"></path>
  <path d="M55.3309 41.372C55.3309 41.249 55.3877 41.1922 55.5107 41.1922C55.5107 41.3058 55.4539 41.372 55.3309 41.372Z" fill="#85DAF3"></path>
  <path d="M56.0312 43.9747C56.0691 43.9179 56.107 43.8327 56.1732 43.9368C56.1732 43.9368 56.1164 44.0031 56.088 44.0315C56.0691 44.0126 56.0502 43.9936 56.0218 43.9747H56.0312Z" fill="#85DAF3"></path>
  <path d="M54.8103 41.8926C54.8009 41.76 54.8577 41.7032 54.9902 41.7127C54.9902 41.8263 54.9334 41.8926 54.8103 41.8926Z" fill="#85DAF3"></path>
  <path d="M56.0976 44.0315C56.0408 44.0978 55.9934 44.1546 55.9366 44.2208C55.9082 44.1924 55.8798 44.164 55.8419 44.1262C55.9082 44.0694 55.965 44.022 56.0313 43.9652C56.0502 43.9842 56.0692 44.0031 56.0976 44.022V44.0315Z" fill="#85DAF3"></path>
  <path d="M54.64 42.0629C54.6211 41.9304 54.6873 41.8736 54.8199 41.8736C54.8199 41.9872 54.7631 42.0535 54.64 42.0629Z" fill="#85DAF3"></path>
  <path d="M57.3846 47.6942C57.5361 47.8078 57.697 47.9119 57.9053 48.0634C57.555 48.177 57.4036 48.035 57.3846 47.6942Z" fill="#EFE8C0"></path>
  <path d="M68.4579 44.0315C68.3822 44.0031 68.3065 43.9842 68.2118 43.9463C68.3633 43.757 68.439 43.8611 68.5242 43.9747L68.4674 44.0315H68.4579Z" fill="#EFE8C0"></path>
  <path d="M68.5147 43.9747C68.5147 43.9747 68.6094 44.0599 68.5999 44.0693C68.5336 44.164 68.4863 44.0977 68.4484 44.0315L68.5052 43.9747H68.5147Z" fill="#EFE8C0"></path>
  <path d="M67.9377 39.3372C67.6726 39.5929 67.417 39.8485 67.1519 40.0946C67.0288 40.0757 66.9152 40.0567 66.7922 40.0378C66.7543 39.6307 66.972 39.3467 67.275 39.1195C67.4833 39.2426 67.6915 39.3278 67.9377 39.3372Z" fill="#85DAF3"></path>
  <path d="M88.9765 17.0582C89.0049 16.7743 89.1185 16.5376 89.374 16.3862C91.8442 16.3294 94.2955 15.9698 96.7562 15.7805C98.4124 15.648 100.069 15.4682 101.734 15.3357C102.577 15.2694 102.747 15.4871 102.652 16.3389C102.634 16.4809 102.596 16.6228 102.577 16.7648C102.473 17.7018 102.151 18.6103 102.16 19.5662C102.132 19.6514 102.094 19.7366 102.066 19.8218C101.98 19.8785 101.886 19.9353 101.801 19.9921L101.81 19.9827C99.586 20.1814 97.3524 20.3423 95.1283 20.5978C94.2292 20.7019 93.2923 20.5884 92.4215 20.948C92.2796 21.0427 92.1376 21.1468 92.1092 21.3361C92.0051 21.9796 91.8915 22.6327 91.7969 23.2857C91.778 23.4277 91.8158 23.5696 91.9672 23.6453C92.0997 23.9671 92.3458 23.9009 92.6108 23.8725C93.9831 23.7305 95.3555 23.6075 96.7278 23.4845C97.0401 23.4561 97.3619 23.3898 97.6648 23.7305C97.7973 24.1186 97.6932 24.5728 97.6269 25.0271C97.5039 25.8127 97.2673 26.5793 97.2578 27.3838C97.2199 27.4595 97.1726 27.5352 97.1348 27.6109C95.6867 27.857 94.2292 27.9705 92.7717 28.0273C92.4973 27.9611 92.2133 27.8664 91.9767 28.1314C91.7496 28.2166 91.4846 28.122 91.2669 28.2639C91.2101 28.3018 91.1438 28.3396 91.0871 28.3775C90.5665 29.1725 90.6328 30.1 90.4908 30.9802C90.4624 31.1222 90.6233 31.2168 90.7747 31.2452H90.7653C90.964 31.5007 91.2385 31.3872 91.4846 31.3682C93.6235 31.1695 95.7624 30.9329 97.9108 30.753C98.5544 30.6963 99.2169 30.5543 99.8226 30.7436C100.116 31.018 100.04 31.2925 100.002 31.5859C99.8605 32.7216 99.5387 33.829 99.4724 34.9647C99.4346 35.0404 99.4062 35.1161 99.3683 35.1918C99.0466 35.3338 98.7058 35.3527 98.3651 35.3811C95.9423 35.6082 93.5194 35.8543 91.0965 36.0436C89.4971 36.1666 87.9165 36.4222 86.3076 36.4222C86.3738 36.1572 86.2129 35.9773 86.0899 35.7786C86.2697 34.6807 86.4306 33.5829 86.6199 32.485C86.8565 31.1032 87.1026 29.7309 87.3487 28.3491C87.6704 26.5225 87.9922 24.6959 88.314 22.8693C88.6169 21.1278 88.9292 19.3864 89.2226 17.645C89.2605 17.4273 89.2983 17.1718 89.0049 17.0582H88.9765Z" fill="#FDCC01"></path>
  <path d="M39.2131 34.5104C39.2131 34.5104 39.128 34.605 39.0901 34.6523C38.8062 34.7091 38.6453 34.87 38.6264 35.1634C38.598 35.2296 38.579 35.2959 38.5506 35.3716C38.4276 35.4568 38.2856 35.5325 38.2478 35.6934H38.2762C38.1153 35.6745 38.0017 35.7597 37.9165 35.8827H37.9355C37.8219 35.93 37.7083 35.9963 37.5947 36.053C36.9038 36.3748 36.2319 36.7534 35.4463 36.8102C35.3422 36.7629 35.2476 36.7818 35.1813 36.8859C33.667 37.1509 32.1433 37.255 30.6101 37.3307C30.2788 37.2739 29.9476 37.1698 29.6542 37.4443C29.3324 37.5768 28.9349 37.397 28.6415 37.662C28.5847 37.7093 28.5374 37.7472 28.4806 37.7945C28.1683 37.9175 28.2251 38.2298 28.1872 38.457C27.979 39.517 27.8181 40.5959 27.6383 41.6654C27.5436 41.8263 27.3827 41.902 27.2124 41.9115C26.247 41.9493 25.2911 42.1859 24.3163 42.1197C24.4015 41.8547 24.2027 41.6748 24.1176 41.4572C24.5908 38.6463 24.9977 35.8259 25.5561 33.0339C26.1902 29.8539 26.5972 26.6266 27.2218 23.4466C27.2692 23.21 27.3449 22.926 27.0326 22.7651C27.0704 22.4528 27.184 22.1973 27.5058 22.0742C28.1115 22.1216 28.7077 22.0743 29.304 22.0175C31.4903 21.8092 33.686 21.601 35.8722 21.3928C37.0553 21.2792 38.2005 21.478 39.3456 21.7335C39.3551 21.9039 39.516 21.9512 39.6296 22.0175C40.6896 22.661 41.2385 23.6359 41.3899 24.8284C41.5414 25.9357 41.513 27.0619 41.3048 28.1693C41.0776 29.428 40.8031 30.6868 40.5476 31.9361C40.311 32.1632 40.1785 32.4566 40.1974 32.7973C40.0271 32.8541 40.0081 32.9866 40.0176 33.1475C39.8567 33.2043 39.8283 33.3368 39.8378 33.4977C39.6769 33.5545 39.6485 33.687 39.658 33.8479V33.8289C39.4119 33.9898 39.2226 34.2075 39.2037 34.5293L39.2131 34.5104ZM37.6231 26.8916C37.4906 26.2007 37.0269 25.8789 36.3644 25.7843C36.1846 25.7559 36.0994 25.8505 36.0994 26.0209C35.929 26.0398 35.7587 26.0587 35.5883 26.0682C33.8847 26.2196 32.1812 26.3048 30.487 26.5698C30.2694 26.6928 30.1842 26.8821 30.1463 27.1187C29.8719 28.7087 29.5879 30.3082 29.3135 31.8982C29.2756 32.1348 29.1904 32.4093 29.4554 32.5986C29.5974 32.8541 29.8435 32.7973 30.0706 32.7784C31.301 32.6837 32.5313 32.5891 33.7617 32.4566C34.1213 32.4187 34.5188 32.5229 34.8312 32.2295H34.8217C35.0488 32.2673 35.2571 32.2105 35.4369 32.0496C36.2224 31.6332 36.7051 30.9707 36.9796 30.1473C37.803 29.1725 37.8881 28.0557 37.6326 26.8727L37.6231 26.8916Z" fill="#FDCC01"></path>
  <path d="M75.575 31.7468C76.4836 29.8634 77.3922 27.9705 78.3102 26.0871C79.6542 23.3236 81.0076 20.5694 82.3231 17.8059C82.6165 17.2001 82.9761 16.8405 83.6954 16.8594C84.1781 16.8689 84.6608 16.7743 85.1529 16.7175C85.4842 16.8216 85.8154 16.7553 86.1467 16.7269C86.6578 16.6891 86.9512 16.8689 86.9795 17.4084C86.8092 17.4651 86.8092 17.6071 86.8092 17.7585C86.6672 17.8248 86.6294 17.9573 86.6294 18.1087C86.4874 18.175 86.4495 18.3075 86.4495 18.4494C86.3076 18.5157 86.2697 18.6482 86.2697 18.7902C86.1278 18.8564 86.0899 18.9889 86.0899 19.1309C85.9479 19.1971 85.9101 19.3296 85.9101 19.4716C85.7587 19.5378 85.7303 19.6703 85.7303 19.8123C85.5599 19.888 85.522 20.0678 85.4463 20.2193C83.4588 24.1848 81.4808 28.1504 79.5027 32.1064C79.427 32.2579 79.3229 32.3998 79.3418 32.5891C79.1904 32.6554 79.1526 32.7784 79.162 32.9393C79.0106 33.0056 78.9727 33.1286 78.9822 33.28C78.8308 33.3368 78.7929 33.4693 78.8024 33.6207C78.6509 33.6775 78.6131 33.81 78.6226 33.9615C78.4617 34.0182 78.4333 34.1507 78.4427 34.3022C78.2818 34.359 78.2534 34.4915 78.2629 34.6429C78.102 34.6997 78.0736 34.8322 78.0831 34.9836C77.9222 35.0404 77.8938 35.1729 77.9033 35.3243C77.7329 35.3811 77.7234 35.5136 77.7234 35.665C77.5531 35.7218 77.5436 35.8638 77.5436 36.0152C77.3543 36.1004 77.3543 36.2707 77.3543 36.4411C77.2786 36.7724 77.0326 36.99 76.8243 37.2266C75.3952 37.4065 73.9661 37.5863 72.5275 37.5957C72.1774 36.8197 72.0165 35.9868 71.8745 35.1445C71.2877 31.6711 70.6725 28.1977 70.0668 24.7337C69.764 22.9828 69.4611 21.2319 69.1298 19.4905C69.0731 19.216 69.1488 18.8185 68.7229 18.7239C68.7513 18.7712 68.7418 18.8091 68.6945 18.8469C68.7513 18.5914 68.8081 18.3264 69.0731 18.1939C70.152 18.3359 71.2215 17.8627 72.272 18.0898C72.6127 18.3548 72.66 18.6955 72.7168 19.0362C73.3983 23.068 74.0891 27.0998 74.78 31.1222C74.8274 31.4061 74.8084 31.7089 75.1208 31.8604L75.1492 31.9266C75.1965 32.0307 75.2438 31.9929 75.2911 31.9266C75.3006 31.8888 75.329 31.8698 75.3574 31.8604C75.3952 31.8036 75.4236 31.7468 75.4615 31.69L75.575 31.7468Z" fill="#FDCC01"></path>
  <path d="M63.0254 19.4905C63.0538 19.1876 63.1768 18.9416 63.4513 18.7807C64.5396 18.9132 65.6091 18.4494 66.6597 18.6766C67.0193 18.9794 66.9341 19.3201 66.8679 19.6609C66.6029 21.0994 66.3473 22.538 66.0918 23.9766C65.363 28.122 64.6248 32.2768 63.9245 36.4316C63.8204 37.0279 63.5554 37.6147 63.6879 38.2393C63.6595 38.315 63.6216 38.3907 63.5932 38.4665C62.5332 38.7598 61.4354 38.7409 60.347 38.8261C60.5362 38.4191 59.9779 38.334 59.9968 38.0027C60.0914 37.9365 60.1577 37.8513 60.1861 37.7282C60.4132 36.4127 60.6404 35.0972 60.8675 33.7816C61.1041 32.4377 61.3407 31.0938 61.5679 29.7498C61.8896 27.8759 62.2114 26.002 62.5332 24.128C62.7793 22.7273 63.0348 21.336 63.2809 19.9353C63.3188 19.7271 63.2809 19.5284 63.0064 19.5L63.0254 19.4905Z" fill="#FDCC01"></path>
  <path d="M98.0339 13.263C97.8919 13.4996 97.7499 13.7267 97.608 13.9633C96.8414 14.3135 96.0274 14.3135 95.2135 14.304C95.2135 13.9065 94.9958 13.6983 94.6172 13.6321C94.9296 12.9033 95.2419 12.1651 95.5448 11.4364C95.6773 11.1146 95.8949 10.8496 96.2073 10.6792C96.9739 10.7739 97.7405 10.6981 98.4976 10.5846C99.0371 10.4994 99.3115 10.6887 99.4157 11.1903C99.2264 11.2376 99.2358 11.389 99.2358 11.5405V11.5215C99.1412 11.5499 99.0939 11.6256 99.0844 11.7297C98.8667 11.8244 98.7437 11.9948 98.7342 12.2408C98.4976 12.3355 98.3935 12.5058 98.384 12.7519C98.2799 12.7708 98.2326 12.8371 98.2326 12.9412C98.0907 12.9885 98.0339 13.1021 98.0433 13.2535L98.0339 13.263Z" fill="#FDCC01"></path>
  <path d="M63.6973 38.2204C63.5743 37.5957 63.8393 37.0089 63.9339 36.4127C64.6248 32.2578 65.3725 28.1125 66.1013 23.9576C66.3568 22.5191 66.6123 21.0805 66.8773 19.6419C66.9436 19.3012 67.0193 18.9605 66.6691 18.6576C65.6186 18.4399 64.5397 18.8942 63.4607 18.7617C63.9055 18.4494 64.4355 18.4873 64.9372 18.4399C65.3914 18.4021 65.8457 18.3737 66.3095 18.3074C66.9814 18.2033 67.2938 18.5251 67.1897 19.1971C66.9341 20.8155 66.6407 22.4244 66.3663 24.0333C65.6375 28.2734 64.9088 32.5134 64.1611 36.7534C64.0759 37.2455 64.1043 37.7945 63.7163 38.2014L63.6973 38.2204Z" fill="#EFE8C0"></path>
  <path d="M27.0136 22.7557C27.326 22.9071 27.2502 23.1911 27.2029 23.4371C26.5783 26.6171 26.1808 29.8445 25.5372 33.0245C24.9788 35.8165 24.5718 38.6368 24.0986 41.4477C23.9851 41.4288 23.8809 41.4099 23.7674 41.3909C23.7484 41.3058 23.7295 41.2301 23.7106 41.1449C24.1743 39.1858 24.4393 37.1983 24.7895 35.2107C25.5183 31.1127 26.2092 27.0052 26.9285 22.9071C26.9285 22.8503 26.9852 22.803 27.0042 22.7557H27.0136Z" fill="#ECE42D"></path>
  <path d="M44.8633 21.2036C45.0621 21.2225 45.1946 21.3171 45.1567 21.5348C44.8444 23.2762 44.5321 25.0082 44.2292 26.7496C43.9074 28.6047 43.5951 30.4597 43.2828 32.3147C43.0462 33.6965 42.819 35.0688 42.554 36.4411C42.3364 37.5863 42.1092 38.7409 42.024 39.905C41.901 39.8104 41.7969 39.6968 41.6171 39.7063C41.5414 39.4981 41.6549 39.2993 41.6549 39.0911C42.0619 37.4727 42.2701 35.8165 42.5635 34.1791C43.3017 30.0527 44.0021 25.9168 44.7214 21.7809C44.7592 21.5821 44.816 21.3928 44.8728 21.1941L44.8633 21.2036Z" fill="#ECE42D"></path>
  <path d="M88.9765 17.0582C89.2699 17.1717 89.232 17.4273 89.1942 17.645C88.9008 19.3864 88.5885 21.1278 88.2856 22.8693C87.9638 24.6959 87.642 26.5225 87.3203 28.3491C87.0742 29.7214 86.8281 31.1032 86.5915 32.485C86.4022 33.5829 86.2413 34.6807 86.0615 35.7786C85.9574 35.7502 85.8533 35.7313 85.7586 35.807C85.7586 34.5577 86.0994 33.3652 86.3076 32.1538C87.1499 27.2039 88.0206 22.2541 88.8819 17.3042C88.8913 17.2191 88.9481 17.1528 88.9765 17.0676V17.0582Z" fill="#ECE42D"></path>
  <path d="M63.0254 19.4905C63.3093 19.5189 63.3377 19.7177 63.2998 19.9259C63.0538 21.3266 62.7982 22.7178 62.5521 24.1186C62.2209 25.9925 61.9086 27.8664 61.5868 29.7404C61.3502 31.0843 61.1136 32.4282 60.8864 33.7722C60.6593 35.0877 60.4321 36.4032 60.205 37.7188C60.1861 37.8418 60.1198 37.927 60.0157 37.9932C59.9495 38.05 59.8832 38.0974 59.817 38.1541C59.9495 36.4884 60.328 34.87 60.6025 33.2327C61.3123 29.0211 62.06 24.8095 62.7982 20.5978C62.8645 20.2287 62.9496 19.8691 63.0348 19.5094L63.0254 19.4905Z" fill="#ECE42D"></path>
  <path d="M75.2343 31.9172C74.922 31.7657 74.9409 31.4629 74.8936 31.1789C74.2122 27.1471 73.5213 23.1154 72.8304 19.093C72.7736 18.7523 72.7263 18.4116 72.3856 18.1466C71.3445 17.9194 70.275 18.3927 69.1866 18.2507C69.5179 17.9668 69.9248 17.9857 70.3223 17.9478C70.8618 17.9005 71.4107 17.9005 71.9502 17.8059C72.6411 17.6828 72.9061 17.9005 73.0575 18.6671C73.2847 19.8218 73.455 20.9859 73.6538 22.1405C74.1554 25.0555 74.6475 27.9705 75.1491 30.8856C75.2059 31.2263 75.2627 31.567 75.2248 31.9077L75.2343 31.9172Z" fill="#EFE8C0"></path>
  <path d="M102.16 19.5662C102.16 18.6103 102.473 17.7017 102.577 16.7648C102.596 16.6228 102.634 16.4808 102.652 16.3389C102.747 15.4871 102.577 15.2694 101.734 15.3357C100.078 15.4682 98.4219 15.648 96.7562 15.7805C94.2955 15.9792 91.8442 16.3294 89.374 16.3862C89.7431 16.0266 90.2447 16.1307 90.6706 16.0833C92.8001 15.8562 94.9485 15.7142 97.0874 15.4966C98.6491 15.3357 100.23 15.2883 101.791 15.0517C102.813 14.8908 103.078 15.1937 102.889 16.2348C102.747 17.0487 102.605 17.8721 102.473 18.6955C102.425 19.0078 102.378 19.3201 102.151 19.5662H102.16Z" fill="#EFE8C0"></path>
  <path d="M99.4535 34.9457C99.5292 33.8005 99.851 32.6932 99.9835 31.567C100.021 31.2736 100.097 30.9991 99.8037 30.7246C99.198 30.5354 98.5449 30.6773 97.8919 30.7341C95.753 30.9139 93.6046 31.1505 91.4656 31.3493C91.229 31.3682 90.9451 31.4818 90.7464 31.2168C91.6076 30.9518 92.5067 30.9896 93.3774 30.9045C95.223 30.7341 97.078 30.5732 98.9235 30.3745C100.201 30.2325 100.428 30.4786 100.211 31.7184C100.069 32.5323 99.8983 33.3463 99.7564 34.1602C99.7091 34.4441 99.6617 34.728 99.4441 34.9363L99.4535 34.9457Z" fill="#EFE8C0"></path>
  <path d="M79.3797 32.6081C79.3608 32.4188 79.4649 32.2768 79.5406 32.1254C81.5186 28.1598 83.5061 24.1943 85.4842 20.2382C85.5599 20.0868 85.5978 19.907 85.7681 19.8218C85.8154 20.1057 85.6451 20.3139 85.5315 20.5411C83.6102 24.3836 81.689 28.2261 79.7583 32.0686C79.6636 32.2674 79.6163 32.5134 79.3797 32.6081Z" fill="#EFE8C0"></path>
  <path d="M40.5287 31.9171C40.7842 30.6584 41.0587 29.4091 41.2858 28.1503C41.4846 27.043 41.513 25.9262 41.371 24.8094C41.2101 23.6169 40.6612 22.6421 39.6106 21.9985C39.4971 21.9323 39.3362 21.885 39.3267 21.7146C39.7999 21.5821 40.0744 21.9228 40.3583 22.1784C41.2764 22.9828 41.6455 24.0712 41.7117 25.2448C41.8348 27.4784 41.3426 29.6268 40.6896 31.7373C40.6706 31.8036 40.5855 31.8604 40.5287 31.9171Z" fill="#EFE8C0"></path>
  <path d="M57.3373 32.608C57.3089 32.4188 57.4414 32.2957 57.5266 32.1443C59.0504 29.4848 59.5993 26.5982 59.5141 23.5602C59.4952 22.9828 59.1355 22.4812 59.1734 21.8944C59.6561 22.1027 59.5898 22.5948 59.6845 22.9828C60.0252 24.3552 59.7602 25.718 59.5141 27.0714C59.2396 28.633 58.8327 30.1473 58.0755 31.5575C57.8673 31.9361 57.6496 32.3052 57.3373 32.608Z" fill="#EFE8C0"></path>
  <path d="M39.3172 21.7146C38.1721 21.4496 37.0269 21.2603 35.8438 21.3739C33.6576 21.5821 31.4619 21.7903 29.2756 21.9985C28.6794 22.0553 28.0736 22.1026 27.4774 22.0553C27.9506 21.7146 28.5279 21.8092 29.0485 21.7619C31.4713 21.5158 33.9037 21.3171 36.336 21.1467C37.1972 21.0805 38.068 21.071 38.9008 21.3644C39.0712 21.4212 39.3172 21.4307 39.3172 21.7146Z" fill="#EFE8C0"></path>
  <path d="M56.5896 19.8218C56.0407 19.9353 55.5202 19.6703 54.9807 19.6703C53.8923 19.6703 52.8134 19.8312 51.7344 19.9164C49.5671 20.0773 47.4187 20.3896 45.2514 20.4748C45.4217 20.2382 45.6867 20.2193 45.9423 20.1909C48.0812 20.0016 50.2202 19.8407 52.3591 19.623C53.4191 19.5189 54.4696 19.4053 55.5296 19.4716C55.9082 19.4905 56.3246 19.4432 56.5991 19.8218H56.5896Z" fill="#EFE8C0"></path>
  <path d="M97.2483 27.3648C97.2483 26.5603 97.4944 25.7937 97.6174 25.0082C97.6837 24.5539 97.7973 24.109 97.6553 23.7115C97.3524 23.3708 97.0307 23.4465 96.7183 23.4655C95.346 23.5885 93.9737 23.7115 92.6014 23.8535C92.3269 23.8819 92.0808 23.9482 91.9578 23.6264C93.5856 23.6264 95.1946 23.3235 96.8224 23.2478C97.0212 23.2383 97.2199 23.2194 97.4187 23.2289C97.7973 23.2289 98.0717 23.4465 98.0149 23.8062C97.8257 25.0082 97.7973 26.248 97.2389 27.3648H97.2483Z" fill="#EFE8C0"></path>
  <path d="M72.4806 39.11C72.7646 39.11 73.0486 38.987 73.3232 39.1479L71.2215 40.8709C71.2215 40.8709 71.1458 40.8141 71.0984 40.7857C71.2972 40.5017 71.4771 40.2082 71.6948 39.9336C71.8937 39.6875 71.9883 39.4508 71.7611 39.1763C71.9978 39.1479 72.2439 39.129 72.4806 39.1006V39.11Z" fill="#D90673"></path>
  <path d="M45.5448 39.9145C45.5637 38.9302 45.8382 37.9743 46.0085 37.009C46.0842 36.5831 45.9612 36.0815 46.3966 35.7691C46.3208 36.9995 46.0369 38.192 45.8192 39.394C45.7814 39.5833 45.7057 39.7725 45.5448 39.9145Z" fill="#EFE8C0"></path>
  <path d="M27.7519 41.5992C27.7519 41.5992 27.6667 41.6465 27.6194 41.6465C27.7992 40.577 27.9601 39.5075 28.1683 38.4381C28.2156 38.2109 28.1494 37.8986 28.4617 37.7756C28.3197 39.0722 28.1399 40.3499 27.7424 41.5992H27.7519Z" fill="#EFE8C0"></path>
  <path d="M99.3976 11.2C99.2935 10.6888 99.0284 10.5089 98.4793 10.5941C97.722 10.7077 96.9552 10.774 96.1883 10.6888C97.1256 10.3858 98.1006 10.3858 99.0663 10.348C99.5869 10.329 99.6722 10.613 99.3976 11.2095V11.2Z" fill="#EFE8C0"></path>
  <path d="M90.7654 31.227C90.6139 31.1986 90.4529 31.104 90.4813 30.9619C90.6233 30.0815 90.5571 29.1538 91.0778 28.3586C91.0778 29.0212 90.8506 29.6461 90.7938 30.2993C90.7654 30.6117 90.6991 30.9241 90.7748 31.2365L90.7654 31.227Z" fill="#EFE8C0"></path>
  <path d="M92.4217 20.948C92.4217 21.09 92.4028 21.232 92.4028 21.374C92.0998 22.103 92.1566 22.8982 91.9673 23.6461C91.8158 23.5703 91.7779 23.4283 91.7969 23.2863C91.8915 22.6331 92.0052 21.9894 92.1093 21.3361C92.1377 21.1468 92.2797 21.0521 92.4217 20.948Z" fill="#EFE8C0"></path>
  <path d="M86.9706 17.4181C86.9517 16.8785 86.6582 16.6986 86.1375 16.7365C85.8062 16.7649 85.4748 16.8311 85.1435 16.727C85.7588 16.4335 86.3931 16.5093 87.0463 16.5755C87.1694 16.8974 87.3303 17.1814 86.9611 17.4181H86.9706Z" fill="#EFE8C0"></path>
  <path d="M95.2042 14.3042C94.6457 14.361 94.5226 14.0392 94.5699 13.5658L94.6078 13.6321C94.9865 13.6889 95.2042 13.8972 95.2042 14.3042Z" fill="#EFE8C0"></path>
  <path d="M60.3566 38.8074C60.2525 38.8074 60.1389 38.8074 60.0347 38.8074L60.0442 38.8263C59.9779 38.7601 59.9211 38.7033 59.8549 38.637L59.8643 38.6465C59.817 38.5234 59.7697 38.3908 59.7223 38.2678C59.7697 38.2394 59.7981 38.192 59.8075 38.1352C59.8738 38.0784 59.9401 38.0311 60.0063 37.9743C59.9874 38.3056 60.5459 38.4003 60.3566 38.7979V38.8074Z" fill="#EFE8C0"></path>
  <path d="M86.2793 36.4129L85.9291 36.3845L85.9385 36.3939C85.8628 36.2709 85.7871 36.1573 85.7113 36.0342C85.7303 35.949 85.7397 35.8733 85.7586 35.7881C85.8533 35.7029 85.9575 35.7313 86.0616 35.7597C86.1847 35.9585 86.3456 36.1478 86.2793 36.4034V36.4129Z" fill="#EFE8C0"></path>
  <path d="M40.1785 32.7786C40.1596 32.4378 40.2921 32.1444 40.5288 31.8982C40.5288 32.239 40.4814 32.5609 40.1785 32.7786Z" fill="#EFE8C0"></path>
  <path d="M39.2131 34.5105C39.2321 34.1887 39.4214 33.9709 39.677 33.81C39.6107 34.1035 39.4119 34.3023 39.2131 34.5105Z" fill="#EFE8C0"></path>
  <path d="M59.1735 21.8946C58.9179 21.8094 58.8232 21.62 58.8327 21.3739C59.2492 21.355 59.2397 21.6106 59.1735 21.8946Z" fill="#EFE8C0"></path>
  <path d="M56.7505 33.2612C56.7695 32.9677 56.9399 32.8068 57.2144 32.75C57.1292 32.9772 56.9683 33.1476 56.7505 33.2612Z" fill="#ECE42D"></path>
  <path d="M38.6169 35.1541C38.6358 34.8606 38.8062 34.6997 39.0808 34.6429C38.9956 34.8701 38.8346 35.0405 38.6169 35.1541Z" fill="#ECE42D"></path>
  <path d="M58.3028 20.6926C58.0188 20.7399 57.8673 20.5884 57.7916 20.3423C58.0945 20.2666 58.2555 20.3991 58.3028 20.6926Z" fill="#EFE8C0"></path>
  <path d="M98.384 12.7615C98.3935 12.5154 98.5071 12.345 98.7343 12.2503C98.6681 12.4491 98.545 12.629 98.384 12.7615Z" fill="#EFE8C0"></path>
  <path d="M98.7342 12.2504C98.7437 12.0043 98.8668 11.8339 99.0845 11.7298C99.0277 11.9475 98.9046 12.1179 98.7342 12.2504Z" fill="#EFE8C0"></path>
  <path d="M41.5603 31.7469C41.5982 31.6238 41.5224 31.4818 41.6455 31.3777C41.7402 31.5386 41.6834 31.6522 41.5508 31.7374L41.5603 31.7469Z" fill="#D90673"></path>
  <path d="M59.9589 28.775C60.0157 28.8602 60.0157 28.9359 59.9589 29.0117C59.8643 28.9265 59.8737 28.8507 59.9589 28.775Z" fill="#D90673"></path>
  <path d="M57.1008 19.9922C56.8926 20.0395 56.6843 20.0584 56.5802 19.8123C56.8074 19.7271 57.0062 19.6987 57.1008 19.9922Z" fill="#EFE8C0"></path>
  <path d="M99.2169 11.55C99.2169 11.3985 99.2169 11.2471 99.3968 11.1903C99.4252 11.3607 99.3494 11.4648 99.2169 11.55Z" fill="#EFE8C0"></path>
  <path d="M77.4679 36.498C77.4679 36.3276 77.4679 36.1477 77.6572 36.0625C77.6762 36.2424 77.6194 36.3939 77.4679 36.498Z" fill="#EFE8C0"></path>
  <path d="M77.6477 36.0626C77.6477 35.9111 77.6572 35.7691 77.8276 35.7123C77.8371 35.8638 77.8276 36.0058 77.6477 36.0626Z" fill="#EFE8C0"></path>
  <path d="M77.8181 35.7219C77.8181 35.5704 77.8276 35.4284 77.998 35.3716C78.0074 35.5231 77.998 35.6651 77.8181 35.7219Z" fill="#EFE8C0"></path>
  <path d="M57.7917 20.3424C57.6213 20.3897 57.4888 20.3518 57.4414 20.1625C57.6402 20.0584 57.7728 20.0962 57.7917 20.3424Z" fill="#EFE8C0"></path>
  <path d="M57.451 20.1625C57.29 20.2004 57.148 20.1909 57.1007 19.9921C57.29 19.9069 57.432 19.9069 57.451 20.1625Z" fill="#EFE8C0"></path>
  <path d="M77.9979 35.3717C77.9979 35.2203 78.0074 35.0783 78.1778 35.0215C78.1872 35.1729 78.1778 35.3149 77.9979 35.3717Z" fill="#EFE8C0"></path>
  <path d="M85.7681 19.8408C85.7681 19.6893 85.7965 19.5568 85.948 19.4905C85.9764 19.6514 85.948 19.7934 85.7681 19.8408Z" fill="#EFE8C0"></path>
  <path d="M78.1683 35.031C78.1683 34.8795 78.1872 34.747 78.3481 34.6713C78.3576 34.8227 78.3481 34.9742 78.1683 35.031Z" fill="#EFE8C0"></path>
  <path d="M78.3386 34.6808C78.3386 34.5293 78.3576 34.3968 78.5185 34.3211C78.528 34.4725 78.5185 34.6145 78.3386 34.6808Z" fill="#EFE8C0"></path>
  <path d="M85.9385 19.4906C85.9385 19.3391 85.9669 19.2066 86.1183 19.1403C86.1467 19.3013 86.1278 19.4433 85.9385 19.4906Z" fill="#EFE8C0"></path>
  <path d="M86.1088 19.1499C86.1088 18.9984 86.1372 18.8753 86.2887 18.7996C86.3171 18.9605 86.2982 19.1025 86.1088 19.1499Z" fill="#EFE8C0"></path>
  <path d="M86.2886 18.7997C86.2886 18.6482 86.317 18.5252 86.4685 18.4494C86.4969 18.6104 86.478 18.7524 86.2886 18.7997Z" fill="#EFE8C0"></path>
  <path d="M78.509 34.3401C78.509 34.1886 78.5279 34.0561 78.6889 33.9803C78.7078 34.1318 78.6889 34.2738 78.509 34.3401Z" fill="#EFE8C0"></path>
  <path d="M78.6888 33.9899C78.6888 33.8385 78.7077 33.7059 78.8687 33.6302C78.8781 33.7817 78.8687 33.9331 78.6888 33.9899Z" fill="#EFE8C0"></path>
  <path d="M86.459 18.459C86.459 18.3075 86.4874 18.1844 86.6389 18.1087C86.6673 18.2696 86.6484 18.4116 86.459 18.459Z" fill="#EFE8C0"></path>
  <path d="M86.6294 18.1088C86.6294 17.9573 86.6672 17.8343 86.8093 17.7585C86.8377 17.9195 86.8282 18.0615 86.6294 18.1088Z" fill="#EFE8C0"></path>
  <path d="M58.8327 21.374C58.6529 21.3266 58.5677 21.2225 58.6434 21.0332C58.8706 21.0521 58.9558 21.1468 58.8327 21.374Z" fill="#EFE8C0"></path>
  <path d="M86.7997 17.7681C86.7997 17.6166 86.7997 17.4746 86.9701 17.4084C87.0175 17.5788 86.9891 17.7113 86.7997 17.7681Z" fill="#EFE8C0"></path>
  <path d="M79.1999 32.9583C79.1999 32.8069 79.2283 32.6743 79.3797 32.5986C79.3987 32.7595 79.3797 32.8921 79.1999 32.9583Z" fill="#EFE8C0"></path>
  <path d="M98.0339 13.2631C98.0244 13.1116 98.0812 12.998 98.2232 12.9412C98.1948 13.0643 98.1475 13.1874 98.0339 13.2631Z" fill="#EFE8C0"></path>
  <path d="M39.6674 33.8195C39.6674 33.6681 39.6864 33.5261 39.8473 33.4598C39.8473 33.6113 39.8095 33.7438 39.6674 33.8195Z" fill="#EFE8C0"></path>
  <path d="M78.8592 33.6492C78.8592 33.4977 78.8876 33.3652 79.039 33.2895C79.058 33.4409 79.039 33.5924 78.8592 33.6492Z" fill="#EFE8C0"></path>
  <path d="M39.8378 33.4789C39.8378 33.3274 39.8567 33.1948 40.0177 33.1191C40.0366 33.28 40.0177 33.4126 39.8378 33.4789Z" fill="#EFE8C0"></path>
  <path d="M79.0295 33.299C79.0295 33.1475 79.0579 33.015 79.2094 32.9393C79.2189 33.0907 79.2094 33.2422 79.0295 33.299Z" fill="#EFE8C0"></path>
  <path d="M40.0081 33.1287C39.9987 32.9772 40.0081 32.8352 40.188 32.7689C40.1975 32.9204 40.188 33.0719 40.0081 33.1287Z" fill="#EFE8C0"></path>
  <path d="M99.0749 11.7393C99.0749 11.6351 99.1223 11.5594 99.2359 11.531C99.1791 11.5973 99.1317 11.6635 99.0749 11.7393Z" fill="#EFE8C0"></path>
  <path d="M75.4047 31.9834C75.3574 32.0402 75.3006 32.0781 75.2627 31.9834C75.31 31.955 75.3574 31.9645 75.4047 31.9834Z" fill="#C4A60F"></path>
  <path d="M75.5751 31.7468C75.5372 31.8036 75.5088 31.8604 75.4709 31.9172C75.4425 31.8225 75.4993 31.7752 75.5751 31.7468Z" fill="#C4A60F"></path>
  <path d="M98.2232 12.9507C98.2232 12.8466 98.2705 12.7803 98.3746 12.7614C98.3273 12.8276 98.2705 12.8844 98.2232 12.9507Z" fill="#EFE8C0"></path>
  <path d="M58.6434 21.0332C58.492 21.0711 58.4446 21.0048 58.473 20.8628C58.6245 20.825 58.6718 20.8912 58.6434 21.0332Z" fill="#EFE8C0"></path>
  <path d="M44.9864 20.8439C44.958 20.9007 44.9296 20.9575 44.9107 21.0143C44.8823 20.9385 44.9107 20.8817 44.9864 20.8439Z" fill="#ECE42D"></path>
  <path d="M58.4731 20.8629C58.3311 20.8913 58.2648 20.8439 58.3027 20.6925C58.4447 20.6546 58.5015 20.7114 58.4731 20.8629Z" fill="#EFE8C0"></path>
  <path d="M73.3131 39.1574C73.3604 38.9586 73.493 38.987 73.635 39.0154C73.5687 39.1479 73.4456 39.1858 73.3131 39.1574Z" fill="#D90673"></path>
  <path d="M48.28 25.0555C48.3367 25.0177 48.3841 24.9798 48.4409 24.942C48.5071 24.9988 48.5828 25.1218 48.6207 25.1029C49.3494 24.8947 50.0971 25.0177 50.8259 24.9136C51.8102 24.7811 52.8039 24.6959 53.7977 24.658C54.4602 24.6297 55.0375 24.8189 55.2268 25.6045C55.2836 25.8505 55.3498 25.5382 55.4255 25.5666C55.6337 25.8979 55.4918 26.2575 55.4823 26.5982C55.3214 27.1756 55.1984 27.7529 54.9996 28.3113C54.6873 29.2104 54.1384 29.9013 53.1352 30.1C51.2328 30.365 49.3116 30.4786 47.3998 30.6679L47.3619 30.6206C47.6648 28.7656 47.9771 26.9011 48.28 25.0461V25.0555ZM48.9993 26.1913C48.545 27.3364 48.4882 28.5479 48.2894 29.8256C49.8984 29.8729 51.3937 29.6079 52.8796 29.4091C53.2866 29.3523 53.5232 29.0306 53.6178 28.652C53.7787 27.9611 54.0532 27.2891 54.0248 26.5509C54.3939 26.4373 54.6211 26.2102 54.6211 25.7938C54.3087 25.7654 54.233 26.0493 54.0248 26.1061C53.8639 26.0682 53.7219 26.0114 53.6273 25.86C53.6557 25.6423 54.0059 25.5572 53.8544 25.2164C52.2739 25.2164 50.6934 25.5382 49.1507 25.5855C48.933 25.7938 48.9993 26.002 48.9993 26.2007V26.1913Z" fill="#7A4896"></path>
  <path d="M47.3998 30.6773C49.3116 30.488 51.2328 30.3745 53.1351 30.1095C53.0121 30.4596 52.6525 30.4123 52.4159 30.4407C50.9205 30.6111 49.4251 30.7341 47.9203 30.8666C47.7216 30.8855 47.5133 30.895 47.3998 30.6773Z" fill="#EFE8C0"></path>
  <path d="M48.2799 25.0555C47.9771 26.9105 47.6648 28.775 47.3619 30.63C47.2483 30.5354 47.1537 30.4312 47.1821 30.2704C47.4566 28.6709 47.731 27.0619 48.0149 25.4625C48.0433 25.311 48.0717 25.1123 48.2799 25.0555Z" fill="#EFE8C0"></path>
  <path d="M55.4258 25.567C55.369 24.9232 54.9998 24.5635 54.375 24.4499C54.3939 24.412 54.3939 24.3647 54.375 24.3268C54.5359 24.3079 54.6969 24.2889 54.8483 24.27C55.8234 24.838 56.0412 25.567 55.5678 26.6935H55.5205C55.5015 26.6746 55.5015 26.6462 55.4826 26.6178C55.4826 26.2675 55.6341 25.9172 55.4258 25.5859V25.567Z" fill="#EFE8C0"></path>
  <path d="M54.8584 24.27C54.6974 24.289 54.5365 24.3079 54.385 24.3268C53.9117 24.3742 53.4194 24.1754 52.965 24.4499C52.7283 24.5067 52.4916 24.5351 52.255 24.4878C52.2834 24.412 52.3212 24.2606 52.3496 24.2606C53.1922 24.2606 54.0348 23.7115 54.8678 24.27H54.8584Z" fill="#ECE42D"></path>
  <path d="M41.7212 40.3784C41.6833 40.1607 41.5224 39.9619 41.6171 39.7157C41.7875 39.7063 41.9011 39.8199 42.0242 39.9145C42.1283 40.0849 42.2987 40.2364 42.1756 40.4731C42.0242 40.4447 41.8727 40.4163 41.7212 40.3784Z" fill="#EFE8C0"></path>
  <path d="M51.1099 35.154C51.0247 35.154 50.93 35.154 50.8448 35.154C50.8448 35.0594 50.7312 34.9363 50.8732 34.87C51.0057 34.8132 51.1477 34.8416 51.2329 34.9742C51.2235 35.012 51.1951 35.0404 51.1572 35.0499C51.1383 35.0878 51.1193 35.1162 51.1193 35.154H51.1099Z" fill="#ECE42D"></path>
  <path d="M53.1164 38.2866C53.2205 38.5422 53.4477 38.6748 53.656 38.8262C53.6181 39.0913 53.3625 39.2144 53.2394 39.4132C52.6998 39.5079 52.6051 39.4416 52.6051 38.902C52.6714 38.8168 52.7282 38.7316 52.7945 38.6464C52.9081 38.5233 53.0122 38.4002 53.1258 38.2772L53.1164 38.2866Z" fill="#85DAF3"></path>
  <path d="M51.9428 39.4322C51.46 38.921 51.3275 38.4193 51.3843 37.8323C52.0375 37.9933 52.2173 38.4761 51.9428 39.4322Z" fill="#7A4896"></path>
  <path d="M52.785 38.6463C52.7188 38.7315 52.662 38.8167 52.5957 38.9019C52.5105 38.8261 52.5105 38.7409 52.5768 38.6557C52.643 38.6557 52.7093 38.6557 52.785 38.6557V38.6463Z" fill="#EFE8C0"></path>
  <path d="M53.0975 37.9273C52.8514 37.9273 52.7946 38.1734 52.6431 38.2965C52.5106 37.9083 52.378 37.5297 52.236 37.1415C52.5579 37.0942 52.8514 36.8007 53.2111 36.9995C53.3721 37.3498 53.0407 37.6149 53.0881 37.9273H53.0975Z" fill="#FDCC01"></path>
  <path d="M51.1098 35.154C51.1098 35.154 51.1287 35.0782 51.1477 35.0498C51.1666 35.0877 51.1477 35.1256 51.1193 35.154H51.1003H51.1098Z" fill="#FDCC01"></path>
  <path d="M67.9375 39.3376C67.6914 39.3376 67.4831 39.243 67.2748 39.1199C67.4831 38.6466 67.9565 38.391 68.1931 37.9365C68.5055 37.7188 68.8179 37.3591 69.1304 37.9365C68.9884 38.4099 68.5718 38.675 68.3446 39.0536C68.2121 39.1483 68.0701 39.243 67.9375 39.3376Z" fill="#EFE8C0"></path>
  <path d="M63.1389 41.5897C63.1389 41.4667 63.1957 41.4004 63.3283 41.4099C63.3756 41.5897 63.2904 41.6181 63.1389 41.5897Z" fill="#D90673"></path>
  <path d="M62.9591 41.7506C62.9591 41.6181 63.0254 41.5708 63.1484 41.5802C63.1768 41.7412 63.0822 41.7601 62.9591 41.7506Z" fill="#D90673"></path>
  <path d="M58.492 38.2393C58.5109 38.3718 58.4447 38.4665 58.3405 38.5328C58.3405 38.4002 58.3784 38.3056 58.492 38.2393Z" fill="#7A4896"></path>
  <path d="M92.753 28.0084C92.5069 28.1978 92.2418 28.1599 91.9578 28.1126C92.1945 27.8475 92.469 27.9422 92.753 28.0084Z" fill="#C4A60F"></path>
  <path d="M36.9701 30.1663C36.6956 30.9897 36.2129 31.6522 35.4274 32.0686C35.2097 32.0686 34.9542 31.9834 34.8122 32.2484H34.8217C34.5945 32.1538 34.3674 32.2105 34.1403 32.2295C32.5786 32.3525 31.017 32.485 29.446 32.6081C29.569 31.7941 29.6636 30.9707 29.834 30.1568C30.0611 29.0684 30.1274 27.9516 30.4776 26.8821C30.6101 26.8254 30.7426 26.7307 30.8751 26.7212C32.4745 26.6361 34.0456 26.3332 35.6545 26.3521C36.9322 26.3616 37.3297 26.8159 37.2351 28.1788C37.2919 28.8602 37.0269 29.5038 36.9417 30.1663H36.9701ZM35.9101 28.2355C36.2981 28.1409 36.3928 27.838 36.4969 27.5162C36.1656 27.4216 36.0994 27.7529 35.8912 27.7907C35.7965 27.6961 35.6924 27.6014 35.5978 27.5068C35.6167 27.3175 35.8722 27.1945 35.7019 26.9105C34.1876 26.9105 32.6638 27.1093 31.1969 27.2796C31.017 27.4879 31.0549 27.6582 31.0644 27.8286C30.7426 29.1441 30.5154 30.4691 30.364 31.8888C32.0581 31.5954 33.7049 31.7373 35.2287 31.2263C35.7019 30.2325 35.7681 29.2293 35.9101 28.245V28.2355Z" fill="#7A4896"></path>
  <path d="M30.4965 26.5793C30.4965 26.6834 30.4965 26.778 30.506 26.8821C30.1463 27.9421 30.0895 29.0684 29.8624 30.1568C29.692 30.9707 29.5974 31.7941 29.4744 32.6175C29.1999 32.4282 29.2945 32.1538 29.3324 31.9172C29.5974 30.3272 29.8908 28.7277 30.1652 27.1377C30.2031 26.8916 30.2883 26.7023 30.506 26.5887L30.4965 26.5793Z" fill="#EFE8C0"></path>
  <path d="M29.4649 32.608C31.0265 32.485 32.5881 32.3525 34.1592 32.2295C34.3863 32.2105 34.6135 32.1538 34.8406 32.2484C34.5283 32.5418 34.1308 32.4282 33.7712 32.4755C32.5408 32.6175 31.3104 32.7027 30.0801 32.7973C29.8624 32.8163 29.6069 32.873 29.4649 32.608Z" fill="#EFE8C0"></path>
  <path d="M37.2636 28.1791C37.3014 28.0939 37.3488 28.0087 37.3867 27.9235C37.6896 27.63 37.5003 27.2324 37.6233 26.9011C37.8789 28.0845 37.7937 29.211 36.9701 30.1766C37.0553 29.514 37.3109 28.8702 37.2636 28.1886V28.1791Z" fill="#ECE42D"></path>
  <path d="M37.6235 26.8919C37.5005 27.2233 37.6898 27.6303 37.3869 27.9143C37.3869 27.8007 37.3679 27.6871 37.3679 27.583C37.3206 26.5322 37.1313 26.2955 36.0994 26.021C36.0994 25.8506 36.194 25.7559 36.3644 25.7843C37.0271 25.879 37.491 26.2008 37.6235 26.8919Z" fill="#EFE8C0"></path>
  <path d="M23.9473 42.1009C23.8336 41.8737 23.6538 41.6654 23.7674 41.3814C23.881 41.4004 23.9851 41.4193 24.0987 41.4382C24.1839 41.6465 24.3922 41.8264 24.2975 42.1009C24.1745 42.1009 24.0609 42.1009 23.9378 42.1009H23.9473Z" fill="#EFE8C0"></path>
  <path d="M30.6009 37.3213C30.2979 37.5201 29.9761 37.4917 29.6447 37.4349C29.9382 37.1603 30.2695 37.2739 30.6009 37.3213Z" fill="#C4A60F"></path>
  <path d="M34.8122 32.2485C34.9542 31.9834 35.2004 32.0686 35.4276 32.0686C35.2477 32.2201 35.0394 32.2769 34.8122 32.2485Z" fill="#EFE8C0"></path>
  <path d="M35.4275 36.8007C35.3612 36.8954 35.276 36.9238 35.1624 36.8765C35.2287 36.7818 35.3234 36.7629 35.4275 36.8007Z" fill="#C4A60F"></path>
  <path d="M72.6411 37.6525C72.0449 37.643 71.9786 37.1793 71.9124 36.7628C71.5622 34.8132 71.2309 32.8635 70.8808 30.9044C70.1993 27.0335 69.5179 23.1626 68.8365 19.2823C68.8081 19.1119 68.7797 18.9415 68.8365 18.7712C69.2624 18.8753 69.1866 19.2633 69.2434 19.5378C69.5747 21.2792 69.8775 23.0301 70.1804 24.781C70.7861 28.2544 71.3918 31.7184 71.9881 35.1918C72.13 36.0341 72.2909 36.8575 72.6411 37.643V37.6525Z" fill="#EFE8C0"></path>
  <path d="M53.6273 25.8505C53.7125 26.002 53.8639 26.0588 54.0248 26.0966C54.0248 26.2481 54.0248 26.39 54.0248 26.5414C54.0532 27.2702 53.7787 27.9422 53.6178 28.6425C53.5326 29.0211 53.296 29.3523 52.8796 29.3997C51.3842 29.5984 49.8983 29.8634 48.2894 29.8161C48.4976 28.5479 48.545 27.327 48.9992 26.1818C50.5419 26.0777 52.0751 25.8222 53.6273 25.8411V25.8505ZM49.2453 28.3491C49.1601 28.6615 48.9803 28.8886 49.198 29.1725C49.9646 29.1347 50.7312 29.0684 51.4694 28.8886C51.5641 28.6615 51.7723 28.4816 51.5546 28.1882C50.8164 28.1409 50.0687 28.3397 49.2548 28.3491H49.2453Z" fill="#D90673"></path>
  <path d="M52.9553 24.4404C53.4097 24.1658 53.902 24.3646 54.3754 24.3173C54.3943 24.3552 54.3943 24.4025 54.3754 24.4404C53.902 24.5066 53.4287 24.5161 52.9553 24.4404Z" fill="#C4A60F"></path>
  <path d="M35.5978 27.5068C35.6924 27.6014 35.7965 27.6961 35.8912 27.7907C35.8912 27.9421 35.9006 28.0936 35.9101 28.2355C35.7681 29.2198 35.7019 30.223 35.2287 31.2168C33.7144 31.7279 32.0581 31.5859 30.364 31.8793C30.5154 30.4691 30.7426 29.1346 31.0644 27.8191C32.5786 27.6961 34.0835 27.4973 35.5978 27.4973V27.5068ZM31.2442 31.1789C31.9729 30.9802 32.6922 31.1032 33.3642 30.8666C33.4399 30.5259 33.6103 30.242 33.5629 29.8918C32.8153 29.7782 32.1054 29.9296 31.3956 30.0527C31.2063 30.3934 31.1401 30.7152 31.2442 31.1789Z" fill="#D90673"></path>
</svg>
