<?xml version="1.0" encoding="UTF-8"?>
<svg xmlns="http://www.w3.org/2000/svg" width="125" height="60" viewBox="0 0 125 60" fill="none">
  <rect width="125" height="60.0001" rx="6" fill="#197CB0"></rect>
  <path d="M56.65 37.39C56.47 36.41 56.74 35.45 56.8 34.47C56.82 34.3 56.83 34.12 56.85 33.95C56.85 33.77 56.85 33.6 56.84 33.42C56.87 33.31 56.89 33.2 56.92 33.09C57.21 32.62 57.14 32.1 57.11 31.59C56.73 30.49 55.9 31.17 55.25 31.11C54.68 31.05 54.39 31.18 54.47 31.8C54.4 32.15 54.33 32.51 54.27 32.86C54.07 33.76 53.87 34.65 53.68 35.55C53.32 36.35 52.76 36.74 51.84 36.62C51.23 36.54 50.61 36.6 49.99 36.6C49.95 36.51 49.95 36.43 49.99 36.35C50.19 36.18 50.26 35.99 50.17 35.74C50.19 35.4 50.21 35.06 50.22 34.71C50.6 34.15 50.52 33.51 50.54 32.89C50.78 32.58 50.8 32.26 50.59 31.84C49.87 32.06 48.62 31.16 48.63 32.88C48.35 33.57 48.4 34.3 48.31 35.02C48.04 35.22 48.09 35.54 48.03 35.81C47.34 36.34 46.22 35.64 45.68 36.63C43.57 36.13 41.32 36.79 39.28 35.82C39.28 35.73 39.28 35.64 39.28 35.55C39.8 34.94 40.68 35.62 41.22 35C41.28 34.57 41.08 34.27 40.67 34.01C40.06 34.25 39.42 34.5 38.78 34.75C38.74 34.11 38.63 33.47 38.97 32.87C39.48 32.84 40.02 33.03 40.45 32.72C40.9 32.02 40.13 30.9 41.14 30.59C42.02 30.32 42.23 29.83 42.21 29.06C42.2 28.63 42.33 28.28 42.74 28.09C42.56 29.28 42.58 30.51 41.91 31.6C41.33 32.56 41.39 33.51 42.35 34.38C42.76 34.04 43.36 34.43 43.8 34.01C44.74 34.01 44.96 33.4 44.93 32.61C45.27 32.21 45.05 31.74 45.09 31.31C45.09 31.21 45.1 31.11 45.11 31.01C45.14 30.75 45.18 30.48 45.21 30.22C45.54 29.82 45.38 29.34 45.4 28.89C45.18 27.85 44.58 27.89 43.84 28.35C43.85 28.17 43.86 28 43.87 27.82C44.06 27.67 44.09 27.47 44.06 27.25C44.08 27.09 44.09 26.92 44.11 26.76C44.67 26.71 44.39 26.42 44.28 26.17C44.93 26.19 45.59 26.42 46.2 26C47.12 25.97 48.05 25.93 48.97 25.9C49.08 25.9 49.2 25.9 49.31 25.9L49.62 26.06C49.56 26.89 49.49 27.72 49.43 28.55C50.19 28.92 50.82 28.6 51.56 28.64C51.76 27.68 51.94 26.78 52.12 25.89C52.38 25.42 52.35 24.9 52.33 24.39C52.35 24.29 52.37 24.19 52.39 24.08C52.47 23.91 52.55 23.73 52.62 23.56C53.01 23.15 52.86 22.67 52.81 22.19C52.29 22.03 51.79 21.84 51.3 22.21C51.39 21.47 51.49 20.73 51.59 19.94C52.64 19.34 53.84 19.51 54.95 19.38C56.7 19.18 58.48 19.21 60.25 19.17C61.31 19.14 61.71 19.64 61.66 20.74C61.4 26.05 60.78 31.32 60.29 36.61C60.1 36.75 60.04 36.93 60.11 37.16C58.96 37.47 57.79 37.33 56.63 37.4L56.65 37.39ZM58.16 23.58L58.18 23C58.21 22.83 58.24 22.67 58.27 22.5C58.5 21.92 58.22 21.66 57.68 21.67C57.11 21.69 56.37 21.53 56.38 22.5C56.04 24.18 55.68 25.86 55.35 27.55C55.28 27.91 55.09 28.39 55.78 28.38C56.4 28.6 56.99 28.34 57.64 28.32C57.78 27.12 57.91 25.99 58.04 24.86C58.08 24.43 58.12 24.01 58.16 23.58Z" fill="#FDFEFB"></path>
  <path d="M81.91 36.34C81.81 33.72 82.48 31.18 82.74 28.6C83.04 25.54 83.51 22.49 83.92 19.39C85.65 19.2 87.3 19.59 89.19 19.5C89.54 23.47 89.88 27.37 90.22 31.26C90.11 31.62 90.15 31.96 90.33 32.32C90.81 32 90.75 31.63 90.68 31.26C91.08 27.45 91.48 23.64 91.89 19.74C93.06 19.45 94.23 19.62 95.47 19.52V21.17C94.76 23.18 94.82 25.31 94.55 27.38C94.17 30.28 93.81 33.18 93.68 36.1C93.71 36.19 93.7 36.27 93.66 36.35H88.03C87.53 35.34 88.17 34.41 87.47 33.71C87.49 32.63 87.76 31.53 87.26 30.48C87.15 29.25 87.05 28.03 86.94 26.8C86.94 26.43 86.94 26.06 86.94 25.69C86.94 25.16 86.94 24.63 86.93 24.1C86.93 23.92 86.93 23.75 86.93 23.57C86.93 23.44 87.03 23.25 86.79 23.24C86.77 23.24 86.73 23.45 86.7 23.56C86.68 23.73 86.66 23.89 86.64 24.06C86.36 24.49 86.42 24.97 86.47 25.45C86.28 27.04 86.08 28.63 85.89 30.22C85.48 30.6 85.69 31.1 85.64 31.56L85.57 33.13C85.51 33.32 85.45 33.51 85.39 33.69C85.36 34.21 85.34 34.73 85.31 35.26C85.08 35.49 85.11 35.78 85.09 36.07C84.03 36.19 82.99 36.45 81.91 36.35V36.34Z" fill="#FEFEFD"></path>
  <path d="M95.28 35.54C95.2 32.44 95.9 29.41 96.14 26.33C96.3 24.22 96.64 22.13 96.91 19.94C99.72 19.62 102.57 19.42 105.43 19.56C106.05 19.59 106.67 19.79 106.71 20.6C106.73 23.03 106.47 25.45 106.13 27.85C106 28.79 105.46 29.82 105.56 30.62C105.75 32.16 105.17 33.6 105.34 35.1C105.43 35.95 104.97 36.39 104.05 36.34C102.69 36.28 101.35 36.48 100.04 36.85C98.3 36.96 96.68 36.65 95.29 35.52L95.28 35.54ZM103.02 23.84L102.99 23.81C103 23.72 103.02 23.63 103.03 23.55C103.24 23.32 103.21 23.05 103.17 22.78L103.2 22.26C103.2 21.92 103.31 21.55 102.87 21.17C102.33 21.17 101.68 21.18 101.02 21.17C100.42 21.16 100.25 21.47 100.32 22.01C100.29 22.17 100.26 22.34 100.23 22.5C99.93 23.28 99.97 24.09 100.06 24.9C99.99 25.16 99.87 25.42 100.03 25.69C99.74 28.4 99.45 31.11 99.15 33.9C100.23 34.01 101.13 34.11 102.08 33.66C102.36 30.72 102.64 27.78 102.91 24.84C102.95 24.6 102.99 24.36 103.03 24.12C103.06 24.09 103.12 24.05 103.11 24.04C103.09 23.97 103.05 23.92 103.01 23.85L103.02 23.84Z" fill="#FDFDFB"></path>
  <path d="M28.14 35.28C27.98 33.06 28.47 30.88 28.65 28.69C28.9 25.8 29.24 22.91 29.55 19.96C32.09 19.63 34.59 19.44 37.11 19.55C38.07 19.59 38.58 20.08 38.57 21.05C38.57 21.8 38.52 22.55 38.49 23.3C37.97 23.91 37.98 24.67 37.93 25.4C37.7 25.58 37.45 25.03 37.26 25.46C37.42 26.04 37.52 26.62 37.46 27.21C36.41 27.55 35.5 26.89 34.53 27.04C34.53 26.77 34.54 26.51 34.55 26.24C34.82 26.01 34.79 25.72 34.75 25.42V25.44C34.94 25.38 34.96 25.3 34.78 25.19C34.78 25.1 34.78 25.02 34.77 24.93C35.54 24.41 35.46 23.76 35.06 23.06C34.99 22.47 35.22 21.84 34.78 21.23C34.14 21.45 33.08 20.52 32.93 22.02C32.93 22.44 32.93 22.87 32.93 23.29C32.65 24.26 32.62 25.24 32.67 26.24C32.59 27.1 32.52 27.95 32.44 28.82C33.14 29.03 33.78 28.91 34.43 28.88C35.13 29.26 36.18 28.36 36.68 29.48C36.58 30.27 36.47 31.07 36.37 31.86C35.66 32.21 34.88 31.99 34.15 32.09C33.38 32.2 32.55 31.8 31.85 32.38C31.04 32.86 31.38 33.61 31.39 34.14C32.19 35.3 33.29 34.16 34.14 34.67C33.61 36.29 33.14 36.74 31.68 36.31C30.66 36.01 29.65 36.03 28.65 35.86C28.66 35.52 28.5 35.33 28.16 35.31L28.14 35.28Z" fill="#FDFEFC"></path>
  <path d="M18.03 37.14C18.03 35.37 18.03 33.59 18.03 31.82C19.68 31.77 19.81 31.61 19.86 29.98C19.89 29.06 19.3 27.71 21.6 27.95C20.44 26.97 20.97 26.17 21.13 25.34C21.28 24.53 21.34 23.67 20.54 23.04C20.01 22.63 20.05 22.06 20.23 21.47C20.4 20.93 20.68 20.41 20.65 19.82C20.98 19.66 21.31 19.57 21.61 19.67C21.61 22.16 21.65 24.63 21.6 27.1C21.55 29.13 21.41 31.16 21.27 33.19C21.23 33.85 21.42 34.12 22.15 33.9C22.97 29.22 23.79 24.51 24.61 19.8C25.9 19.73 27.04 19.66 28.23 19.59C28.53 20.39 28.31 21.18 28.33 21.95C28 22.33 27.91 22.8 27.81 23.28C27.02 27.1 26.23 30.92 25.44 34.75C25.08 35.04 25.17 35.44 25.19 35.82C25.19 35.9 25.18 35.99 25.16 36.07C24.73 36.3 24.33 36.62 23.82 36.6C21.87 36.52 19.96 36.95 18.04 37.14H18.03Z" fill="#FDFEFA"></path>
  <path d="M72.36 36.6C72.55 35.76 72.74 34.92 72.94 34.05C73.61 34 74.22 33.95 74.94 33.9C75.18 31.16 75.7 28.46 75.72 25.7C75.73 25.61 75.74 25.52 75.76 25.42L75.81 25.41C76.22 24.76 75.94 24.03 76.05 23.34C76.05 22.89 75.95 22.6 75.38 22.68C74.92 22.75 74.44 22.7 73.97 22.71L73.85 22.01C73.98 21.2 74.1 20.39 74.23 19.58C76.87 19.58 79.51 19.59 82.15 19.6C82.15 20.2 82.14 20.81 82.13 21.41C81.91 22.21 81.34 22.59 80.56 22.71C80.28 22.75 79.92 22.67 79.82 23.08C79.82 23.33 79.8 23.59 79.79 23.84C79.71 24.01 79.62 24.19 79.54 24.36C79.45 24.5 79.3 24.64 79.28 24.8C79.08 26.48 79.03 28.17 78.78 29.85C78.59 31.12 78.59 32.45 78.45 33.78C78.99 33.95 79.39 34.1 79.79 33.72C80.15 33.85 80.87 33.21 80.82 34.21C80.5 34.54 80.58 34.93 80.63 35.32C80.61 35.47 80.58 35.63 80.56 35.78C80.27 36.13 79.97 36.37 79.46 36.35C77.09 36.25 74.74 36.79 72.37 36.59L72.36 36.6ZM78.82 24.96C78.93 24.97 78.95 24.92 78.88 24.82C78.88 24.82 78.82 24.84 78.78 24.85L78.81 24.96H78.82Z" fill="#FDFEFD"></path>
  <path d="M62.78 27.56C62.72 24.81 63.41 22.15 63.69 19.44C66.17 19.05 68.55 18.95 70.93 19.03C72.02 19.07 72.67 19.58 72.63 20.76C72.6 21.69 72.59 22.62 72.57 23.55C72.34 23.8 72.38 24.12 72.34 24.42C71.86 28.14 72.31 27.45 68.99 27.56C68.77 27.56 68.55 27.58 68.33 27.59C68.17 26.66 68.37 25.74 68.41 24.81C68.77 24.34 68.48 23.8 68.58 23.31C68.61 23.12 68.64 22.94 68.67 22.75C69.02 22.05 69 21.34 68.27 20.99C67.76 20.74 67.04 20.71 66.94 21.63C66.87 21.74 66.79 21.85 66.71 21.96C65.68 23.75 64.3 25.44 65.57 27.91C64.39 27.58 63.51 28.67 62.78 27.56Z" fill="#FCFDFC"></path>
  <path d="M62.78 27.56C63.5 28.67 64.38 27.58 65.57 27.91C64.3 25.44 65.68 23.75 66.71 21.96C66.73 22.32 66.74 22.68 66.76 23.03C66.77 23.21 66.79 23.38 66.8 23.56C66.8 23.91 66.78 24.26 66.77 24.61C66.71 25.22 66.71 25.84 66.59 26.44C66.31 27.84 66.8 28.82 68.08 29.42C68.19 29.61 68.35 29.71 68.58 29.7C68.67 29.76 68.77 29.82 68.86 29.88C68.96 29.9 69.06 29.93 69.16 29.95L69.24 30.05H69.36C69.45 30.16 69.53 30.26 69.62 30.37C71.31 31.35 72.12 32.76 71.74 34.74C71.41 35.14 71.12 35.56 70.69 35.89C69.25 36.98 67.59 36.9 65.93 36.87C65.33 36.08 64.32 36.06 63.54 35.59C63.24 35.4 62.89 35.74 62.73 36.09C62.64 36.09 62.56 36.09 62.47 36.07C62.38 35.99 62.29 35.9 62.2 35.82C62.11 35.36 62.01 34.89 61.92 34.43C61.94 34.18 61.96 33.93 61.98 33.68C62.2 33.5 62.2 33.27 62.16 33.02C62.11 32.78 62.11 32.55 62.28 32.35H62.37H62.46C62.56 32.43 62.65 32.51 62.75 32.6H62.74C63.08 33.8 64.57 33.66 65.22 34.66C65.75 34.19 66.74 34.89 67.25 33.99C67.43 33.8 67.61 33.62 67.78 33.43C67.75 32.71 67.19 32.41 66.69 32.06C65.19 31.03 63.6 30.08 62.76 28.35C62.76 28.08 62.76 27.82 62.76 27.55L62.78 27.56Z" fill="#FCFDF8"></path>
  <path d="M42.76 28.09C42.34 28.28 42.22 28.63 42.23 29.06C42.25 29.83 42.04 30.32 41.16 30.59C40.15 30.9 40.92 32.02 40.47 32.72C40.04 33.03 39.5 32.84 38.99 32.87C39.22 28.55 39.93 24.29 40.34 20.03C42.83 19.4 47.64 19.27 49.87 19.75C50.04 20.39 49.95 21.04 49.91 21.7C49.4 22.14 48.65 22.16 48.32 22.7C46.61 21.98 45.07 21.94 43.61 23.03L43.55 23.06C42.6 24.63 42.83 26.39 42.76 28.1V28.09Z" fill="#FDFDFC"></path>
  <path d="M20.65 19.8101C20.69 20.4001 20.4 20.9201 20.23 21.4601C20.05 22.0501 20.01 22.6201 20.54 23.0301C21.34 23.6601 21.28 24.5101 21.13 25.3301C20.97 26.1601 20.44 26.9601 21.6 27.9401C19.3 27.7001 19.89 29.0501 19.86 29.9701C19.81 31.6001 19.67 31.7701 18.03 31.8101C18.03 30.5601 18.03 29.3201 18.03 28.0701C18.36 27.6301 18.36 27.1901 18.03 26.7501V19.8101H20.65Z" fill="#FDFEFD"></path>
  <path d="M28.62 35.83C29.62 36.01 30.63 35.98 31.65 36.28C33.11 36.71 33.58 36.26 34.11 34.64C33.26 34.13 32.15 35.27 31.36 34.11C31.35 33.57 31.01 32.83 31.82 32.35C31.85 32.69 31.88 33.03 31.91 33.36C32 33.96 32.41 34 32.89 33.93C34.31 34.01 35.68 33.73 37.06 33.48C37.92 34.04 37.27 34.85 37.39 35.54C37.22 35.91 37.06 36.29 36.89 36.66C34.51 37.29 32.14 37.05 29.78 36.59C29.34 36.51 28.57 36.72 28.61 35.82L28.62 35.83Z" fill="#FBFBF2"></path>
  <path d="M100.03 36.87C101.34 36.5 102.68 36.29 104.04 36.36C104.97 36.4 105.43 35.96 105.33 35.12C105.16 33.62 105.74 32.18 105.55 30.64C105.45 29.83 105.99 28.8 106.12 27.87C106.46 25.47 106.72 23.05 106.7 20.62C107.18 22.04 106.97 23.5 106.84 24.93C106.49 28.75 106.01 32.55 105.58 36.36C105.04 37.33 104.1 37.13 103.24 37.18C102.18 36.92 101.11 36.86 100.02 36.89L100.03 36.87Z" fill="#F2F4E5"></path>
  <path d="M48.42 36.3999C48.38 36.9099 48.34 37.4299 48.3 37.9399C46.52 38.6299 44.64 38.3999 42.8 38.5099C41.25 38.5999 39.95 38.1499 38.8 37.1499C38.8 36.7899 38.8 36.4299 38.8 36.0699C39.15 36.6699 39.69 37.0499 40.34 37.2499C42.73 37.9699 45.13 37.7799 47.52 37.2099C48 37.0999 48.19 36.8399 48.11 36.3599C48.17 36.3599 48.23 36.3399 48.28 36.2999C48.33 36.3299 48.38 36.3599 48.43 36.3999H48.42Z" fill="#7D9B7B"></path>
  <path d="M25.44 34.75C26.23 30.93 27.03 27.11 27.81 23.28C27.91 22.8 28 22.33 28.33 21.95C28.58 23.71 27.87 25.33 27.54 27C26.81 30.75 25.99 34.4799 25.21 38.2199C25.13 37.8699 25.29 37.47 24.98 37.17C25.06 36.81 25.27 36.46 25.16 36.07C25.18 35.99 25.19 35.91 25.19 35.82C25.51 35.52 25.45 35.13 25.44 34.75Z" fill="#AD9A6D"></path>
  <path d="M38.79 37.15C39.94 38.15 41.24 38.6 42.79 38.51C44.64 38.4 46.51 38.63 48.29 37.94C48.36 38.32 48.24 38.66 48.08 39C47.91 39.01 47.73 39.02 47.56 39.03C47.26 39.01 46.95 38.97 46.74 39.26L46.23 39.3C46.14 39.3 46.05 39.29 45.95 39.28C45.41 39.33 44.82 39.08 44.33 39.51C42.98 39.48 41.61 39.69 40.35 38.99C40.15 38.52 39.75 38.43 39.3 38.46L39.28 38.44C39.28 38.21 39.21 38.01 38.95 37.95C38.89 37.95 38.82 37.93 38.76 37.92C38.76 37.66 38.76 37.39 38.77 37.13L38.79 37.15Z" fill="#B18B27"></path>
  <path d="M62.47 36.07C62.56 36.08 62.64 36.09 62.73 36.09C63.67 36.87 64.85 36.68 65.93 36.87C67.59 36.9 69.25 36.98 70.69 35.89C71.12 35.56 71.41 35.14 71.74 34.74C71.74 35 71.74 35.27 71.74 35.53C71.57 35.78 71.4 36.03 71.23 36.28C69.39 37.97 67.13 37.72 64.91 37.64C63.84 37.29 62.77 36.94 61.7 36.6C61.7 36.34 61.7 36.07 61.7 35.81C61.87 35.81 62.03 35.82 62.2 35.83C62.29 35.91 62.38 36 62.47 36.08V36.07Z" fill="#D0D8C7"></path>
  <path d="M25.18 38.47C25.24 38.95 25.18 39.39 24.9 39.8C24.37 39.89 23.8 39.62 23.32 40.03C21.72 39.99 20.14 40.58 18.53 40.14C18.54 39.33 19.11 39.33 19.72 39.24C20.22 39.17 20.92 39.62 21.18 38.78C21.83 38.77 22.49 38.82 23.13 38.72C23.82 38.62 24.58 39.14 25.19 38.46L25.18 38.47Z" fill="#B96A17"></path>
  <path d="M48.1 36.36C48.18 36.84 47.99 37.1 47.51 37.21C45.12 37.78 42.72 37.97 40.33 37.25C39.68 37.06 39.14 36.68 38.79 36.07C38.79 35.89 38.8 35.71 38.81 35.54C38.89 35.54 38.96 35.54 39.04 35.54C39.13 35.63 39.21 35.72 39.3 35.81C39.5 36.03 39.68 36.41 39.92 36.46C41.83 36.85 43.76 37.21 45.7 36.62C46.5 36.53 47.3 36.44 48.1 36.36Z" fill="#CFD9C2"></path>
  <path d="M72.35 38.45C72.35 38.1 72.35 37.75 72.35 37.4C74.78 37.58 77.2 37.08 79.63 37.17C80.12 37.19 80.34 36.91 80.57 36.59C80.6 37.39 80.41 37.93 79.43 37.98C77.07 38.1 74.72 38.29 72.36 38.46L72.35 38.45Z" fill="#799E79"></path>
  <path d="M87.47 33.7C88.17 34.4 87.52 35.33 88.03 36.34C89.81 36.34 91.73 36.34 93.66 36.34C93.69 36.69 93.72 37.04 93.32 37.41C91.47 37.17 89.5 37.76 87.57 37.12C87.54 35.98 87.51 34.84 87.48 33.7H87.47Z" fill="#EEF0E2"></path>
  <path d="M80.56 36.59C80.33 36.91 80.11 37.19 79.62 37.17C77.19 37.08 74.78 37.58 72.34 37.4C72.34 37.13 72.35 36.86 72.36 36.6C74.73 36.8 77.08 36.26 79.45 36.36C79.96 36.38 80.27 36.13 80.55 35.79C80.55 36.06 80.56 36.32 80.57 36.59H80.56Z" fill="#DADCC5"></path>
  <path d="M95.28 37.1499C95.28 36.7899 95.27 36.4299 95.26 36.0699C95.81 36.8899 96.62 37.2199 97.55 37.4499C98.73 37.7399 99.91 37.6199 101.09 37.6699C101.74 38.1899 102.5 37.8399 103.21 37.9199C103.31 37.9299 103.41 37.9499 103.51 37.9599C102.8 38.5299 101.93 38.4099 101.11 38.5399C100.58 38.5199 100.05 38.4499 99.53 38.4899C97.92 38.6299 96.46 38.3399 95.29 37.1399L95.28 37.1499Z" fill="#83A482"></path>
  <path d="M28.62 35.8301C28.57 36.7301 29.35 36.5201 29.79 36.6001C32.15 37.0601 34.53 37.3001 36.9 36.6601C36.9 36.8301 36.9 37.0001 36.89 37.1801C36.82 37.1901 36.76 37.1801 36.69 37.1601C36.59 37.2201 36.49 37.2801 36.39 37.3401C35.68 37.5301 34.97 37.7301 34.22 37.7101C33.96 37.7101 33.71 37.7201 33.45 37.7301C32.55 37.7101 31.64 37.6901 30.74 37.6701C29.87 37.3201 29 36.9601 28.13 36.6101C28.13 36.3401 28.13 36.0801 28.13 35.8101C28.3 35.8101 28.46 35.8201 28.63 35.8301H28.62Z" fill="#C3D1BF"></path>
  <path d="M87.56 37.1199C89.49 37.7699 91.46 37.1699 93.31 37.4099C93.71 37.0399 93.68 36.6899 93.65 36.3399C93.69 36.2599 93.7 36.1799 93.67 36.0899L93.79 36.0699L93.91 36.0899C93.97 36.8899 94.01 37.6999 93.72 38.4699L93.61 38.4499C91.68 38.0699 89.75 38.0099 87.82 38.4899C87.82 38.6399 87.82 38.7799 87.82 38.9299L87.72 38.9899C87.54 38.3799 87.48 37.7599 87.57 37.1199H87.56Z" fill="#799566"></path>
  <path d="M25.16 36.0699C25.27 36.4599 25.06 36.8099 24.98 37.1699C24.93 37.2299 24.9 37.2999 24.89 37.3799C24.14 37.3899 23.38 37.3399 22.64 37.4399C21.26 37.6099 19.83 37.4099 18.51 37.9899C18.35 38.0499 18.19 38.1199 18.04 38.1799C18.04 37.8299 18.04 37.4899 18.04 37.1399C19.97 36.9499 21.87 36.5299 23.82 36.5999C24.33 36.6199 24.73 36.2899 25.16 36.0699Z" fill="#DBDFC9"></path>
  <path d="M95.28 37.15C96.46 38.35 97.91 38.64 99.52 38.5C100.04 38.45 100.57 38.53 101.1 38.55C101.18 38.79 101.26 39.02 101.34 39.26C99.35 39.94 96.39 39.3 95.27 37.95V37.15H95.28Z" fill="#BA912C"></path>
  <path d="M101.09 37.68C99.91 37.63 98.73 37.74 97.55 37.46C96.62 37.23 95.81 36.9 95.26 36.08C95.26 35.9 95.26 35.73 95.27 35.55C96.66 36.68 98.28 36.99 100.02 36.88C101.1 36.85 102.18 36.9 103.24 37.17C103.24 37.25 103.24 37.34 103.23 37.42L102.15 37.4C102.05 37.25 101.97 37.29 101.9 37.42C101.63 37.51 101.36 37.6001 101.09 37.6901V37.68Z" fill="#D7E0CB"></path>
  <path d="M37.38 38.21C37.32 38.48 37.26 38.74 37.19 39.01C36.8 39.04 36.38 38.91 36.07 39.26C35.99 39.26 35.92 39.26 35.84 39.27C35.38 39.32 34.87 39.15 34.47 39.52C33.6 39.52 32.73 39.52 31.86 39.52C31.68 39.44 31.5 39.35 31.31 39.27C31.36 39.09 31.66 39.04 31.57 38.78C31.22 38.66 30.8 38.87 30.52 38.51C32.2 38.5 33.88 38.48 35.56 38.47C36.19 38.57 36.78 38.38 37.37 38.21H37.38Z" fill="#BE9123"></path>
  <path d="M93.91 36.09L93.79 36.07L93.67 36.09C93.8 33.17 94.16 30.27 94.54 27.37C94.81 25.29 94.75 23.17 95.46 21.16C95.43 24.27 94.78 27.31 94.53 30.4C94.37 32.3 94.12 34.19 93.91 36.08V36.09Z" fill="#EEF0E2"></path>
  <path d="M35.56 38.47C33.88 38.48 32.2 38.5 30.52 38.51L30.5 38.41L30.24 38.22C30.25 37.88 30.42 37.7 30.75 37.67C31.65 37.69 32.56 37.71 33.46 37.73C33.72 38 33.98 38 34.23 37.71C34.98 37.73 35.69 37.53 36.4 37.34C36.5 37.28 36.6 37.22 36.7 37.16C36.76 37.19 36.83 37.19 36.9 37.18C37.08 37.41 37.23 37.15 37.4 37.15C37.4 37.33 37.4 37.5 37.4 37.68C36.85 38.07 36.09 38 35.58 38.47H35.56Z" fill="#74997C"></path>
  <path d="M80.56 38.47C80.65 38.86 80.52 39.21 80.32 39.53C80.15 39.53 79.97 39.54 79.8 39.55C79.19 39.62 78.54 39.32 77.97 39.77C77.51 39.78 77.04 39.8 76.58 39.81C75.88 39.81 75.18 39.82 74.49 39.83C73.78 39.83 73.06 39.81 72.35 39.8C72.35 39.63 72.35 39.45 72.35 39.28C74.78 39.29 77.19 38.86 79.63 39C79.89 39.01 80.17 39.01 80.34 38.74C80.36 38.66 80.37 38.59 80.38 38.51C80.45 38.5 80.51 38.48 80.58 38.47H80.56Z" fill="#A2400B"></path>
  <path d="M95.28 37.9399C96.41 39.2899 99.37 39.9199 101.36 39.2499C101.71 39.2499 102.07 39.2499 102.42 39.2499C102.64 39.2799 102.85 39.3099 102.97 39.5299C102.88 39.6099 102.79 39.6899 102.7 39.7699C102.62 39.7799 102.53 39.7999 102.45 39.8199C102.29 39.9399 101.8 39.4999 101.93 40.1299C101.78 40.3099 101.58 40.3099 101.37 40.2799C100.23 39.9099 99.08 40.0099 97.93 40.2499C97.84 40.2099 97.74 40.1599 97.65 40.1199C97.43 39.7399 97.05 39.8199 96.71 39.8099L96.64 39.8299L96.58 39.7799C96.53 39.6599 96.46 39.6099 96.35 39.7199C96.26 39.6499 96.16 39.5799 96.07 39.5199C95.97 39.4399 95.87 39.3499 95.77 39.2699L95.79 39.2899C95.7 39.1899 95.61 39.0899 95.52 38.9999C95.13 38.7199 95.28 38.3199 95.29 37.9499L95.28 37.9399Z" fill="#B14C0F"></path>
  <path d="M49.91 22.75C49.98 23.22 50.02 23.69 49.73 24.11C49.58 23.9 49.38 23.83 49.13 23.87C47.27 23.84 45.4 23.66 43.56 24.11C43.56 23.76 43.55 23.41 43.54 23.05L43.6 23.02C44.83 23.04 46.08 22.9 47.27 23.12C48.25 23.3 49.07 23.2 49.91 22.75Z" fill="#B4B561"></path>
  <path d="M67.79 33.43C67.61 33.62 67.43 33.8 67.26 33.99C66.67 33.85 66.02 34.15 65.47 33.74C65.66 33.67 65.92 33.74 66.08 33.4C64.95 32.49 63.69 31.67 62.79 30.47C62.8 30.2 62.82 29.93 62.83 29.65C64.22 31.25 66.03 32.31 67.79 33.43Z" fill="#92AE92"></path>
  <path d="M49.91 22.7499C49.08 23.1999 48.26 23.2999 47.27 23.1199C46.08 22.8999 44.83 23.0399 43.6 23.0199C45.06 21.9299 46.6 21.9699 48.31 22.6899C48.64 22.1499 49.39 22.1299 49.9 21.6899C49.9 22.0399 49.9 22.3999 49.9 22.7499H49.91Z" fill="#D6DEAE"></path>
  <path d="M85.32 35.25C85.35 34.73 85.37 34.21 85.4 33.68C85.6 33.54 85.62 33.34 85.58 33.12C85.6 32.6 85.63 32.07 85.65 31.55C85.72 31.55 85.78 31.55 85.85 31.54C85.88 31.73 85.92 31.92 85.95 32.11C85.77 33.71 85.59 35.3 85.41 36.9C84.27 37.35 83.08 37.01 81.93 37.14C81.84 36.88 81.79 36.61 81.93 36.35C83.01 36.45 84.05 36.19 85.11 36.07C85.45 35.87 85.37 35.56 85.33 35.26L85.32 35.25Z" fill="#D8D8C6"></path>
  <path d="M68.32 27.59C68.54 27.58 68.76 27.56 68.98 27.56C72.3 27.45 71.86 28.14 72.33 24.42C72.37 24.12 72.33 23.8 72.56 23.55C72.71 25.1 72.42 26.61 72.11 28.11C72.01 28.19 71.9 28.27 71.8 28.35C70.64 28.35 69.48 28.35 68.32 28.36C68.25 28.1 68.19 27.83 68.32 27.57V27.59Z" fill="#94B679"></path>
  <path d="M61.69 38.2199C61.69 38.0399 61.69 37.8699 61.69 37.6899C62.74 37.9599 63.69 38.6499 64.85 38.4799C65.22 38.5099 65.6 38.5399 65.97 38.5699C66.66 38.8399 67.34 38.8599 68.02 38.5499C68.12 38.5199 68.23 38.4999 68.33 38.4699C69.11 38.6199 69.78 38.2799 70.46 37.9699C70.46 38.1299 70.46 38.2999 70.45 38.4599C70.36 38.5499 70.28 38.6399 70.19 38.7299C69.89 38.7299 69.59 38.6899 69.38 38.9799C67.52 38.9799 65.65 38.9899 63.79 38.9999C62.98 38.9999 62.36 38.5199 61.68 38.1999L61.69 38.2199Z" fill="#C59B25"></path>
  <path d="M34.53 27.02C35.5 26.88 36.41 27.53 37.46 27.19C37.52 26.61 37.42 26.02 37.26 25.44C37.46 25.01 37.71 25.56 37.93 25.38C37.97 24.66 37.97 23.9 38.49 23.28C38.58 24.28 38.49 25.27 38.26 26.25C37.79 26.51 37.99 26.94 37.98 27.32C37.98 27.39 37.98 27.46 37.94 27.53C36.76 27.33 35.66 28.04 34.47 27.81C34.49 27.54 34.5 27.28 34.52 27.01L34.53 27.02Z" fill="#F7F8F0"></path>
  <path d="M48.33 35.01C48.42 34.3 48.37 33.56 48.65 32.87C49.29 32.87 49.92 32.87 50.56 32.87C50.53 33.49 50.62 34.13 50.24 34.69C49.76 34.6 49.29 34.65 48.78 34.79C48.67 35.31 48.55 35.85 48.43 36.38C48.38 36.34 48.34 36.31 48.28 36.28C48.3 35.85 48.32 35.42 48.34 34.99L48.33 35.01Z" fill="#A49242"></path>
  <path d="M79.79 33.73C79.4 34.1 78.99 33.95 78.45 33.79C78.58 32.46 78.59 31.13 78.78 29.86C79.03 28.18 79.08 26.49 79.28 24.81C79.3 24.66 79.45 24.52 79.54 24.37C79.54 25.16 79.54 25.95 79.53 26.74C79.32 29 79.1 31.26 78.89 33.45C79.16 33.84 79.52 33.61 79.79 33.73Z" fill="#F6F3E5"></path>
  <path d="M80.32 38.7499C80.15 39.0199 79.88 39.0199 79.61 39.0099C77.18 38.8699 74.76 39.2999 72.33 39.2899C72.33 39.1099 72.33 38.9299 72.33 38.7599C74.81 38.8399 77.28 38.3099 79.76 38.4899C79.94 38.5799 80.12 38.6699 80.3 38.7599L80.32 38.7499Z" fill="#C79424"></path>
  <path d="M37.95 27.54C37.98 27.47 37.99 27.4 37.99 27.33C38.06 27.3 38.13 27.29 38.21 27.3C38.33 28.49 37.95 29.63 37.89 30.92C37.11 30.89 36.61 31.23 36.64 32.09C36.57 32.09 36.5 32.09 36.43 32.09C36.4 32 36.38 31.91 36.35 31.83C36.45 31.04 36.56 30.24 36.66 29.45C36.71 28.56 38.14 28.6 37.95 27.55V27.54Z" fill="#BD9E46"></path>
  <path d="M79.78 38.48C77.29 38.3 74.83 38.83 72.35 38.75C72.35 38.65 72.35 38.55 72.35 38.45C74.71 38.29 77.06 38.09 79.42 37.97C80.4 37.92 80.59 37.38 80.56 36.58H80.57C80.65 36.6 80.73 36.61 80.82 36.61C80.93 37.26 80.63 37.85 80.56 38.47C80.49 38.48 80.43 38.5 80.36 38.51C80.18 38.24 80 38.17 79.78 38.47V38.48Z" fill="#B5A233"></path>
  <path d="M67.79 33.43C66.03 32.31 64.22 31.25 62.83 29.65C62.81 29.22 62.8 28.78 62.78 28.35C63.62 30.08 65.21 31.03 66.71 32.06C67.21 32.4 67.76 32.71 67.8 33.43H67.79Z" fill="#DCE8E2"></path>
  <path d="M49.97 39.25C49.98 38.9 49.99 38.56 50.01 38.21C51.08 38.34 52.12 38 53.17 37.96C53.28 38.16 53.47 38.2 53.68 38.2C53.68 38.38 53.66 38.56 53.65 38.73C53.04 39.3 52.15 38.73 51.53 39.24C51.1 39.26 50.68 39.28 50.25 39.3C50.16 39.28 50.07 39.27 49.97 39.25Z" fill="#B49A3A"></path>
  <path d="M35.84 39.27C35.91 39.25 35.99 39.25 36.07 39.26C36.44 39.26 36.81 39.27 37.18 39.28C37.21 39.37 37.2 39.45 37.16 39.53C36.86 39.55 36.54 39.51 36.36 39.84C36.05 39.8 35.75 39.77 35.54 40.08C35.36 40.14 35.18 40.2 35.01 40.26C34.79 40.05 34.52 40.06 34.25 40.11C33.44 40.11 32.64 40.11 31.83 40.11C31.46 40.11 31.07 39.96 30.76 40.3C30.68 40.26 30.59 40.22 30.51 40.18C30.43 39.92 30.22 39.84 29.98 39.79C30.55 39.32 31.24 39.67 31.85 39.53C32.72 39.53 33.59 39.53 34.46 39.53C34.93 39.49 35.44 39.73 35.83 39.28L35.84 39.27Z" fill="#A63D0B"></path>
  <path d="M49.99 36.6C50.61 36.6 51.23 36.5401 51.84 36.6201C52.77 36.7401 53.33 36.35 53.68 35.55C53.79 36.19 53.53 36.77 53.41 37.38C52.26 37.38 51.12 37.38 49.97 37.38C49.97 37.12 49.97 36.85 49.97 36.59L49.99 36.6Z" fill="#DDDEC8"></path>
  <path d="M79.79 23.84C79.79 23.59 79.81 23.33 79.82 23.08C80.47 23.05 81.13 23.02 81.71 22.99C82.15 22.46 82.21 21.95 82.14 21.41C82.14 20.81 82.15 20.2 82.16 19.6C82.18 19.52 82.19 19.45 82.21 19.37C82.65 20.97 82.49 22.54 82.02 24.1C81.33 23.59 80.54 23.93 79.8 23.84H79.79Z" fill="#99A75E"></path>
  <path d="M71.73 37.68C71.79 38 71.6 38.23 71.47 38.48C71.4 38.57 71.33 38.65 71.26 38.74C71.17 38.83 71.08 38.93 70.99 39.02H71C70.91 39.02 70.81 39.02 70.72 39.02C70.63 39.11 70.54 39.2 70.45 39.29C70.36 39.38 70.28 39.48 70.19 39.57L70.21 39.56C70.11 39.56 70.02 39.56 69.93 39.56C69.84 39.65 69.76 39.74 69.67 39.83H69.68C69.58 39.83 69.48 39.83 69.38 39.83C69.3 39.82 69.22 39.81 69.13 39.81C68.06 39.93 66.96 39.54 65.92 40.06C65.74 40.06 65.56 40.04 65.38 40.03C65.09 39.69 64.69 39.84 64.33 39.79C64.62 39.42 65.04 39.59 65.41 39.53C66.74 39.57 68.07 39.53 69.38 39.26C69.47 39.18 69.57 39.1 69.66 39.02C69.87 38.99 70.08 38.96 70.19 38.74C70.28 38.74 70.36 38.74 70.45 38.74C70.54 38.66 70.64 38.57 70.73 38.49C70.82 38.4 70.91 38.31 70.99 38.23C71.07 38.13 71.16 38.04 71.24 37.95C71.32 37.86 71.41 37.78 71.49 37.69L71.51 37.67C71.57 37.67 71.64 37.68 71.7 37.69L71.73 37.68Z" fill="#A13D04"></path>
  <path d="M56.65 37.39C57.81 37.32 58.99 37.47 60.13 37.15C60.2 37.15 60.27 37.13 60.34 37.13C60.32 37.4 60.31 37.67 60.29 37.94C60.01 37.95 59.71 37.91 59.53 38.21C58.56 38.21 57.59 38.21 56.63 38.22C56.63 37.94 56.63 37.67 56.64 37.39H56.65Z" fill="#7F9C65"></path>
  <path d="M24.89 37.37C24.9 37.29 24.93 37.23 24.98 37.17C25.29 37.47 25.14 37.87 25.21 38.22C25.23 38.31 25.22 38.39 25.18 38.48C24.57 39.15 23.8 38.64 23.12 38.74C22.48 38.83 21.82 38.78 21.17 38.79C20.64 38.76 20.12 38.74 19.59 38.71C19.59 38.63 19.59 38.54 19.59 38.46C21.05 38.47 22.48 38.1 23.94 38.22C24.5 38.27 24.89 38.03 24.88 37.39L24.89 37.37Z" fill="#B8A55E"></path>
  <path d="M81.92 37.14C83.08 37.01 84.27 37.35 85.4 36.9C85.38 37.24 85.36 37.58 85.34 37.91C84.19 37.92 83.04 37.94 81.89 37.95C81.89 37.68 81.91 37.41 81.91 37.14H81.92Z" fill="#88A484"></path>
  <path d="M62.79 30.47C63.69 31.67 64.95 32.49 66.08 33.4C65.92 33.75 65.66 33.67 65.47 33.74C65.15 33.71 64.82 33.71 64.6 33.42C64.49 33.33 64.39 33.24 64.28 33.15C63.78 32.44 63.28 31.72 62.78 31.01C62.78 30.83 62.78 30.65 62.78 30.48L62.79 30.47Z" fill="#B39E38"></path>
  <path d="M81.9 37.95C83.05 37.94 84.2 37.92 85.35 37.91C85.35 38.19 85.35 38.47 85.36 38.75C84.2 38.75 83.04 38.77 81.89 38.78C81.89 38.5 81.9 38.23 81.91 37.95H81.9Z" fill="#C69A29"></path>
  <path d="M53.42 37.38C53.53 36.77 53.8 36.19 53.69 35.55C53.89 34.65 54.09 33.76 54.28 32.86C54.52 32.79 54.76 32.72 55 32.66C54.83 33 54.43 33.23 54.5 33.69C54.5 33.86 54.5 34.04 54.5 34.21C54.5 34.31 54.5 34.41 54.5 34.5C54.23 35.73 53.96 36.97 53.68 38.2C53.47 38.2 53.28 38.16 53.17 37.96C53.37 37.82 53.43 37.61 53.43 37.38H53.42Z" fill="#B18964"></path>
  <path d="M38.78 37.9401C38.84 37.9401 38.91 37.9601 38.97 37.9601C39.08 38.1201 39.19 38.2901 39.3 38.4501L39.32 38.4701C39.58 38.8201 39.95 38.9701 40.37 39.0001C41.63 39.6901 43.01 39.4901 44.35 39.5201C44.8 39.5201 45.25 39.5401 45.69 39.5401C44.12 40.1201 42.49 39.6501 40.89 39.8001C40.8 39.8001 40.71 39.8001 40.62 39.8001C40.42 39.4901 40.11 39.5301 39.8 39.5501H39.82C39.7 39.3301 39.5 39.2601 39.27 39.2701H39.28C39.2 39.1801 39.11 39.0901 39.03 39.0001C38.66 38.7101 38.72 38.3201 38.76 37.9301L38.78 37.9401Z" fill="#9D3C04"></path>
  <path d="M60.3 38.74C60.27 39.41 60.36 40.18 59.28 40.01C58.97 39.7 58.59 39.82 58.22 39.82C57.69 39.82 57.16 39.82 56.63 39.81C56.63 39.63 56.63 39.45 56.63 39.27C57.81 39.28 58.98 39.18 60.11 38.76C60.17 38.75 60.24 38.74 60.3 38.74Z" fill="#A44614"></path>
  <path d="M85.95 32.1099C85.92 31.9199 85.88 31.7299 85.85 31.5399C85.87 31.0999 85.88 30.6599 85.9 30.2099C86.09 28.6199 86.29 27.0299 86.48 25.4399C86.64 25.5199 86.79 25.6099 86.95 25.6899C86.95 26.0599 86.95 26.4299 86.95 26.7999C86.18 28.0599 86.56 29.5299 86.21 30.8599C86.1 31.2699 86.27 31.7399 85.95 32.1099Z" fill="#796550"></path>
  <path d="M38.8 34.75C39.44 34.5 40.08 34.25 40.69 34.01C41.1 34.27 41.3 34.57 41.24 35C40.71 35.62 39.82 34.95 39.3 35.55C39.21 35.55 39.12 35.55 39.04 35.55C38.97 35.46 38.89 35.38 38.82 35.29C38.82 35.11 38.82 34.93 38.82 34.75H38.8Z" fill="#FDFDFC"></path>
  <path d="M53.42 37.38C53.42 37.61 53.36 37.81 53.16 37.96C52.1 38 51.07 38.34 50 38.21C50 37.94 49.99 37.66 49.98 37.39C51.13 37.39 52.27 37.39 53.42 37.39V37.38Z" fill="#70A287"></path>
  <path d="M37.07 33.49C35.69 33.74 34.31 34.02 32.9 33.94C32.81 33.81 32.71 33.67 32.47 33.33C33.81 33.63 34.93 33.22 36.09 33.16C36.18 33.08 36.27 33 36.35 32.92C36.43 32.82 36.51 32.73 36.6 32.63C36.68 32.96 36.41 33.48 37.08 33.49H37.07Z" fill="#BD9E46"></path>
  <path d="M36.59 32.62C36.51 32.72 36.43 32.81 36.34 32.91C36.25 32.99 36.16 33.07 36.08 33.15C34.92 33.22 33.8 33.62 32.46 33.32C32.7 33.66 32.8 33.8 32.89 33.93C32.41 34 32 33.95 31.91 33.36C32.82 33.02 33.77 32.82 34.74 32.89C35.47 32.95 36.03 32.7 36.42 32.08C36.49 32.08 36.56 32.08 36.63 32.08C36.61 32.26 36.6 32.44 36.58 32.62H36.59Z" fill="#A4A944"></path>
  <path d="M103.23 37.4C103.23 37.32 103.23 37.23 103.24 37.15C104.1 37.11 105.04 37.3 105.58 36.33C105.69 36.88 105.65 37.42 105.38 37.92C104.86 37.95 104.33 37.99 103.81 38.02C103.71 38 103.61 37.98 103.5 37.95C103.4 37.94 103.3 37.92 103.2 37.91C103.2 37.74 103.21 37.56 103.22 37.39L103.23 37.4Z" fill="#ACC1A0"></path>
  <path d="M65.42 39.53C65.05 39.59 64.63 39.42 64.34 39.79L64.33 39.82C64.15 39.88 63.98 39.95 63.8 40.01C63.71 39.95 63.63 39.89 63.54 39.83C63.41 39.57 63.24 39.51 63.02 39.74C62.93 39.68 62.84 39.61 62.74 39.55C62.62 39.33 62.41 39.28 62.18 39.29L62.2 39.3C62.12 39.07 61.92 39.02 61.71 39.01C61.71 38.75 61.7 38.48 61.69 38.22C62.38 38.53 63 39.02 63.8 39.02C64.23 39.54 64.98 39.03 65.42 39.54V39.53Z" fill="#A14909"></path>
  <path d="M82.2 19.36C82.19 19.44 82.17 19.51 82.15 19.59C79.51 19.59 76.87 19.58 74.23 19.57C74.25 19.35 74.39 19.29 74.58 19.3C77.12 19.32 79.66 19.35 82.2 19.37V19.36Z" fill="#CBD3C0"></path>
  <path d="M31.86 39.5201C31.24 39.6501 30.56 39.3001 29.99 39.7801C29.9 39.8501 29.81 39.9201 29.72 39.9901C29.63 39.9301 29.54 39.8601 29.45 39.8001C29.39 39.6601 29.31 39.6001 29.18 39.7401C29 39.6201 28.82 39.4901 28.64 39.3701C28.54 39.2401 28.45 39.1201 28.35 39.0001V39.0301C28.28 38.9301 28.21 38.8401 28.14 38.7401C28.13 38.4701 28.12 38.2001 28.11 37.9301C28.2 38.0101 28.29 38.1001 28.38 38.1801C29.13 39.1601 30.19 39.2801 31.3 39.2601C31.48 39.3401 31.66 39.4301 31.85 39.5101L31.86 39.5201Z" fill="#A85214"></path>
  <path d="M49.97 39.25C50.06 39.27 50.15 39.28 50.25 39.3C50.81 39.5 51.32 39.5066 51.78 39.32C51.7 39.29 51.61 39.27 51.53 39.24C52.15 38.73 53.04 39.3 53.65 38.73C53.57 39.08 53.48 39.43 53.4 39.78C53.14 39.78 52.89 39.8 52.63 39.81C52.19 39.81 51.75 39.81 51.3 39.81C50.87 39.81 50.43 39.81 50 39.81C50 39.62 49.98 39.44 49.98 39.25H49.97Z" fill="#AB4914"></path>
  <path d="M81.88 38.78C83.04 38.78 84.2 38.76 85.35 38.75C85.35 39.03 85.39 39.32 85.13 39.54C84.09 38.98 82.97 39.41 81.89 39.27C81.89 39.11 81.88 38.94 81.87 38.78H81.88Z" fill="#A74506"></path>
  <path d="M70.47 37.98C69.79 38.28 69.12 38.62 68.34 38.47C68.73 38.09 69.28 38.09 69.74 37.88C70.45 37.55 71.17 37.22 71.24 36.28C71.41 36.03 71.58 35.78 71.75 35.53C71.75 36.06 71.75 36.59 71.76 37.12C71.69 37.13 71.62 37.15 71.56 37.16C71.2 37.43 70.84 37.7 70.47 37.97V37.98Z" fill="#8F9161"></path>
  <path d="M19.59 38.7C20.12 38.73 20.64 38.75 21.17 38.78C20.91 39.62 20.21 39.17 19.71 39.24C19.11 39.33 18.54 39.3299 18.52 40.1399C17.95 39.9299 17.97 39.47 18.02 38.99C18.54 38.89 19.07 38.79 19.59 38.7Z" fill="#E68555"></path>
  <path d="M40.9 39.81C42.5 39.66 44.12 40.13 45.7 39.55C45.79 39.46 45.88 39.38 45.97 39.29C46.06 39.29 46.15 39.3 46.24 39.31C46.44 39.59 46.74 39.53 47.02 39.54C47.02 39.62 47.02 39.7 47.02 39.78C46.93 39.78 46.84 39.8 46.75 39.8C46.45 39.8 46.13 39.75 45.95 40.08C45.51 40.08 45.07 40.08 44.63 40.08H42.49C42.14 40.07 41.77 39.97 41.46 40.23C41.27 40.17 41.09 40.11 40.9 40.05C40.9 39.96 40.9 39.88 40.9 39.79V39.81Z" fill="#A33711"></path>
  <path d="M81.9 39.27C82.97 39.42 84.1 38.9801 85.14 39.5401C84.04 39.7401 82.91 40.25 81.9 39.27Z" fill="#B74C21"></path>
  <path d="M30.74 37.67C30.41 37.7 30.24 37.88 30.23 38.21C29.4 38.12 28.74 37.68 28.14 37.15C28.14 36.97 28.14 36.79 28.14 36.61C29.01 36.96 29.88 37.32 30.75 37.67H30.74Z" fill="#93AD81"></path>
  <path d="M93.62 39.27C93.62 39.45 93.62 39.62 93.61 39.8C91.67 39.8 89.72 39.79 87.78 39.78C87.78 39.62 87.77 39.46 87.76 39.29C87.86 39.29 87.97 39.29 88.07 39.3C89.83 39.67 91.59 39.68 93.34 39.3C93.43 39.29 93.52 39.28 93.61 39.26L93.62 39.27Z" fill="#A74115"></path>
  <path d="M69.17 29.95C69.07 29.93 68.97 29.9 68.87 29.88C68.78 29.82 68.68 29.76 68.59 29.7C68.69 29.6 68.78 29.5 68.88 29.4C69.15 29.42 69.42 29.43 69.69 29.45C70.13 29.8 70.56 29.81 70.99 29.44C71.17 29.44 71.36 29.45 71.54 29.46C71.62 29.58 71.69 29.59 71.77 29.46C71.85 29.44 71.93 29.43 72.02 29.42C72.04 29.7 72.19 30.02 71.79 30.16C71.17 29.81 70.54 29.87 69.93 30.18C69.83 30.24 69.73 30.31 69.64 30.37C69.55 30.26 69.47 30.16 69.38 30.05C69.3 30.05 69.23 30.02 69.18 29.95H69.17Z" fill="#C95132"></path>
  <path d="M61.71 36.6C62.78 36.95 63.85 37.3 64.92 37.64C64.28 37.65 63.64 37.67 63 37.68C62.57 37.58 62.14 37.49 61.71 37.39C61.71 37.13 61.71 36.86 61.71 36.6Z" fill="#89A28B"></path>
  <path d="M73.9 25.7C73.54 25.02 73.67 24.32 73.79 23.62L73.87 23.6C73.95 24 73.78 24.47 74.05 24.71C74.68 25.1 75.54 24.45 75.81 25.4L75.76 25.41C75.14 25.52 74.45 25.17 73.9 25.7Z" fill="#A5520C"></path>
  <path d="M87.78 39.78C89.72 39.78 91.67 39.79 93.61 39.8C92.17 40.43 90.66 39.95 89.18 40.06C88.73 40.09 88.14 40.38 87.78 39.78Z" fill="#C66446"></path>
  <path d="M88.07 39.3101C87.97 39.3101 87.86 39.3001 87.76 39.3001C87.74 39.2001 87.73 39.1001 87.71 38.9901L87.81 38.9301C87.97 38.9501 88.14 38.9801 88.3 39.0001C90.08 39.0001 91.86 39.0001 93.63 39.0001C93.63 39.0901 93.63 39.1801 93.62 39.2701C93.53 39.2801 93.44 39.2901 93.35 39.3101C91.59 39.3101 89.83 39.3101 88.07 39.3101Z" fill="#C97A24"></path>
  <path d="M93.64 39C91.86 39 90.08 39 88.31 39C88.31 38.91 88.31 38.83 88.32 38.74C90.1 38.74 91.88 38.74 93.67 38.74C93.7 38.83 93.69 38.92 93.65 39H93.64Z" fill="#C8941B"></path>
  <path d="M60.1 38.76C58.98 39.18 57.81 39.28 56.62 39.27C56.62 39.1 56.62 38.92 56.62 38.75C57.78 38.75 58.94 38.75 60.09 38.76H60.1Z" fill="#CE9123"></path>
  <path d="M93.66 38.75C91.88 38.75 90.1 38.75 88.31 38.75C88.31 38.67 88.31 38.58 88.31 38.5C90.08 38.49 91.84 38.47 93.61 38.46L93.72 38.48C93.7 38.57 93.68 38.66 93.67 38.75H93.66Z" fill="#BAA22D"></path>
  <path d="M52.65 23.56C52.57 23.73 52.49 23.91 52.42 24.09C52.11 23.77 51.71 23.84 51.33 23.87C51.33 23.58 51.33 23.3 51.34 23.01C51.7 22.85 52.06 22.72 52.54 22.85C52.57 23.07 52.61 23.31 52.65 23.56Z" fill="#93AE7E"></path>
  <path d="M52.65 23.5599C52.61 23.3099 52.57 23.0699 52.54 22.8499C52.06 22.7199 51.7 22.8499 51.34 23.0099C51.34 22.7499 51.34 22.4799 51.34 22.2199C51.83 21.8499 52.33 22.0399 52.85 22.1999C52.9 22.6699 53.05 23.1499 52.66 23.5699L52.65 23.5599Z" fill="#D4E3D7"></path>
  <path d="M79.79 23.84C80.53 23.93 81.32 23.59 82.01 24.1L81.97 24.12C81.33 24.17 80.64 23.85 80.06 24.35C79.99 24.45 79.93 24.54 79.86 24.64C79.83 24.72 79.82 24.8 79.84 24.88C79.81 24.96 79.8 25.05 79.82 25.14C79.82 25.32 79.83 25.5 79.84 25.69C79.71 26.03 79.84 26.45 79.53 26.74C79.53 25.95 79.53 25.16 79.54 24.36C79.62 24.19 79.71 24.01 79.79 23.84Z" fill="#C2B257"></path>
  <path d="M60.1 38.76C58.94 38.76 57.78 38.76 56.63 38.75C56.63 38.66 56.63 38.5699 56.63 38.4799C57.59 38.3299 58.61 38.77 59.54 38.2C59.79 38.2 60.04 38.2 60.29 38.2C60.29 38.38 60.29 38.5499 60.29 38.7299C60.22 38.7299 60.16 38.73 60.1 38.75V38.76Z" fill="#BCA130"></path>
  <path d="M62.78 31C63.28 31.71 63.78 32.43 64.28 33.14C64.21 33.14 64.14 33.14 64.07 33.14C63.7 33.12 63.47 32.87 63.25 32.62C63.17 32.52 63.09 32.43 63.01 32.33C63.01 31.87 62.61 31.48 62.79 30.99L62.78 31Z" fill="#A46023"></path>
  <path d="M61.72 37.39C62.15 37.49 62.58 37.58 63.01 37.68C63.55 38.14 64.37 37.92 64.87 38.48C63.71 38.64 62.76 37.95 61.71 37.69C61.71 37.59 61.72 37.49 61.73 37.4L61.72 37.39Z" fill="#9FA256"></path>
  <path d="M19.59 38.7C19.07 38.8 18.54 38.9 18.02 38.99C18.02 38.72 18.02 38.44 18.03 38.17C18.19 38.11 18.35 38.04 18.5 37.98C18.86 38.14 19.22 38.29 19.58 38.45C19.58 38.53 19.58 38.62 19.58 38.7H19.59Z" fill="#C0B468"></path>
  <path d="M28.14 37.15C28.75 37.68 29.4 38.12 30.23 38.21C30.23 38.29 30.23 38.37 30.23 38.45C29.57 38.6 29 38.17 28.37 38.18C28.28 38.1 28.19 38.01 28.1 37.93C28.1 37.66 28.11 37.4 28.12 37.13L28.14 37.15Z" fill="#BAAE48"></path>
  <path d="M65.93 40.0601C66.97 39.5401 68.07 39.9301 69.14 39.8101C69.14 39.8901 69.14 39.9801 69.14 40.0601C68.96 40.1301 68.78 40.2101 68.59 40.2801C68.47 40.0901 68.28 40.0701 68.08 40.0901C67.36 40.0901 66.64 40.0701 65.93 40.0601Z" fill="#A23E1E"></path>
  <path d="M97.92 40.25C99.07 40.01 100.22 39.91 101.36 40.28C100.21 40.38 99.06 40.41 97.92 40.25Z" fill="#D06D49"></path>
  <path d="M79.83 25.69C79.83 25.51 79.82 25.33 79.81 25.14C80.33 25.14 80.86 25.15 81.38 25.16V25.45C80.9 25.79 80.34 25.61 79.82 25.69H79.83Z" fill="#AE5131"></path>
  <path d="M87.27 30.48C87.77 31.53 87.5 32.63 87.48 33.71C87.18 32.65 87.27 31.56 87.27 30.48Z" fill="#EEF0E2"></path>
  <path d="M71.54 29.46C71.36 29.46 71.17 29.45 70.99 29.44C70.56 29.44 70.12 29.44 69.69 29.45C69.42 29.43 69.15 29.42 68.88 29.4C68.88 29.32 68.87 29.24 68.87 29.16C68.96 29.16 69.05 29.16 69.14 29.16C70.03 29.16 70.92 29.16 71.81 29.16H71.92H72.03C72.03 29.25 72.03 29.34 72.03 29.44C71.95 29.44 71.86 29.46 71.78 29.48C71.7 29.46 71.63 29.46 71.55 29.48L71.54 29.46Z" fill="#DF9127"></path>
  <path d="M103.82 38.0301C104.34 38.0001 104.87 37.9701 105.39 37.9301C105.37 38.2001 105.34 38.4601 105.32 38.7301C105.17 38.7301 105.01 38.7101 104.86 38.7001C104.67 38.2401 104.14 38.2901 103.82 38.0301Z" fill="#F1D556"></path>
  <path d="M73.9 25.7C74.45 25.18 75.14 25.52 75.76 25.41C75.75 25.5 75.74 25.59 75.72 25.69C75.11 25.7 74.51 26.14 73.89 25.7H73.9Z" fill="#B65421"></path>
  <path d="M59.54 38.21C58.62 38.77 57.6 38.34 56.63 38.49C56.63 38.4 56.63 38.31 56.63 38.22C57.6 38.22 58.57 38.22 59.53 38.22L59.54 38.21Z" fill="#9DA454"></path>
  <path d="M51.32 23.86C51.7 23.83 52.1 23.76 52.41 24.08C52.39 24.18 52.37 24.28 52.35 24.39C52.26 24.46 52.17 24.53 52.08 24.59C51.82 24.59 51.57 24.6 51.31 24.61C51.31 24.36 51.31 24.11 51.32 23.86Z" fill="#D9B23B"></path>
  <path d="M103.77 39.78C103.58 39.85 103.4 39.91 103.21 39.98C103.13 39.92 103.04 39.86 102.96 39.8C102.96 39.72 102.96 39.63 102.96 39.55C103.56 39.4 104.16 39.2 104.79 39.28C104.8 39.37 104.81 39.45 104.82 39.54C104.64 39.61 104.46 39.69 104.27 39.76C104.09 39.5 103.92 39.54 103.76 39.79L103.77 39.78Z" fill="#BC5936"></path>
  <path d="M54.49 34.51C54.49 34.41 54.49 34.31 54.49 34.22C55.2 34.09 55.96 34.5 56.62 33.98L56.64 33.96H56.75H56.86C56.84 34.13 56.83 34.31 56.81 34.48C56.04 34.48 55.26 34.5 54.49 34.51Z" fill="#D06E56"></path>
  <path d="M35.56 38.4701C36.07 37.9901 36.83 38.0701 37.38 37.6801C37.38 37.8601 37.38 38.0401 37.37 38.2201C36.78 38.3901 36.19 38.5701 35.56 38.4801V38.4701Z" fill="#A99D45"></path>
  <path d="M65.93 40.06C66.65 40.06 67.37 40.08 68.08 40.09C68.08 40.16 68.07 40.23 68.08 40.31C67.19 40.43 66.3 40.43 65.4 40.31C65.4 40.24 65.4 40.17 65.4 40.1V40.04C65.57 40.04 65.75 40.06 65.93 40.07V40.06Z" fill="#B55339"></path>
  <path d="M37.39 37.15C37.22 37.15 37.07 37.41 36.89 37.18C36.89 37.01 36.89 36.83 36.9 36.66C37.07 36.29 37.23 35.91 37.4 35.54C37.4 36.08 37.4 36.61 37.39 37.15Z" fill="#C7CDBB"></path>
  <path d="M49.34 25.91C49.23 25.91 49.11 25.91 49 25.91C49.03 25.73 49.2 25.52 48.9 25.41C48.9 25.34 48.89 25.27 48.88 25.2C49.1 25.18 49.31 25.14 49.42 24.91C49.42 24.83 49.42 24.76 49.42 24.68C49.51 24.67 49.6 24.65 49.69 24.64C49.69 24.98 49.69 25.32 49.68 25.66C49.57 25.75 49.46 25.83 49.35 25.92L49.34 25.91Z" fill="#CD6B45"></path>
  <path d="M76.58 39.82C77.04 39.81 77.51 39.79 77.97 39.78C78.32 39.8 78.68 39.82 79.03 39.85C78.23 40.16 77.4 40.09 76.57 40.04C76.57 39.97 76.58 39.9 76.58 39.83V39.82Z" fill="#794C3E"></path>
  <path d="M31.83 40.1C32.64 40.1 33.44 40.1 34.25 40.1C34.25 40.17 34.25 40.23 34.25 40.3C33.45 40.3 32.65 40.3 31.84 40.3C31.84 40.23 31.84 40.16 31.84 40.09L31.83 40.1Z" fill="#C55B3F"></path>
  <path d="M47.03 39.54C46.75 39.53 46.45 39.59 46.25 39.31C46.42 39.3 46.59 39.28 46.76 39.27C47.06 39.28 47.36 39.31 47.58 39.04C47.75 39.03 47.93 39.02 48.1 39.01C48.1 39.1 48.08 39.2 48.08 39.29C48 39.37 47.92 39.46 47.84 39.54C47.58 39.54 47.31 39.54 47.05 39.54H47.03Z" fill="#9D3C04"></path>
  <path d="M81.39 25.16C80.87 25.16 80.34 25.15 79.82 25.14C79.8 25.05 79.82 24.96 79.84 24.88C80.52 24.88 81.2 24.88 81.88 24.88C81.88 24.97 81.88 25.06 81.88 25.15C81.72 25.15 81.55 25.15 81.39 25.15V25.16Z" fill="#A6471C"></path>
  <path d="M79.86 24.64C79.93 24.54 79.99 24.45 80.06 24.35C80.69 24.35 81.31 24.35 81.94 24.35C81.94 24.44 81.92 24.53 81.91 24.62C81.23 24.62 80.55 24.63 79.86 24.64Z" fill="#DE972D"></path>
  <path d="M49.68 24.62C49.59 24.63 49.5 24.65 49.41 24.66C49.25 24.64 49.08 24.61 48.92 24.59C48.91 24.51 48.9 24.44 48.89 24.36C48.97 24.19 49.05 24.03 49.14 23.86C49.39 23.82 49.59 23.89 49.74 24.1C49.72 24.27 49.7 24.44 49.69 24.62H49.68Z" fill="#EFB543"></path>
  <path d="M76.58 39.8201C76.58 39.8901 76.58 39.9601 76.57 40.0301C75.87 40.0301 75.17 40.0301 74.47 40.0301C74.47 39.9601 74.47 39.9001 74.48 39.8301C75.18 39.8301 75.88 39.8201 76.57 39.8101L76.58 39.8201Z" fill="#CA7358"></path>
  <path d="M90.67 31.26C90.74 31.64 90.8 32.01 90.32 32.32C90.14 31.95 90.1 31.62 90.21 31.26H90.67Z" fill="#797978"></path>
  <path d="M79.86 24.64C80.54 24.64 81.22 24.63 81.91 24.62C81.91 24.71 81.9 24.8 81.89 24.88C81.21 24.88 80.53 24.88 79.84 24.88C79.82 24.8 79.82 24.72 79.86 24.64Z" fill="#B65C17"></path>
  <path d="M74.49 39.83C74.48 39.9 74.47 39.9601 74.48 40.0301C73.77 39.9501 73 40.48 72.36 39.8C73.07 39.8 73.79 39.82 74.5 39.83H74.49Z" fill="#B85230"></path>
  <path d="M42.49 40.09C43.2 40.09 43.92 40.09 44.63 40.09C44.63 40.16 44.63 40.23 44.63 40.3C43.92 40.3 43.2 40.3 42.49 40.3C42.49 40.23 42.49 40.16 42.49 40.08V40.09Z" fill="#BD573C"></path>
  <path d="M79.03 39.8399C78.68 39.8199 78.32 39.8 77.97 39.77C78.53 39.33 79.19 39.6299 79.8 39.5499C79.8 39.6199 79.8 39.7 79.8 39.77C79.55 39.79 79.29 39.8099 79.04 39.8399H79.03Z" fill="#BB5531"></path>
  <path d="M62.2 35.82C62.03 35.82 61.87 35.81 61.7 35.8C61.65 35.32 61.59 34.84 61.92 34.42C62.01 34.89 62.11 35.35 62.2 35.82Z" fill="#F9F7F0"></path>
  <path d="M69.92 30.18C70.54 29.88 71.16 29.81 71.78 30.16C71.16 30.16 70.54 30.17 69.92 30.18Z" fill="#F3896C"></path>
  <path d="M81.93 24.35C81.3 24.35 80.68 24.35 80.05 24.35C80.64 23.84 81.32 24.17 81.96 24.12C82 24.21 81.99 24.29 81.92 24.36L81.93 24.35Z" fill="#D8AD39"></path>
  <path d="M73.87 23.6L73.79 23.62C73.77 23.08 73.49 22.52 73.86 22C73.9 22.24 73.94 22.47 73.98 22.71C73.98 22.98 73.98 23.26 73.98 23.53C73.94 23.56 73.91 23.58 73.87 23.61V23.6Z" fill="#B0A854"></path>
  <path d="M56.63 39.8101C57.16 39.8101 57.69 39.8101 58.22 39.8201C58.22 39.8901 58.22 39.9601 58.22 40.0401C57.69 39.9701 57.09 40.4001 56.64 39.8101H56.63Z" fill="#C46342"></path>
  <path d="M64.34 39.79C64.69 39.85 65.1 39.7 65.39 40.03V40.09C65.3 40.16 65.21 40.23 65.13 40.29C64.82 40.35 64.58 40.19 64.33 40.05C64.33 39.97 64.33 39.89 64.33 39.81V39.78L64.34 39.79Z" fill="#A23E1E"></path>
  <path d="M52.08 24.6C52.17 24.53 52.26 24.46 52.35 24.4C52.38 24.91 52.4 25.43 52.15 25.9C52.12 25.77 52.08 25.64 52.05 25.51C52.05 25.38 52.05 25.26 52.06 25.13C52.06 24.95 52.08 24.78 52.08 24.6Z" fill="#A07D3A"></path>
  <path d="M23.32 40.04C23.8 39.63 24.38 39.9 24.9 39.81C24.44 40.38 23.85 39.99 23.32 40.04Z" fill="#CE6B41"></path>
  <path d="M52.05 25.12C52.05 25.25 52.05 25.37 52.04 25.5C51.84 25.55 51.63 25.59 51.45 25.64C51.2 25.41 51.3 25.15 51.31 24.9C51.56 24.97 51.81 25.05 52.06 25.12H52.05Z" fill="#AA6A3C"></path>
  <path d="M49.99 39.8101C50.42 39.8101 50.86 39.8101 51.29 39.8101C51.29 39.8801 51.29 39.9601 51.29 40.0301C50.85 39.9901 50.34 40.3601 49.99 39.8101Z" fill="#BE5D40"></path>
  <path d="M52.05 25.12C51.8 25.05 51.55 24.97 51.3 24.9C51.3 24.8 51.3 24.71 51.3 24.61C51.56 24.61 51.81 24.6 52.07 24.59C52.07 24.77 52.05 24.94 52.05 25.12Z" fill="#AC641E"></path>
  <path d="M51.29 40.0399C51.29 39.9699 51.29 39.8899 51.29 39.8199C51.73 39.8199 52.17 39.8199 52.62 39.8199C52.62 39.8999 52.62 39.9699 52.6 40.0399C52.16 40.0399 51.73 40.0399 51.29 40.0399Z" fill="#CA7253"></path>
  <path d="M80.81 36.62C80.73 36.62 80.65 36.61 80.56 36.59C80.56 36.32 80.55 36.06 80.54 35.79C80.56 35.64 80.59 35.48 80.61 35.33C80.68 35.31 80.74 35.3 80.8 35.28C80.8 35.73 80.8 36.18 80.8 36.63L80.81 36.62Z" fill="#799E79"></path>
  <path d="M18.03 26.76C18.36 27.2 18.36 27.64 18.03 28.08C18.03 27.64 18.03 27.2 18.03 26.76Z" fill="#FDFEFA"></path>
  <path d="M44.63 40.3C44.63 40.23 44.63 40.16 44.63 40.09C45.07 40.09 45.51 40.09 45.95 40.09C45.95 40.14 45.95 40.19 45.97 40.24C45.53 40.39 45.08 40.34 44.63 40.29V40.3Z" fill="#D0684B"></path>
  <path d="M36.36 39.84C36.54 39.51 36.86 39.55 37.16 39.53C37.07 39.99 36.65 39.84 36.37 39.97L36.36 39.84Z" fill="#BA5A34"></path>
  <path d="M38.21 27.3C38.14 27.3 38.06 27.3 37.99 27.33C37.99 26.95 37.8 26.52 38.27 26.26C38.25 26.61 38.23 26.95 38.21 27.3Z" fill="#D8DCCF"></path>
  <path d="M47.03 39.54C47.29 39.54 47.56 39.54 47.82 39.54C47.82 39.62 47.82 39.7 47.82 39.78C47.64 39.85 47.46 39.92 47.28 39.98C47.19 39.91 47.1 39.85 47.02 39.78C47.02 39.7 47.02 39.62 47.02 39.54H47.03Z" fill="#B05818"></path>
  <path d="M58.21 40.04C58.21 39.97 58.21 39.9 58.21 39.82C58.57 39.82 58.96 39.7 59.27 40.01C58.92 40.01 58.56 40.03 58.21 40.04Z" fill="#C17155"></path>
  <path d="M37.18 39.28C36.81 39.28 36.44 39.27 36.07 39.26C36.39 38.91 36.81 39.04 37.19 39.01C37.19 39.1 37.19 39.19 37.18 39.28Z" fill="#A74507"></path>
  <path d="M80.82 35.27C80.76 35.29 80.69 35.31 80.63 35.32C80.58 34.93 80.5 34.54 80.82 34.21C80.82 34.56 80.82 34.91 80.82 35.27Z" fill="#DADCC5"></path>
  <path d="M28.63 35.83C28.46 35.83 28.3 35.82 28.13 35.81C28.13 35.63 28.13 35.46 28.13 35.28C28.48 35.3 28.63 35.49 28.62 35.83H28.63Z" fill="#FBFBF2"></path>
  <path d="M45.97 40.25C45.95 40.2 45.95 40.15 45.95 40.1C46.13 39.77 46.45 39.82 46.75 39.82C46.75 39.9 46.75 39.98 46.75 40.06C46.49 40.13 46.23 40.19 45.97 40.26V40.25Z" fill="#B05818"></path>
  <path d="M31.83 40.1C31.83 40.17 31.83 40.24 31.83 40.31C31.47 40.31 31.11 40.3 30.75 40.29C31.06 39.95 31.45 40.1 31.82 40.1H31.83Z" fill="#CF6C50"></path>
  <path d="M39.81 39.56C40.12 39.54 40.43 39.51 40.63 39.81C40.63 39.88 40.63 39.96 40.63 40.03C40.32 39.93 39.97 39.9 39.8 39.56H39.81Z" fill="#AE5630"></path>
  <path d="M42.49 40.09C42.49 40.16 42.49 40.23 42.49 40.31C42.14 40.29 41.8 40.27 41.45 40.24C41.76 39.98 42.13 40.07 42.48 40.09H42.49Z" fill="#BA614A"></path>
  <path d="M72.02 29.14H71.91H71.8C71.71 29.05 71.62 28.97 71.53 28.88V28.61C71.62 28.53 71.71 28.44 71.8 28.36C71.89 28.36 71.97 28.37 72.06 28.38C72.05 28.64 72.03 28.89 72.02 29.15V29.14Z" fill="#E9BE49"></path>
  <path d="M52.6 40.04C52.61 39.97 52.62 39.89 52.62 39.82C52.88 39.82 53.13 39.8 53.39 39.79C53.23 40.21 52.89 40.04 52.6 40.04Z" fill="#845B41"></path>
  <path d="M104.83 39.54C104.83 39.45 104.81 39.36 104.8 39.28C104.91 39.19 105.01 39.11 105.12 39.02C105.18 39.02 105.24 39.02 105.3 39.02C105.43 39.46 105.25 39.61 104.83 39.55V39.54Z" fill="#E7885E"></path>
  <path d="M60.29 38.2099C60.04 38.2099 59.79 38.2099 59.54 38.2099C59.72 37.9099 60.02 37.9499 60.3 37.9399C60.3 38.0299 60.3 38.1199 60.29 38.2099Z" fill="#9DA454"></path>
  <path d="M96.7 39.81C97.04 39.82 97.42 39.74 97.64 40.12C97.31 40.06 96.93 40.15 96.7 39.81Z" fill="#C86C51"></path>
  <path d="M101.92 40.14C101.79 39.52 102.28 39.95 102.44 39.83C102.44 39.9 102.43 39.97 102.43 40.04C102.26 40.07 102.09 40.1 101.92 40.13V40.14Z" fill="#C85F36"></path>
  <path d="M102.43 40.04C102.43 39.97 102.43 39.9 102.44 39.83C102.52 39.81 102.6 39.8 102.69 39.78C102.78 39.79 102.87 39.8 102.96 39.79C103.04 39.85 103.13 39.91 103.21 39.97C102.95 39.99 102.69 40.01 102.43 40.03V40.04Z" fill="#C97651"></path>
  <path d="M34.25 40.3C34.25 40.23 34.25 40.17 34.25 40.1C34.52 40.06 34.79 40.04 35.01 40.25C34.75 40.27 34.5 40.28 34.24 40.3H34.25Z" fill="#DB7256"></path>
  <path d="M36.36 39.8399L36.37 39.9699C36.09 40.0099 35.82 40.0399 35.54 40.0799C35.75 39.7699 36.05 39.7999 36.35 39.8399H36.36Z" fill="#B96342"></path>
  <path d="M29.72 39.99C29.81 39.92 29.9 39.85 29.99 39.78C30.23 39.83 30.44 39.9 30.52 40.17C30.25 40.11 29.99 40.06 29.72 40V39.99Z" fill="#C06445"></path>
  <path d="M79.79 39.77C79.79 39.7 79.79 39.62 79.79 39.55C79.96 39.55 80.14 39.54 80.31 39.53C80.26 39.88 80.01 39.8 79.79 39.77Z" fill="#CF684C"></path>
  <path d="M103.77 39.78C103.93 39.53 104.1 39.5 104.28 39.75C104.11 39.75 103.94 39.77 103.77 39.78Z" fill="#E97C62"></path>
  <path d="M46.75 40.05C46.75 39.97 46.75 39.89 46.75 39.81C46.84 39.81 46.93 39.79 47.02 39.79C47.11 39.86 47.19 39.92 47.28 39.99C47.1 40.01 46.92 40.03 46.74 40.06L46.75 40.05Z" fill="#C26D54"></path>
  <path d="M62.17 33.02C62.21 33.27 62.21 33.5 61.99 33.68C61.94 33.43 61.95 33.2 62.17 33.02Z" fill="#F9F7F0"></path>
  <path d="M64.33 39.8101C64.33 39.8901 64.33 39.9701 64.33 40.0501C64.15 40.0301 63.97 40.0201 63.79 40.0001C63.97 39.9401 64.14 39.8701 64.32 39.8101H64.33Z" fill="#BD674A"></path>
  <path d="M60.35 37.13C60.28 37.13 60.21 37.15 60.14 37.15C60.08 36.92 60.14 36.74 60.32 36.6C60.32 36.78 60.34 36.95 60.35 37.13Z" fill="#9DA454"></path>
  <path d="M71.56 37.17C71.63 37.15 71.69 37.14 71.76 37.13C71.75 37.31 71.74 37.5 71.73 37.68C71.66 37.68 71.6 37.67 71.54 37.66C71.54 37.5 71.56 37.33 71.57 37.17H71.56Z" fill="#A75918"></path>
  <path d="M81.39 25.16C81.55 25.16 81.72 25.16 81.88 25.16C81.86 25.51 81.61 25.46 81.39 25.45C81.39 25.35 81.39 25.26 81.39 25.16Z" fill="#BA6C4B"></path>
  <path d="M50.17 35.73C50.27 35.98 50.19 36.18 49.99 36.34C49.93 36.1 49.96 35.89 50.17 35.73Z" fill="#DDDEC8"></path>
  <path d="M61.71 39C61.93 39 62.12 39.06 62.2 39.29C61.98 39.29 61.75 39.29 61.71 39Z" fill="#B8653F"></path>
  <path d="M70.46 39.28C70.55 39.19 70.64 39.1 70.73 39.01C70.73 39.1 70.73 39.19 70.73 39.28C70.64 39.35 70.55 39.42 70.47 39.48C70.47 39.41 70.47 39.35 70.47 39.28H70.46Z" fill="#A75918"></path>
  <path d="M39.28 39.28C39.51 39.28 39.71 39.34 39.83 39.56C39.6 39.56 39.38 39.54 39.28 39.28Z" fill="#B5802B"></path>
  <path d="M105.3 39.01C105.24 39.01 105.18 39.01 105.12 39.01C105.01 38.93 104.91 38.85 104.8 38.78L104.86 38.7C105.01 38.7 105.17 38.7199 105.32 38.7299C105.32 38.8199 105.31 38.92 105.3 39.01Z" fill="#D9B030"></path>
  <path d="M62.19 39.29C62.42 39.28 62.62 39.32 62.75 39.55C62.53 39.55 62.28 39.59 62.19 39.29Z" fill="#B6683A"></path>
  <path d="M63.02 39.7301C63.24 39.5001 63.41 39.5601 63.54 39.8201C63.37 39.7901 63.19 39.7601 63.02 39.7301Z" fill="#BC6035"></path>
  <path d="M68.08 40.3C68.08 40.23 68.08 40.16 68.08 40.08C68.28 40.07 68.47 40.08 68.59 40.27C68.42 40.27 68.25 40.28 68.07 40.29L68.08 40.3Z" fill="#CD7259"></path>
  <path d="M47.83 39.78C47.83 39.7 47.83 39.62 47.83 39.54C47.91 39.54 47.98 39.54 48.06 39.54C48.09 39.72 48 39.79 47.83 39.77V39.78Z" fill="#D37855"></path>
  <path d="M69.94 39.5601C70.03 39.5601 70.13 39.5601 70.22 39.5601C70.19 39.7201 70.1 39.8001 69.93 39.7901C69.93 39.7201 69.93 39.6401 69.93 39.5701L69.94 39.5601Z" fill="#B46141"></path>
  <path d="M96.33 39.73C96.44 39.62 96.51 39.67 96.56 39.79C96.47 39.81 96.4 39.79 96.33 39.73Z" fill="#BA912C"></path>
  <path d="M62.46 32.35H62.37H62.28C62.34 32.12 62.39 32.28 62.45 32.35H62.46Z" fill="#F9F7F0"></path>
  <path d="M62.71 32.37C62.73 32.45 62.75 32.53 62.76 32.61C62.66 32.53 62.57 32.45 62.47 32.36C62.55 32.34 62.63 32.34 62.7 32.37H62.71Z" fill="#F9F7F0"></path>
  <path d="M40.64 40.0301C40.64 39.9601 40.64 39.8801 40.64 39.8101C40.73 39.8101 40.82 39.8101 40.91 39.8101C40.91 39.9001 40.91 39.9801 40.91 40.0701C40.82 40.0601 40.74 40.0501 40.65 40.0401L40.64 40.0301Z" fill="#CC714A"></path>
  <path d="M70.73 39.28C70.73 39.19 70.73 39.1 70.73 39.01C70.82 39.01 70.92 39.01 71.01 39.01C70.92 39.1 70.82 39.19 70.73 39.28Z" fill="#A66137"></path>
  <path d="M95.51 39C95.6 39.1 95.69 39.2 95.78 39.29C95.62 39.26 95.52 39.17 95.51 39Z" fill="#C5735B"></path>
  <path d="M69.14 40.0601C69.14 39.9801 69.13 39.8901 69.14 39.8101C69.22 39.8101 69.31 39.8101 69.39 39.8301C69.39 39.8901 69.39 39.9601 69.41 40.0201C69.32 40.0401 69.24 40.0501 69.15 40.0701L69.14 40.0601Z" fill="#D5714A"></path>
  <path d="M69.4 40.0099C69.4 39.9499 69.39 39.8799 69.38 39.8199C69.48 39.8199 69.58 39.8199 69.68 39.8199C69.58 39.8799 69.49 39.9499 69.39 40.0099H69.4Z" fill="#A75918"></path>
  <path d="M28.15 38.75C28.22 38.85 28.29 38.94 28.36 39.04C28.21 39 28.13 38.91 28.15 38.75Z" fill="#9E5E3F"></path>
  <path d="M48.05 39.55C47.97 39.55 47.9 39.55 47.82 39.55C47.9 39.47 47.98 39.38 48.06 39.3C48.06 39.39 48.06 39.47 48.06 39.56L48.05 39.55Z" fill="#B05818"></path>
  <path d="M70.46 39.28C70.46 39.35 70.46 39.41 70.46 39.48C70.37 39.51 70.28 39.53 70.19 39.56C70.28 39.47 70.36 39.37 70.45 39.28H70.46Z" fill="#C05C37"></path>
  <path d="M38.81 35.28C38.88 35.37 38.96 35.45 39.03 35.54C38.95 35.54 38.88 35.54 38.8 35.54C38.8 35.45 38.8 35.37 38.8 35.28H38.81Z" fill="#F9FAF3"></path>
  <path d="M29.18 39.75C29.3 39.61 29.38 39.67 29.45 39.81C29.36 39.79 29.27 39.77 29.18 39.75Z" fill="#D5714A"></path>
  <path d="M65.14 40.3C65.23 40.23 65.32 40.16 65.4 40.1C65.4 40.17 65.4 40.24 65.4 40.31C65.31 40.31 65.23 40.31 65.14 40.31V40.3Z" fill="#D3745A"></path>
  <path d="M72.06 28.38C71.97 28.38 71.89 28.37 71.8 28.36C71.9 28.28 72.01 28.2 72.11 28.12C72.09 28.21 72.07 28.3 72.06 28.38Z" fill="#B7BC57"></path>
  <path d="M69.94 39.5601C69.94 39.6301 69.94 39.7101 69.94 39.7801C69.86 39.8301 69.77 39.8401 69.68 39.8301C69.77 39.7401 69.85 39.6501 69.94 39.5601Z" fill="#A75918"></path>
  <path d="M43.34 26.97C43.09 29.22 42.83 31.47 42.6 33.57C43.04 34.13 43.48 33.91 43.83 34.01C43.39 34.43 42.79 34.04 42.38 34.38C41.42 33.51 41.35 32.56 41.94 31.6C42.61 30.5 42.59 29.28 42.77 28.09C42.84 26.38 42.61 24.62 43.56 23.05C43.56 23.4 43.57 23.75 43.58 24.11C43.54 24.19 43.54 24.27 43.58 24.35H43.55C43.18 25.12 43.33 25.95 43.29 26.75C43.25 26.84 43.27 26.91 43.35 26.97H43.34Z" fill="#F9FAF3"></path>
  <path d="M56.38 24.71C56.18 25.93 55.98 27.15 55.78 28.37C55.09 28.37 55.28 27.9 55.35 27.54C55.68 25.86 56.03 24.18 56.38 22.49C57.01 22.49 57.64 22.49 58.27 22.49C58.24 22.66 58.21 22.82 58.18 22.99C57.47 22.67 56.88 22.7 56.58 23.55C56.25 23.89 56.35 24.31 56.38 24.71Z" fill="#979D5E"></path>
  <path d="M45.7 36.6201C43.76 37.2101 41.83 36.8401 39.92 36.4601C39.68 36.4101 39.51 36.0401 39.3 35.8101C41.35 36.7801 43.6 36.1201 45.7 36.6201Z" fill="#F9FAF3"></path>
  <path d="M55 32.66C54.76 32.73 54.52 32.8 54.28 32.86C54.35 32.51 54.42 32.15 54.48 31.8C55.36 31.72 56.26 31.89 57.12 31.59C57.14 32.1 57.22 32.62 56.93 33.09C56.45 32.25 55.66 32.75 55 32.65V32.66Z" fill="#86A27E"></path>
  <path d="M50.55 32.8901C49.91 32.8901 49.28 32.8901 48.64 32.8901C48.62 31.1701 49.88 32.0701 50.6 31.8501C50.81 32.2701 50.8 32.6001 50.55 32.9001V32.8901Z" fill="#5F8B69"></path>
  <path d="M57.12 31.6C56.26 31.9 55.36 31.73 54.48 31.81C54.4 31.2 54.69 31.07 55.26 31.12C55.91 31.18 56.74 30.5 57.12 31.6Z" fill="#DBDFDC"></path>
  <path d="M55 32.66C55.65 32.76 56.44 32.25 56.93 33.1C56.9 33.21 56.88 33.32 56.85 33.43C56.05 33.34 55.28 33.59 54.5 33.69C54.43 33.23 54.83 33 55 32.66Z" fill="#BF8622"></path>
  <path d="M56.38 24.71C56.35 24.31 56.26 23.89 56.58 23.55C57.11 23.55 57.64 23.57 58.16 23.58C58.12 24.01 58.08 24.43 58.04 24.85C57.55 24.05 56.93 24.77 56.37 24.71H56.38Z" fill="#9A512A"></path>
  <path d="M58.27 22.49C57.64 22.49 57.01 22.49 56.38 22.49C56.38 21.53 57.11 21.68 57.68 21.66C58.22 21.64 58.5 21.9 58.27 22.49Z" fill="#62978D"></path>
  <path d="M54.49 33.69C55.27 33.59 56.04 33.34 56.84 33.43C56.84 33.6 56.84 33.78 56.85 33.96H56.74H56.63C56.46 33.78 56.29 33.57 55.95 33.89C56.21 33.92 56.41 33.95 56.61 33.97C55.95 34.49 55.18 34.08 54.48 34.21C54.48 34.04 54.48 33.86 54.48 33.69H54.49Z" fill="#A83C11"></path>
  <path d="M43.82 29.44C43.82 29.17 43.82 28.9 43.82 28.63C44.35 28.72 44.89 28.8 45.42 28.89C45.39 29.34 45.55 29.81 45.23 30.22H45.1C45.24 29.03 44.32 29.59 43.83 29.45L43.82 29.44Z" fill="#B2C9B9"></path>
  <path d="M43.84 31.82C43.83 31.46 43.81 31.1 43.8 30.74C44.26 30.74 44.72 30.74 45.12 31.01C45.12 31.11 45.11 31.21 45.1 31.31C44.8 31.78 44.36 31.9 43.84 31.82Z" fill="#A96433"></path>
  <path d="M58.16 23.58C57.63 23.58 57.11 23.56 56.58 23.55C56.88 22.7 57.47 22.67 58.18 22.99C58.18 23.18 58.17 23.38 58.16 23.57V23.58Z" fill="#C39124"></path>
  <path d="M48.1 36.3601C47.3 36.4501 46.5 36.5401 45.7 36.6201C46.23 35.6301 47.35 36.33 48.05 35.8C48.07 35.98 48.09 36.16 48.11 36.34L48.1 36.3601Z" fill="#F9FAF3"></path>
  <path d="M45.42 28.89C44.89 28.8 44.35 28.72 43.82 28.63C43.83 28.54 43.84 28.44 43.86 28.35C44.6 27.89 45.2 27.85 45.42 28.89Z" fill="#F9F7F2"></path>
  <path d="M45.12 31.01C44.72 30.73 44.26 30.74 43.8 30.74C43.8 30.57 43.81 30.39 43.82 30.22C44.24 30.22 44.67 30.22 45.09 30.22H45.22C45.19 30.48 45.15 30.75 45.12 31.01Z" fill="#A6A457"></path>
  <path d="M43.84 31.8201C44.36 31.8901 44.8 31.7801 45.1 31.3101C45.06 31.7501 45.29 32.2101 44.94 32.6101C45 31.7401 44.05 32.3001 43.83 31.8201H43.84Z" fill="#9E695E"></path>
  <path d="M44.3 26.17C44.92 25.84 45.57 25.99 46.22 26C45.61 26.41 44.95 26.19 44.3 26.17Z" fill="#F9F7F2"></path>
  <path d="M48.1 36.35C48.08 36.17 48.06 35.99 48.04 35.81C48.11 35.54 48.05 35.22 48.32 35.02C48.3 35.45 48.28 35.88 48.26 36.31C48.21 36.35 48.15 36.37 48.09 36.36L48.1 36.35Z" fill="#CFD9C2"></path>
  <path d="M44.13 26.76C44.1 26.54 44.02 26.3 44.3 26.17C44.41 26.42 44.69 26.71 44.13 26.76Z" fill="#F9F7F2"></path>
  <path d="M43.89 27.82C43.85 27.59 43.89 27.4 44.08 27.25C44.11 27.47 44.08 27.67 43.89 27.82Z" fill="#F9F7F2"></path>
  <path d="M39.04 35.55C39.13 35.55 39.22 35.55 39.3 35.55C39.3 35.64 39.3 35.73 39.3 35.82C39.21 35.73 39.13 35.64 39.04 35.56V35.55Z" fill="#F9FAF3"></path>
  <path d="M86.95 25.7001C86.79 25.6201 86.64 25.5301 86.48 25.4501C86.43 24.9701 86.37 24.5001 86.65 24.0601C86.75 24.0801 86.84 24.0901 86.93 24.1101C86.93 24.6401 86.93 25.1701 86.94 25.7001H86.95Z" fill="#8D918C"></path>
  <path d="M85.9 30.22C85.88 30.66 85.87 31.1 85.85 31.55C85.78 31.55 85.72 31.55 85.65 31.56C85.7 31.11 85.49 30.61 85.9 30.22Z" fill="#EEEAD8"></path>
  <path d="M85.32 35.25C85.36 35.55 85.44 35.86 85.1 36.06C85.12 35.78 85.1 35.48 85.32 35.25Z" fill="#EEEAD8"></path>
  <path d="M85.57 33.12C85.61 33.34 85.59 33.54 85.39 33.68C85.45 33.49 85.51 33.3 85.57 33.12Z" fill="#EEEAD8"></path>
  <path d="M86.72 23.56C86.75 23.45 86.79 23.24 86.81 23.24C87.05 23.25 86.94 23.44 86.95 23.57C86.87 23.57 86.8 23.56 86.72 23.56Z" fill="#C2C2C2"></path>
  <path d="M86.72 23.56C86.8 23.56 86.87 23.56 86.95 23.57C86.95 23.75 86.95 23.92 86.95 24.1C86.86 24.08 86.76 24.07 86.67 24.05C86.69 23.88 86.71 23.72 86.73 23.55L86.72 23.56Z" fill="#A3A4A4"></path>
  <path d="M100.07 24.89C99.98 24.08 99.94 23.27 100.24 22.49C101.22 22.59 102.19 22.68 103.17 22.78C103.21 23.05 103.24 23.33 103.03 23.55C102.15 22.96 101.28 22.58 100.57 23.78C100.16 24.07 100.31 24.49 100.31 24.88L100.3 24.9C100.23 24.9 100.15 24.9 100.08 24.9L100.07 24.89Z" fill="#A6AB69"></path>
  <path d="M100.33 22C100.26 21.47 100.44 21.15 101.03 21.16C101.68 21.18 102.34 21.16 102.88 21.16C103.32 21.54 103.21 21.9 103.21 22.25C102.29 21.69 101.3 22.03 100.33 22Z" fill="#DDE7DC"></path>
  <path d="M100.33 22C101.29 22.04 102.29 21.7 103.21 22.25C103.2 22.42 103.19 22.6 103.18 22.77C102.2 22.67 101.23 22.58 100.25 22.48C100.28 22.32 100.31 22.15 100.34 21.99L100.33 22Z" fill="#82ACA4"></path>
  <path d="M100.3 24.87C100.3 24.48 100.16 24.06 100.56 23.77C101.37 23.78 102.18 23.79 102.99 23.81L103.02 23.84C103.02 23.93 103.02 24.02 103.03 24.11C102.99 24.35 102.95 24.59 102.91 24.83C102.75 24.75 102.58 24.68 102.42 24.6C101.88 24.24 101.35 24.24 100.82 24.62C100.64 24.71 100.47 24.79 100.29 24.88L100.3 24.87Z" fill="#A95D23"></path>
  <path d="M102.99 23.81C102.18 23.8 101.37 23.79 100.56 23.77C101.28 22.57 102.14 22.95 103.02 23.54C103.01 23.63 102.99 23.71 102.98 23.8L102.99 23.81Z" fill="#DBA92B"></path>
  <path d="M100.07 24.89C100.14 24.89 100.22 24.9 100.29 24.89C100.27 25.17 100.32 25.47 100.04 25.67C99.89 25.4 100 25.14 100.07 24.88V24.89Z" fill="#A95D23"></path>
  <path d="M103.04 24.11C103.04 24.02 103.04 23.93 103.03 23.84C103.06 23.9 103.11 23.96 103.13 24.03C103.13 24.05 103.08 24.08 103.05 24.11H103.04Z" fill="#A6AB69"></path>
  <path d="M36.43 32.09C36.04 32.71 35.48 32.96 34.75 32.9C33.77 32.82 32.83 33.02 31.92 33.37C31.89 33.03 31.86 32.69 31.83 32.36C32.53 31.78 33.37 32.18 34.13 32.07C34.87 31.96 35.64 32.18 36.35 31.84C36.38 31.93 36.4 32.02 36.43 32.1V32.09Z" fill="#83A98F"></path>
  <path d="M34.42 28.84C34.44 28.5 34.47 28.16 34.49 27.82C35.67 28.05 36.78 27.34 37.96 27.54C38.15 28.59 36.73 28.55 36.67 29.44C36.17 28.31 35.12 29.22 34.42 28.84Z" fill="#D8DCCF"></path>
  <path d="M33.45 24.6C32.6 24.84 33.11 25.75 32.67 26.2C32.62 25.21 32.64 24.22 32.93 23.25C33.52 22.96 34.12 22.94 34.73 23.21C34.76 23.59 34.8 23.97 34.83 24.36L34.75 24.34C34.32 24.44 33.83 24.2 33.46 24.6H33.45Z" fill="#AA6932"></path>
  <path d="M34.82 24.36C34.79 23.98 34.75 23.6 34.72 23.21C34.82 22.8 34.97 22.38 34.54 21.98H32.92C33.07 20.49 34.14 21.41 34.77 21.19C35.21 21.8 34.98 22.43 35.05 23.02C34.97 23.46 35.18 23.96 34.81 24.35L34.82 24.36Z" fill="#E2EADF"></path>
  <path d="M32.92 21.98H34.54C34.97 22.38 34.82 22.8 34.72 23.21C34.12 22.94 33.52 22.96 32.92 23.25C32.92 22.83 32.92 22.4 32.92 21.98Z" fill="#86A88E"></path>
  <path d="M34.82 24.36C35.19 23.97 34.98 23.47 35.06 23.03C35.46 23.73 35.54 24.38 34.78 24.9H34.71C34.72 24.71 34.74 24.53 34.75 24.34L34.83 24.36H34.82Z" fill="#F7F8F0"></path>
  <path d="M34.55 26.22C34.51 25.92 34.55 25.64 34.75 25.4C34.79 25.7 34.82 26 34.55 26.22Z" fill="#F7F8F0"></path>
  <path d="M34.75 25.41C34.76 25.33 34.77 25.24 34.78 25.16C34.96 25.27 34.94 25.35 34.75 25.41Z" fill="#F7F8F0"></path>
  <path d="M25.44 34.75C25.44 35.13 25.51 35.52 25.19 35.82C25.17 35.44 25.07 35.04 25.44 34.75Z" fill="#DBDFC9"></path>
  <path d="M75.81 25.4C75.54 24.45 74.68 25.09 74.05 24.71C73.78 24.48 73.95 24.01 73.87 23.6C73.91 23.58 73.95 23.55 73.98 23.52C74.71 23.86 75.35 23.3 76.05 23.33C75.94 24.01 76.22 24.75 75.81 25.4Z" fill="#B0A854"></path>
  <path d="M76.05 23.34C75.35 23.31 74.7 23.87 73.98 23.53C73.98 23.26 73.98 22.98 73.98 22.71C74.45 22.71 74.93 22.75 75.39 22.68C75.96 22.6 76.06 22.89 76.06 23.34H76.05Z" fill="#C4D3C7"></path>
  <path d="M82.13 21.4C82.21 21.94 82.13 22.45 81.7 22.98C81.12 23.01 80.47 23.04 79.81 23.07C79.92 22.66 80.27 22.75 80.55 22.7C81.33 22.58 81.9 22.2 82.12 21.4H82.13Z" fill="#CBD3C0"></path>
  <path d="M78.82 24.9599L78.79 24.8499C78.79 24.8499 78.88 24.8199 78.89 24.8199C78.96 24.9199 78.94 24.9699 78.83 24.9599H78.82Z" fill="#F6F3E5"></path>
  <path d="M66.93 21.63C67.03 20.71 67.75 20.74 68.26 20.99C68.98 21.34 69.01 22.05 68.66 22.76C68.62 22.67 68.57 22.59 68.53 22.5C68.53 22.41 68.53 22.32 68.53 22.24C68.42 20.94 67.54 21.92 67.05 21.74C67.01 21.71 66.98 21.67 66.94 21.64L66.93 21.63Z" fill="#BACAC3"></path>
  <path d="M68.4 24.81C68.02 23.45 67.39 24.1 66.77 24.61C66.77 24.26 66.79 23.91 66.8 23.56C66.86 23.56 66.92 23.55 66.98 23.53C67.51 23.91 68.02 24.14 68.35 23.3C68.42 23.3 68.5 23.3 68.57 23.3C68.47 23.8 68.76 24.34 68.4 24.8V24.81Z" fill="#B55B45"></path>
  <path d="M66.97 23.53C66.91 23.54 66.85 23.55 66.79 23.56C66.78 23.38 66.76 23.21 66.75 23.03C66.83 22.85 66.91 22.67 67 22.49C67.51 22.49 68.02 22.49 68.53 22.49C68.57 22.58 68.62 22.66 68.66 22.75C68.63 22.93 68.6 23.12 68.57 23.31C68.5 23.31 68.42 23.31 68.35 23.31V23.24C68.02 22.53 67.67 22.49 67.29 23.21L66.98 23.54L66.97 23.53Z" fill="#B7A03A"></path>
  <path d="M67 22.49C66.92 22.67 66.84 22.85 66.75 23.03C66.73 22.67 66.72 22.31 66.7 21.96C66.77 21.85 66.85 21.74 66.92 21.63C66.96 21.66 66.99 21.69 67.03 21.73C67.03 21.89 67.02 22.06 67.01 22.22C67.01 22.31 67.01 22.4 67 22.49Z" fill="#BACAC3"></path>
  <path d="M62.75 32.6C62.92 32.61 63.08 32.62 63.25 32.63C63.48 32.88 63.7 33.14 64.07 33.15C64.21 33.31 64.36 33.44 64.59 33.42C64.81 33.71 65.14 33.71 65.46 33.74C66.01 34.15 66.66 33.84 67.25 33.99C66.74 34.89 65.75 34.19 65.22 34.66C64.57 33.66 63.08 33.8 62.74 32.6H62.75Z" fill="#F9F7F0"></path>
  <path d="M65.94 36.8699C64.86 36.6799 63.68 36.8699 62.74 36.0899C62.9 35.7299 63.25 35.3999 63.55 35.5899C64.33 36.0599 65.34 36.0899 65.94 36.8699Z" fill="#F9F7F0"></path>
  <path d="M68.09 29.42C68.17 29.33 68.25 29.24 68.33 29.15C68.51 29.15 68.69 29.15 68.87 29.15C68.87 29.23 68.87 29.31 68.88 29.39C68.78 29.49 68.69 29.59 68.59 29.69C68.36 29.7 68.2 29.6 68.09 29.41V29.42Z" fill="#C2A63E"></path>
  <path d="M69.17 29.95C69.22 30.02 69.29 30.06 69.37 30.05H69.25L69.17 29.95Z" fill="#B1450A"></path>
  <path d="M45.97 39.2901C45.88 39.3801 45.79 39.4601 45.7 39.5501C45.25 39.5501 44.8 39.5301 44.36 39.5301C44.85 39.1001 45.43 39.3501 45.98 39.3001L45.97 39.2901Z" fill="#B05818"></path>
  <path d="M40.37 39.0101C39.95 38.9801 39.58 38.8301 39.32 38.4801C39.77 38.4501 40.17 38.5401 40.37 39.0101Z" fill="#B5802B"></path>
  <path d="M47.57 39.0401C47.35 39.3101 47.05 39.2801 46.75 39.2701C46.96 38.9701 47.26 39.0101 47.57 39.0401Z" fill="#B05818"></path>
  <path d="M39.3 38.46C39.19 38.3 39.08 38.13 38.97 37.97C39.23 38.03 39.29 38.23 39.3 38.46Z" fill="#B5802B"></path>
  <path d="M64.86 38.48C64.36 37.93 63.54 38.15 63 37.68C63.64 37.67 64.28 37.65 64.92 37.64C67.14 37.72 69.4 37.97 71.24 36.28C71.17 37.22 70.45 37.55 69.74 37.88C69.28 38.09 68.73 38.1 68.34 38.47C68.24 38.5 68.13 38.52 68.03 38.55C67.35 38.55 66.66 38.56 65.98 38.57C65.61 38.54 65.23 38.51 64.86 38.48Z" fill="#7A9D7A"></path>
  <path d="M103.82 38.03C104.14 38.3 104.67 38.24 104.86 38.7C104.86 38.7 104.8 38.78 104.8 38.77C104.04 39.08 103.15 38.82 102.42 39.25C102.07 39.25 101.71 39.25 101.36 39.25C101.28 39.01 101.2 38.78 101.12 38.54C101.94 38.41 102.81 38.53 103.52 37.96C103.62 37.98 103.72 38 103.83 38.03H103.82Z" fill="#D9B030"></path>
  <path d="M103.23 37.4C103.23 37.57 103.22 37.75 103.21 37.92C102.5 37.84 101.74 38.19 101.09 37.67C101.36 37.58 101.63 37.49 101.9 37.4H102.03L102.15 37.38L103.23 37.4Z" fill="#90BDA7"></path>
  <path d="M34.23 37.71C33.98 38 33.72 38 33.46 37.73C33.72 37.73 33.97 37.72 34.23 37.71Z" fill="#93AD81"></path>
  <path d="M93.6 38.45C91.83 38.46 90.07 38.48 88.3 38.49C88.14 38.49 87.97 38.49 87.81 38.49C89.74 38.02 91.67 38.07 93.6 38.45Z" fill="#A3A252"></path>
  <path d="M87.81 38.49C87.97 38.49 88.14 38.49 88.3 38.49C88.3 38.57 88.3 38.66 88.3 38.74C88.3 38.83 88.3 38.91 88.29 39C88.13 38.98 87.96 38.95 87.8 38.93C87.8 38.78 87.8 38.64 87.8 38.49H87.81Z" fill="#CFA93F"></path>
  <path d="M19.59 38.45C19.23 38.29 18.87 38.14 18.51 37.98C19.83 37.4 21.26 37.6 22.64 37.43C23.38 37.34 24.14 37.39 24.89 37.37C24.89 38.01 24.51 38.25 23.95 38.2C22.48 38.08 21.05 38.46 19.6 38.44L19.59 38.45Z" fill="#83AE83"></path>
  <path d="M102.15 37.39L102.03 37.41H101.9C101.97 37.28 102.05 37.24 102.15 37.39Z" fill="#F2F4E5"></path>
  <path d="M28.39 38.19C29.03 38.18 29.6 38.61 30.25 38.46C30.34 38.46 30.42 38.45 30.5 38.41L30.52 38.51C30.8 38.87 31.22 38.66 31.57 38.78C31.66 39.04 31.36 39.08 31.31 39.27C30.2 39.29 29.13 39.17 28.39 38.19Z" fill="#C89A23"></path>
  <path d="M35.84 39.27C35.45 39.72 34.94 39.49 34.47 39.52C34.87 39.15 35.38 39.31 35.84 39.27Z" fill="#A74507"></path>
  <path d="M30.51 38.41C30.43 38.45 30.35 38.46 30.26 38.46C30.26 38.38 30.26 38.3 30.26 38.22C30.35 38.28 30.44 38.35 30.52 38.41H30.51Z" fill="#93AD81"></path>
  <path d="M79.78 38.48C79.99 38.17 80.18 38.25 80.36 38.52C80.36 38.6 80.34 38.68 80.33 38.75C80.15 38.66 79.97 38.57 79.79 38.48H79.78Z" fill="#CDAF3A"></path>
  <path d="M102.42 39.26C103.16 38.82 104.04 39.09 104.8 38.78C104.91 38.86 105.01 38.94 105.12 39.02C105.01 39.11 104.91 39.19 104.8 39.28C104.16 39.2 103.57 39.39 102.97 39.55C102.85 39.33 102.64 39.29 102.42 39.27V39.26Z" fill="#C35D18"></path>
  <path d="M102.96 39.8C102.87 39.8 102.78 39.8001 102.69 39.7901C102.78 39.7101 102.87 39.63 102.96 39.55C102.96 39.63 102.96 39.72 102.96 39.8Z" fill="#C35D18"></path>
  <path d="M43.57 24.3501C43.52 24.2701 43.52 24.1901 43.57 24.1101C45.41 23.6601 47.28 23.8401 49.14 23.8701C49.06 24.0401 48.98 24.2001 48.89 24.3701C47.12 24.3701 45.35 24.3701 43.57 24.3601V24.3501Z" fill="#E7B12F"></path>
  <path d="M68.32 28.89C68.32 28.72 68.32 28.54 68.32 28.37C69.48 28.37 70.64 28.37 71.8 28.36C71.71 28.44 71.62 28.53 71.54 28.61C70.46 28.63 69.37 28.5 68.32 28.89Z" fill="#B7BC57"></path>
  <path d="M65.42 39.53C64.99 39.03 64.23 39.53 63.8 39.01C65.66 39.01 67.53 39 69.39 38.99L69.41 39.01C69.41 39.09 69.4 39.17 69.39 39.25C68.08 39.52 66.75 39.56 65.42 39.52V39.53Z" fill="#BE8A22"></path>
  <path d="M65.98 38.57C66.66 38.57 67.35 38.56 68.03 38.55C67.35 38.86 66.67 38.84 65.98 38.57Z" fill="#BE8A22"></path>
  <path d="M71.56 37.17C71.56 37.33 71.54 37.5 71.53 37.66L71.51 37.68C71.43 37.77 71.34 37.85 71.26 37.94C71.18 38.03 71.09 38.12 71.01 38.21C70.92 38.29 70.83 38.38 70.75 38.46C70.67 38.46 70.58 38.46 70.5 38.47L70.47 38.44C70.47 38.28 70.47 38.11 70.48 37.95C70.84 37.68 71.2 37.41 71.57 37.15L71.56 37.17Z" fill="#BE8A22"></path>
  <path d="M70.2 38.74C70.09 38.96 69.88 38.99 69.67 39.02C69.58 39.02 69.5 39.02 69.41 39.02L69.39 39C69.59 38.71 69.9 38.75 70.2 38.75V38.74Z" fill="#BE8A22"></path>
  <path d="M70.46 38.74C70.37 38.74 70.29 38.74 70.2 38.74C70.29 38.65 70.37 38.56 70.46 38.47C70.46 38.47 70.49 38.5 70.49 38.49C70.49 38.57 70.47 38.65 70.46 38.73V38.74Z" fill="#BE8A22"></path>
  <path d="M51.52 39.25C51.6 39.28 51.69 39.3 51.77 39.33C51.31 39.5167 50.8 39.51 50.24 39.31C50.67 39.29 51.09 39.27 51.52 39.25Z" fill="#A74202"></path>
  <path d="M70.46 38.74C70.46 38.66 70.48 38.58 70.49 38.5C70.57 38.5 70.66 38.49 70.74 38.5C70.65 38.58 70.55 38.67 70.46 38.75V38.74Z" fill="#A75918"></path>
  <path d="M69.41 39.02C69.5 39.02 69.58 39.02 69.67 39.02C69.58 39.1 69.48 39.18 69.39 39.26C69.39 39.18 69.4 39.1 69.41 39.02Z" fill="#A75918"></path>
  <path d="M70.74 38.48C70.83 38.4 70.92 38.31 71 38.23C70.91 38.31 70.82 38.4 70.74 38.48Z" fill="#A75918"></path>
  <path d="M71.26 37.9401C71.34 37.8501 71.43 37.7701 71.51 37.6801C71.42 37.7701 71.34 37.8501 71.26 37.9401Z" fill="#A75918"></path>
  <path d="M64.6 33.42C64.37 33.44 64.21 33.32 64.08 33.15C64.15 33.15 64.22 33.15 64.29 33.15C64.39 33.24 64.5 33.33 64.61 33.42H64.6Z" fill="#95712E"></path>
  <path d="M36.09 33.15C36.18 33.07 36.27 32.99 36.35 32.91C36.26 32.99 36.17 33.07 36.09 33.15Z" fill="#D0BA6E"></path>
  <path d="M88.07 39.3101C89.83 39.3101 91.59 39.3101 93.35 39.3101C91.59 39.6901 89.83 39.6801 88.07 39.3101Z" fill="#9F3F03"></path>
  <path d="M69.69 29.4499C70.12 29.4499 70.56 29.4499 70.99 29.4399C70.56 29.8099 70.12 29.7999 69.69 29.4499Z" fill="#B1450A"></path>
  <path d="M71.54 29.4599C71.62 29.4399 71.69 29.4399 71.77 29.4599C71.69 29.5799 71.62 29.5799 71.54 29.4599Z" fill="#B1450A"></path>
  <path d="M68.32 28.89C69.37 28.5 70.46 28.63 71.54 28.61C71.54 28.7 71.54 28.79 71.54 28.88C70.75 29.01 69.89 28.62 69.15 29.15C69.06 29.15 68.97 29.15 68.88 29.15C68.7 29.15 68.52 29.15 68.34 29.15C68.34 29.06 68.34 28.98 68.33 28.89H68.32Z" fill="#D7BC33"></path>
  <path d="M69.13 29.15C69.88 28.62 70.73 29.01 71.52 28.88C71.61 28.97 71.7 29.05 71.79 29.14C70.9 29.14 70.01 29.14 69.12 29.14L69.13 29.15Z" fill="#E1AD2A"></path>
  <path d="M48.92 24.59C49.08 24.61 49.25 24.64 49.41 24.66C49.41 24.74 49.41 24.81 49.41 24.89C47.91 25.04 46.37 24.59 44.89 25.15C44.73 25.16 44.56 25.17 44.4 25.18C44.14 25.08 43.89 24.99 43.63 24.89C43.62 24.81 43.63 24.73 43.66 24.65L48.93 24.6L48.92 24.59Z" fill="#BA5A13"></path>
  <path d="M44.89 25.1501C46.37 24.5901 47.91 25.0401 49.41 24.8901C49.3 25.1201 49.09 25.1601 48.87 25.1801C47.54 25.1701 46.22 25.1601 44.89 25.1501Z" fill="#B95A31"></path>
  <path d="M44.89 25.15C46.22 25.16 47.54 25.17 48.87 25.18C48.87 25.25 48.89 25.32 48.89 25.39C47.38 25.39 45.88 25.39 44.37 25.39C44.37 25.32 44.38 25.24 44.4 25.17C44.56 25.16 44.73 25.15 44.89 25.14V25.15Z" fill="#DD7F64"></path>
  <path d="M48.92 24.59C47.16 24.61 45.41 24.62 43.65 24.64C43.61 24.54 43.58 24.45 43.54 24.35H43.57C45.34 24.35 47.11 24.35 48.89 24.35C48.89 24.43 48.91 24.5 48.92 24.58V24.59Z" fill="#D68C1C"></path>
  <path d="M45.1 30.2099C44.68 30.2099 44.25 30.2099 43.83 30.2099C43.83 29.9499 43.83 29.6999 43.83 29.4399C44.33 29.5799 45.24 29.0199 45.1 30.2099Z" fill="#738A54"></path>
  <path d="M43.54 24.35C43.58 24.45 43.61 24.54 43.65 24.64C43.62 24.72 43.61 24.8 43.62 24.88C43.62 25.14 43.61 25.4 43.6 25.67C43.54 26.05 43.49 26.42 43.43 26.79C43.38 26.77 43.33 26.75 43.27 26.74C43.32 25.94 43.16 25.11 43.53 24.34L43.54 24.35Z" fill="#B4B561"></path>
  <path d="M43.61 25.67C43.61 25.41 43.62 25.15 43.63 24.88C43.89 24.98 44.14 25.07 44.4 25.17C44.39 25.24 44.38 25.32 44.38 25.39C44.13 25.48 43.87 25.57 43.62 25.66L43.61 25.67Z" fill="#B95A31"></path>
  <path d="M43.28 26.75C43.33 26.76 43.39 26.78 43.44 26.8C43.41 26.86 43.37 26.91 43.34 26.97C43.26 26.91 43.24 26.84 43.28 26.75Z" fill="#B95A31"></path>
  <path d="M56.62 33.9701C56.42 33.9501 56.22 33.9201 55.96 33.8901C56.29 33.5701 56.46 33.7701 56.64 33.9601L56.62 33.9801V33.9701Z" fill="#953402"></path>
  <path d="M100.83 24.6199C101.36 24.2399 101.89 24.2399 102.43 24.5999C101.9 24.5999 101.36 24.6099 100.83 24.6199Z" fill="#DA6F53"></path>
  <path d="M34.74 24.34C34.73 24.53 34.71 24.71 34.7 24.9C34.34 24.55 33.88 24.66 33.45 24.6C33.82 24.2 34.31 24.44 34.74 24.34Z" fill="#BC735E"></path>
  <path d="M67.02 22.2201C67.02 22.0601 67.03 21.8901 67.04 21.7301C67.53 21.9101 68.41 20.9301 68.53 22.2301C68.03 22.2301 67.53 22.2301 67.02 22.2201Z" fill="#66855C"></path>
  <path d="M67.02 22.22C67.52 22.22 68.02 22.22 68.53 22.23C68.53 22.32 68.53 22.41 68.53 22.49C68.02 22.49 67.51 22.49 67 22.49C67 22.4 67 22.31 67.01 22.22H67.02Z" fill="#88944E"></path>
  <path d="M66.97 23.53C67.07 23.42 67.17 23.31 67.28 23.2C67.64 23.08 67.99 23.07 68.34 23.23V23.3C68.01 24.14 67.5 23.91 66.97 23.53Z" fill="#A46029"></path>
  <path d="M68.34 23.24C67.99 23.08 67.64 23.09 67.28 23.21C67.65 22.49 68.01 22.53 68.34 23.24Z" fill="#D1A129"></path>
</svg>
